<svg width="64" height="64" viewBox="0 0 64 64" fill="none" xmlns="http://www.w3.org/2000/svg">
<rect width="64" height="64" rx="32" fill="#F9F9F9"/>
<path fill-rule="evenodd" clip-rule="evenodd" d="M26.5789 18.667C26.6081 18.667 26.6373 18.667 26.6667 18.667L37.4211 18.667C38.6031 18.6669 39.6215 18.6669 40.4371 18.7765C41.3111 18.894 42.1489 19.159 42.8284 19.8386C43.508 20.5181 43.773 21.3559 43.8905 22.2299C44.0001 23.0455 44.0001 24.0639 44 25.2459L44 26.6003C44 27.3367 43.4031 27.9337 42.6667 27.9337C41.9303 27.9337 41.3333 27.3367 41.3333 26.6003V25.3337C41.3333 24.0389 41.3305 23.2019 41.2476 22.5853C41.1698 22.007 41.0443 21.8257 40.9428 21.7242C40.8413 21.6227 40.6601 21.4972 40.0817 21.4194C39.4651 21.3365 38.6281 21.3337 37.3333 21.3337H33.3333V44.0003C33.3333 44.7367 32.7364 45.3337 32 45.3337C31.2636 45.3337 30.6667 44.7367 30.6667 44.0003V21.3337H26.6667C25.3719 21.3337 24.535 21.3365 23.9183 21.4194C23.34 21.4972 23.1587 21.6227 23.0572 21.7242C22.9557 21.8257 22.8302 22.007 22.7524 22.5853C22.6695 23.2019 22.6667 24.0389 22.6667 25.3337V26.6003C22.6667 27.3367 22.0697 27.9337 21.3333 27.9337C20.597 27.9337 20 27.3367 20 26.6003V25.3337C20 25.3043 20 25.2751 20 25.2459C19.9999 24.0639 19.9999 23.0455 20.1095 22.2299C20.227 21.3559 20.492 20.5181 21.1716 19.8386C21.8511 19.159 22.6889 18.894 23.563 18.7765C24.3785 18.6669 25.3969 18.6669 26.5789 18.667Z" fill="#121212"/>
<path d="M25.333 44H38.6663" stroke="#121212" stroke-width="2" stroke-linecap="round" stroke-linejoin="round"/>
</svg>
