<svg width="64" height="64" viewBox="0 0 64 64" fill="none" xmlns="http://www.w3.org/2000/svg">
<rect width="64" height="64" rx="32" fill="#F9F9F9"/>
<path fill-rule="evenodd" clip-rule="evenodd" d="M31.9997 20.333C32.552 20.333 32.9997 20.7807 32.9997 21.333L32.9997 42.6663C32.9997 43.2186 32.552 43.6663 31.9997 43.6663C31.4474 43.6663 30.9997 43.2186 30.9997 42.6663L30.9997 21.333C30.9997 20.7807 31.4474 20.333 31.9997 20.333ZM26.6663 24.333C27.2186 24.333 27.6663 24.7807 27.6663 25.333V38.6663C27.6663 39.2186 27.2186 39.6663 26.6663 39.6663C26.1141 39.6663 25.6663 39.2186 25.6663 38.6663V25.333C25.6663 24.7807 26.1141 24.333 26.6663 24.333ZM37.333 24.333C37.8853 24.333 38.333 24.7807 38.333 25.333V38.6663C38.333 39.2186 37.8853 39.6663 37.333 39.6663C36.7807 39.6663 36.333 39.2186 36.333 38.6663V25.333C36.333 24.7807 36.7807 24.333 37.333 24.333ZM21.333 29.6663C21.8853 29.6663 22.333 30.1141 22.333 30.6663L22.333 33.333C22.333 33.8853 21.8853 34.333 21.333 34.333C20.7807 34.333 20.333 33.8853 20.333 33.333L20.333 30.6663C20.333 30.1141 20.7807 29.6663 21.333 29.6663ZM42.6663 29.6663C43.2186 29.6663 43.6663 30.1141 43.6663 30.6663V33.333C43.6663 33.8853 43.2186 34.333 42.6663 34.333C42.1141 34.333 41.6663 33.8853 41.6663 33.333V30.6663C41.6663 30.1141 42.1141 29.6663 42.6663 29.6663Z" fill="#121212"/>
</svg>
