<svg width="64" height="64" viewBox="0 0 64 64" fill="none" xmlns="http://www.w3.org/2000/svg">
<rect width="64" height="64" rx="32" fill="#F9F9F9"/>
<path d="M23.5594 29.219L27.6422 23.6949C30.2814 20.1242 31.6009 18.3388 32.8321 18.7161C34.0632 19.0934 34.0632 21.2832 34.0632 25.6627V26.0756C34.0632 27.6552 34.0632 28.445 34.568 28.9404L34.5947 28.9661C35.1103 29.451 35.9323 29.451 37.5763 29.451C40.5348 29.451 42.0141 29.451 42.514 30.3482C42.5223 30.3631 42.5303 30.3781 42.5381 30.3932C43.0101 31.3043 42.1536 32.4631 40.4406 34.7808L36.3577 40.3047C33.7185 43.8755 32.3989 45.6609 31.1678 45.2836C29.9366 44.9063 29.9367 42.7165 29.9367 38.3369L29.9367 37.9242C29.9368 36.3446 29.9368 35.5548 29.4321 35.0593L29.4054 35.0337C28.8897 34.5487 28.0677 34.5487 26.4237 34.5487C23.4652 34.5487 21.9859 34.5487 21.486 33.6515C21.4777 33.6366 21.4697 33.6216 21.4619 33.6066C20.9899 32.6954 21.8464 31.5366 23.5594 29.219Z" fill="#121212"/>
</svg>
