<svg width="64" height="64" viewBox="0 0 64 64" fill="none" xmlns="http://www.w3.org/2000/svg">
<rect width="64" height="64" rx="32" fill="#F9F9F9"/>
<path fill-rule="evenodd" clip-rule="evenodd" d="M21.8854 39.8124C22.3624 39.5342 22.9747 39.6954 23.253 40.1725C24.3554 42.0631 26.0409 43.4928 28.1194 44.4205C28.6237 44.6455 28.8501 45.2369 28.625 45.7412C28.3999 46.2455 27.8086 46.4719 27.3043 46.2468C24.8889 45.1688 22.8625 43.4732 21.5253 41.18C21.247 40.7029 21.4083 40.0906 21.8854 39.8124Z" fill="#121212"/>
<path fill-rule="evenodd" clip-rule="evenodd" d="M41.208 21.2296C39.8561 19.8489 37.9282 19.3397 36.0408 19.8767C35.5096 20.0279 34.9564 19.7198 34.8053 19.1886C34.6541 18.6574 34.9622 18.1042 35.4934 17.9531C38.0777 17.2178 40.7663 17.9198 42.637 19.8303C43.0234 20.2249 43.0168 20.8581 42.6221 21.2445C42.2275 21.6309 41.5944 21.6242 41.208 21.2296Z" fill="#121212"/>
<path fill-rule="evenodd" clip-rule="evenodd" d="M30.9205 20.4115C30.6351 19.9221 29.8033 19.6253 28.9584 20.1081C28.1166 20.5892 27.9686 21.4373 28.249 21.9182L31.6166 27.693C31.8948 28.1701 31.7335 28.7824 31.2564 29.0606C30.7794 29.3388 30.1671 29.1776 29.8889 28.7005L25.3988 21.0008C25.1134 20.5113 24.2816 20.2145 23.4367 20.6974C22.5949 21.1785 22.4469 22.0265 22.7273 22.5074L27.7786 31.1697C28.0568 31.6468 27.8956 32.2591 27.4185 32.5373C26.9414 32.8155 26.3291 32.6543 26.0509 32.1772L23.8059 28.3273C23.5205 27.8379 22.6887 27.541 21.8438 28.0239C21.002 28.505 20.854 29.3531 21.1344 29.834L26.1857 38.4962C28.331 42.175 33.6248 43.3688 38.1141 40.8031C42.6003 38.2392 44.195 33.1172 42.0547 29.447L38.6872 23.6722C38.4018 23.1827 37.57 22.8859 36.7251 23.3688C35.8833 23.8499 35.7353 24.6979 36.0157 25.1788L38.2608 29.0287C38.3951 29.2591 38.4319 29.5337 38.3628 29.7913C38.2938 30.049 38.1247 30.2683 37.8931 30.4007C35.8365 31.5761 35.2062 33.8488 36.1066 35.3928C36.3848 35.8699 36.2236 36.4822 35.7465 36.7604C35.2694 37.0386 34.6571 36.8774 34.3789 36.4003C33.1619 34.3134 33.6537 31.8005 35.2255 30.0244C35.6649 29.5279 35.8154 28.8056 35.4814 28.2328L30.9205 20.4115Z" fill="#121212"/>
</svg>
