<svg width="495" height="388" viewBox="0 0 495 388" fill="none" xmlns="http://www.w3.org/2000/svg">
<rect width="495" height="388" rx="16" fill="url(#paint0_linear_315_2614)"/>
<mask id="mask0_315_2614" style="mask-type:alpha" maskUnits="userSpaceOnUse" x="0" y="0" width="495" height="388">
<rect width="495" height="388" rx="16" fill="url(#paint1_linear_315_2614)"/>
</mask>
<g mask="url(#mask0_315_2614)">
<g opacity="0.5">
<g style="mix-blend-mode:overlay">
<circle cx="100.19" cy="185.09" r="1.49239" transform="rotate(-76.2652 100.19 185.09)" fill="white"/>
</g>
<circle cx="128.152" cy="168.11" r="0.746581" transform="rotate(-76.2652 128.152 168.11)" fill="white"/>
<g style="mix-blend-mode:overlay">
<circle cx="75.8351" cy="130.741" r="0.746581" transform="rotate(-76.2652 75.8351 130.741)" fill="white"/>
</g>
<circle cx="208.591" cy="109.362" r="0.746581" transform="rotate(-76.2652 208.591 109.362)" fill="white"/>
<g style="mix-blend-mode:overlay">
<circle cx="174.288" cy="130.224" r="0.746581" transform="rotate(-76.2652 174.288 130.224)" fill="white"/>
</g>
<g style="mix-blend-mode:overlay">
<circle cx="137.563" cy="132.771" r="1.49239" transform="rotate(-76.2652 137.563 132.771)" fill="white"/>
</g>
<circle cx="104.248" cy="127.707" r="1.49239" transform="rotate(-76.2652 104.248 127.707)" fill="white"/>
<g style="mix-blend-mode:overlay">
<circle cx="176.797" cy="91.6595" r="1.49239" transform="rotate(-76.2652 176.797 91.6595)" fill="white"/>
</g>
<g style="mix-blend-mode:overlay">
<circle cx="162.946" cy="176.613" r="0.746581" transform="rotate(-76.2652 162.946 176.613)" fill="white"/>
</g>
<circle cx="165.653" cy="140.406" r="0.746581" transform="rotate(-76.2652 165.653 140.406)" fill="white"/>
<circle cx="139.399" cy="109.943" r="0.746581" transform="rotate(-76.2652 139.399 109.943)" fill="white"/>
<g style="mix-blend-mode:overlay">
<circle cx="104.829" cy="137.829" r="0.746581" transform="rotate(-76.2652 104.829 137.829)" fill="white"/>
</g>
<g style="mix-blend-mode:overlay">
<circle cx="191.39" cy="177.971" r="1.51304" transform="rotate(-9.69464 191.39 177.971)" fill="white"/>
</g>
<g style="mix-blend-mode:overlay">
<circle cx="218.462" cy="197.142" r="0.756911" transform="rotate(-9.69464 218.462 197.142)" fill="white"/>
</g>
<g style="mix-blend-mode:overlay">
<circle cx="232.131" cy="133.403" r="0.756911" transform="rotate(-9.69464 232.131 133.403)" fill="white"/>
</g>
<g style="mix-blend-mode:overlay">
<circle cx="299.94" cy="170.94" r="0.756911" transform="rotate(-9.69464 299.94 170.94)" fill="white"/>
</g>
<circle cx="272.302" cy="224.78" r="0.756911" transform="rotate(-9.69464 272.302 224.78)" fill="white"/>
<g style="mix-blend-mode:overlay">
<circle cx="255.125" cy="191.644" r="1.51304" transform="rotate(-9.69464 255.125 191.644)" fill="white"/>
</g>
<g style="mix-blend-mode:overlay">
<circle cx="282.765" cy="137.801" r="1.51304" transform="rotate(-9.69464 282.765 137.801)" fill="white"/>
</g>
<circle cx="309.184" cy="211.57" r="1.51304" transform="rotate(-9.69464 309.184 211.57)" fill="white"/>
<circle cx="224.576" cy="232.932" r="0.756911" transform="rotate(-9.69464 224.576 232.932)" fill="white"/>
<circle cx="259.349" cy="220.852" r="0.756911" transform="rotate(-9.69464 259.349 220.852)" fill="white"/>
<g style="mix-blend-mode:overlay">
<circle cx="269.96" cy="139.222" r="0.756911" transform="rotate(-9.69464 269.96 139.222)" fill="white"/>
</g>
<g style="mix-blend-mode:overlay">
<circle cx="237.226" cy="163.233" r="0.756911" transform="rotate(-9.69464 237.226 163.233)" fill="white"/>
</g>
<circle cx="369.102" cy="294.875" r="1.65112" transform="rotate(-71.272 369.102 294.875)" fill="white"/>
<g style="mix-blend-mode:overlay">
<circle cx="397.862" cy="288.758" r="0.825988" transform="rotate(-71.272 397.862 288.758)" fill="white"/>
</g>
<circle cx="343.797" cy="242.533" r="0.825988" transform="rotate(-71.272 343.797 242.533)" fill="white"/>
<g style="mix-blend-mode:overlay">
<circle cx="415.043" cy="196.951" r="0.825988" transform="rotate(-71.272 415.043 196.951)" fill="white"/>
</g>
<g style="mix-blend-mode:overlay">
<circle cx="452.356" cy="251.442" r="0.825988" transform="rotate(-71.272 452.356 251.442)" fill="white"/>
</g>
<g style="mix-blend-mode:overlay">
<circle cx="411.629" cy="250.713" r="1.65112" transform="rotate(-71.272 411.629 250.713)" fill="white"/>
</g>
<circle cx="372.383" cy="184.911" r="1.65112" transform="rotate(-71.272 372.383 184.911)" fill="white"/>
<g style="mix-blend-mode:overlay">
<circle cx="458.839" cy="209.185" r="1.65112" transform="rotate(-71.272 458.839 209.185)" fill="white"/>
</g>
<g style="mix-blend-mode:overlay">
<circle cx="435.388" cy="301.48" r="0.825988" transform="rotate(-71.272 435.388 301.48)" fill="white"/>
</g>
<g style="mix-blend-mode:overlay">
<circle cx="441.862" cy="261.835" r="0.825988" transform="rotate(-71.272 441.862 261.835)" fill="white"/>
</g>
<circle cx="369.029" cy="209.247" r="0.825988" transform="rotate(-71.272 369.029 209.247)" fill="white"/>
<circle cx="375.071" cy="253.135" r="0.825988" transform="rotate(-71.272 375.071 253.135)" fill="white"/>
<g style="mix-blend-mode:overlay">
<circle cx="188.045" cy="356.505" r="1.83029" transform="rotate(-130.143 188.045 356.505)" fill="white"/>
</g>
<g style="mix-blend-mode:overlay">
<circle cx="191.445" cy="316.531" r="0.915618" transform="rotate(-130.143 191.445 316.531)" fill="white"/>
</g>
<g style="mix-blend-mode:overlay">
<circle cx="116.597" cy="341.34" r="0.915618" transform="rotate(-130.143 116.597 341.34)" fill="white"/>
</g>
<g style="mix-blend-mode:overlay">
<circle cx="114.172" cy="247.617" r="0.915618" transform="rotate(-130.143 114.172 247.617)" fill="white"/>
</g>
<g style="mix-blend-mode:overlay">
<circle cx="187.263" cy="243.436" r="0.915618" transform="rotate(-130.143 187.263 243.436)" fill="white"/>
</g>
<g style="mix-blend-mode:overlay">
<circle cx="163.236" cy="281.662" r="1.83029" transform="rotate(-130.143 163.236 281.662)" fill="white"/>
</g>
<circle cx="85.2563" cy="260.473" r="1.83029" transform="rotate(-130.143 85.2563 260.473)" fill="white"/>
<g style="mix-blend-mode:overlay">
<circle cx="155.456" cy="239.854" r="1.83029" transform="rotate(-130.143 155.456 239.854)" fill="white"/>
</g>
<g style="mix-blend-mode:overlay">
<circle cx="225.022" cy="288.208" r="0.915618" transform="rotate(-130.143 225.022 288.208)" fill="white"/>
</g>
<g style="mix-blend-mode:overlay">
<circle cx="191.109" cy="259.35" r="0.915618" transform="rotate(-130.143 191.109 259.35)" fill="white"/>
</g>
<circle cx="126.413" cy="285.93" r="0.915618" transform="rotate(-130.143 126.413 285.93)" fill="white"/>
<g style="mix-blend-mode:overlay">
<circle cx="144.578" cy="317.742" r="0.915618" transform="rotate(-130.143 144.578 317.742)" fill="white"/>
</g>
</g>
<g opacity="0.1" filter="url(#filter0_d_315_2614)">
<circle cx="250.398" cy="194" r="186" fill="#D9D9D9"/>
<circle cx="250.398" cy="194" r="185.285" stroke="white" stroke-width="1.43077"/>
</g>
<circle opacity="0.5" cx="250.399" cy="194" r="82.2692" stroke="white" stroke-width="1.43077"/>
<circle opacity="0.3" cx="250.398" cy="194" r="110.885" stroke="white" stroke-width="1.43077"/>
<circle opacity="0.1" cx="250.398" cy="194" r="140.931" stroke="white" stroke-width="1.43077"/>
<circle opacity="0.1" cx="250.398" cy="194" r="185.285" stroke="white" stroke-width="1.43077"/>
<rect x="185.298" y="128.185" width="131.631" height="131.631" rx="65.8154" fill="white"/>
<path d="M261.822 196.131L260.752 197.196C260.752 197.196 258.207 199.726 251.261 192.819C244.315 185.913 246.86 183.383 246.86 183.383L247.534 182.712C249.195 181.061 249.352 178.41 247.903 176.474L244.939 172.515C243.145 170.119 239.68 169.803 237.624 171.847L233.935 175.515C232.916 176.529 232.233 177.842 232.315 179.3C232.527 183.028 234.214 191.05 243.627 200.41C253.61 210.336 262.976 210.73 266.806 210.373C268.017 210.26 269.071 209.643 269.92 208.799L273.259 205.479C275.513 203.238 274.878 199.395 271.994 197.828L267.503 195.387C265.609 194.357 263.302 194.66 261.822 196.131Z" fill="#C2AAD8"/>
<mask id="path-59-inside-1_315_2614" fill="white">
<path d="M436.398 194C436.398 159.442 426.771 125.566 408.595 96.1738C390.419 66.7812 364.413 43.0336 333.496 27.5943C302.578 12.155 267.97 5.63457 233.553 8.76436C199.137 11.8941 166.273 24.5504 138.647 45.3135L250.398 194H436.398Z"/>
</mask>
<path d="M436.398 194C436.398 159.442 426.771 125.566 408.595 96.1738C390.419 66.7812 364.413 43.0336 333.496 27.5943C302.578 12.155 267.97 5.63457 233.553 8.76436C199.137 11.8941 166.273 24.5504 138.647 45.3135L250.398 194H436.398Z" fill="white" fill-opacity="0.1" stroke="url(#paint2_linear_315_2614)" stroke-width="2.86154" mask="url(#path-59-inside-1_315_2614)"/>
</g>
<path d="M113.208 317.288L108.088 317.288L108.088 313.608L117.144 313.608L117.144 337L113.208 337L113.208 317.288ZM121.126 325.352C121.126 318.088 125.03 313.16 131.014 313.16C136.998 313.16 140.934 318.088 140.934 325.352C140.934 332.584 137.222 337.416 131.014 337.416C124.806 337.416 121.126 332.584 121.126 325.352ZM125.158 325.352C125.158 330.76 127.334 333.8 131.014 333.8C134.726 333.8 136.902 330.76 136.902 325.352C136.902 319.816 134.726 316.776 131.014 316.776C127.334 316.776 125.158 319.816 125.158 325.352ZM143.689 325.352C143.689 318.088 147.593 313.16 153.577 313.16C159.561 313.16 163.497 318.088 163.497 325.352C163.497 332.584 159.785 337.416 153.577 337.416C147.369 337.416 143.689 332.584 143.689 325.352ZM147.721 325.352C147.721 330.76 149.897 333.8 153.577 333.8C157.289 333.8 159.465 330.76 159.465 325.352C159.465 319.816 157.289 316.776 153.577 316.776C149.897 316.776 147.721 319.816 147.721 325.352ZM178.187 319.304C178.187 322.92 175.627 325.448 172.075 325.448C168.523 325.448 165.963 322.92 165.963 319.304C165.963 315.72 168.523 313.16 172.075 313.16C175.627 313.16 178.187 315.72 178.187 319.304ZM191.019 313.64L173.259 337L169.355 337L187.115 313.64L191.019 313.64ZM175.083 319.304C175.083 317.448 173.867 316.168 172.075 316.168C170.283 316.168 169.099 317.448 169.099 319.304C169.099 321.16 170.315 322.44 172.075 322.44C173.867 322.44 175.083 321.16 175.083 319.304ZM194.443 331.272C194.443 334.856 191.915 337.416 188.363 337.416C184.779 337.416 182.251 334.856 182.251 331.272C182.251 327.688 184.779 325.128 188.363 325.128C191.915 325.128 194.443 327.688 194.443 331.272ZM191.339 331.272C191.339 329.416 190.123 328.136 188.363 328.136C186.571 328.136 185.355 329.416 185.355 331.272C185.355 333.128 186.571 334.408 188.363 334.408C190.123 334.408 191.339 333.128 191.339 331.272ZM216.668 337.384C209.852 337.384 205.436 332.648 205.436 325.32C205.436 318.056 210.012 313.224 216.86 313.224C222.396 313.224 226.524 316.456 227.324 321.48L223.004 321.48C222.204 318.76 219.868 317.16 216.764 317.16C212.444 317.16 209.724 320.296 209.724 325.288C209.724 330.248 212.476 333.448 216.764 333.448C219.932 333.448 222.364 331.784 223.132 329.192L227.388 329.192C226.492 334.12 222.204 337.384 216.668 337.384ZM234.876 337.416C231.516 337.416 229.468 335.464 229.468 332.488C229.468 329.576 231.58 327.752 235.324 327.464L240.06 327.112L240.06 326.76C240.06 324.616 238.78 323.752 236.796 323.752C234.492 323.752 233.212 324.712 233.212 326.376L229.884 326.376C229.884 322.952 232.7 320.712 236.988 320.712C241.244 320.712 243.868 323.016 243.868 327.4L243.868 337L240.444 337L240.156 334.664C239.484 336.296 237.34 337.416 234.876 337.416ZM236.156 334.472C238.556 334.472 240.092 333.032 240.092 330.6L240.092 329.768L236.796 330.024C234.364 330.248 233.436 331.048 233.436 332.328C233.436 333.768 234.396 334.472 236.156 334.472ZM251.64 337L247.768 337L247.768 313.192L251.64 313.192L251.64 337ZM259.671 337L255.799 337L255.799 313.192L259.671 313.192L259.671 337ZM262.55 332.2L266.262 332.2C266.294 333.576 267.318 334.44 269.11 334.44C270.934 334.44 271.926 333.704 271.926 332.552C271.926 331.752 271.51 331.176 270.102 330.856L267.254 330.184C264.406 329.544 263.03 328.2 263.03 325.672C263.03 322.568 265.654 320.712 269.302 320.712C272.854 320.712 275.254 322.76 275.286 325.832L271.574 325.832C271.542 324.488 270.646 323.624 269.142 323.624C267.606 323.624 266.71 324.328 266.71 325.512C266.71 326.408 267.414 326.984 268.758 327.304L271.606 327.976C274.262 328.584 275.606 329.8 275.606 332.232C275.606 335.432 272.886 337.416 268.982 337.416C265.046 337.416 262.55 335.304 262.55 332.2ZM297.028 328.936L291.876 328.936L291.876 337L287.78 337L287.78 313.608L297.028 313.608C301.732 313.608 304.772 316.68 304.772 321.256C304.772 325.768 301.7 328.936 297.028 328.936ZM296.228 317.256L291.876 317.256L291.876 325.288L296.164 325.288C298.98 325.288 300.484 323.784 300.484 321.224C300.484 318.664 298.948 317.256 296.228 317.256ZM309.593 318.024C308.249 318.024 307.193 316.968 307.193 315.656C307.193 314.344 308.249 313.32 309.593 313.32C310.873 313.32 311.929 314.344 311.929 315.656C311.929 316.968 310.873 318.024 309.593 318.024ZM307.641 337L307.641 321.192L311.545 321.192L311.545 337L307.641 337ZM314.651 329.064C314.651 324.168 317.883 320.712 322.555 320.712C326.875 320.712 329.819 323.112 330.235 326.92L326.331 326.92C325.883 325.128 324.571 324.2 322.715 324.2C320.219 324.2 318.555 326.088 318.555 329.064C318.555 332.04 320.091 333.896 322.587 333.896C324.539 333.896 325.915 332.936 326.331 331.208L330.267 331.208C329.787 334.888 326.715 337.416 322.587 337.416C317.787 337.416 314.651 334.088 314.651 329.064ZM337.108 337L333.236 337L333.236 313.192L337.108 313.192L337.108 327.816L343.252 321.192L348.148 321.192L342.132 327.464L348.02 337L343.54 337L339.412 330.344L337.108 332.744L337.108 337ZM361.111 321.192L365.015 321.192L365.015 337L361.399 337L361.111 334.888C360.151 336.392 358.103 337.416 355.991 337.416C352.343 337.416 350.199 334.952 350.199 331.08L350.199 321.192L354.103 321.192L354.103 329.704C354.103 332.712 355.287 333.928 357.463 333.928C359.927 333.928 361.111 332.488 361.111 329.48L361.111 321.192ZM369.047 344.328L369.047 321.192L372.663 321.192L372.919 323.592C373.879 321.768 375.959 320.712 378.359 320.712C382.807 320.712 385.751 323.944 385.751 328.904C385.751 333.832 383.063 337.416 378.359 337.416C375.991 337.416 373.943 336.488 372.951 334.888L372.951 344.328L369.047 344.328ZM372.983 329.096C372.983 331.944 374.743 333.896 377.431 333.896C380.183 333.896 381.815 331.912 381.815 329.096C381.815 326.28 380.183 324.264 377.431 324.264C374.743 324.264 372.983 326.248 372.983 329.096Z" fill="white"/>
<defs>
<filter id="filter0_d_315_2614" x="47.5984" y="5.2" width="405.6" height="405.6" filterUnits="userSpaceOnUse" color-interpolation-filters="sRGB">
<feFlood flood-opacity="0" result="BackgroundImageFix"/>
<feColorMatrix in="SourceAlpha" type="matrix" values="0 0 0 0 0 0 0 0 0 0 0 0 0 0 0 0 0 0 127 0" result="hardAlpha"/>
<feOffset dy="14"/>
<feGaussianBlur stdDeviation="8.4"/>
<feComposite in2="hardAlpha" operator="out"/>
<feColorMatrix type="matrix" values="0 0 0 0 0 0 0 0 0 0 0 0 0 0 0 0 0 0 0.25 0"/>
<feBlend mode="normal" in2="BackgroundImageFix" result="effect1_dropShadow_315_2614"/>
<feBlend mode="normal" in="SourceGraphic" in2="effect1_dropShadow_315_2614" result="shape"/>
</filter>
<linearGradient id="paint0_linear_315_2614" x1="-28.5348" y1="-12.2706" x2="372.339" y2="486.571" gradientUnits="userSpaceOnUse">
<stop offset="0.111618" stop-color="#6E5DED"/>
<stop offset="0.486101" stop-color="#B18EED"/>
<stop offset="0.921954" stop-color="#CDB6D1"/>
</linearGradient>
<linearGradient id="paint1_linear_315_2614" x1="62.2931" y1="28.6485" x2="309.78" y2="587.01" gradientUnits="userSpaceOnUse">
<stop stop-color="#CDB6D1"/>
<stop offset="0.537437" stop-color="#B297E1"/>
<stop offset="1" stop-color="#C289FF"/>
</linearGradient>
<linearGradient id="paint2_linear_315_2614" x1="250.398" y1="8" x2="402.423" y2="210.124" gradientUnits="userSpaceOnUse">
<stop stop-color="white"/>
<stop offset="0.472061" stop-color="#DFC1FF" stop-opacity="0"/>
<stop offset="0.972581" stop-color="#DAB7FF"/>
</linearGradient>
</defs>
</svg>
