<svg width="495" height="388" viewBox="0 0 495 388" fill="none" xmlns="http://www.w3.org/2000/svg">
<rect width="495" height="388" rx="16" fill="url(#paint0_linear_315_3097)"/>
<mask id="mask0_315_3097" style="mask-type:alpha" maskUnits="userSpaceOnUse" x="0" y="0" width="495" height="388">
<rect width="495" height="388" rx="16" fill="url(#paint1_linear_315_3097)"/>
</mask>
<g mask="url(#mask0_315_3097)">
<path d="M319.923 332.03C320.098 332.451 319.93 334.045 319 334.414C318.07 334.784 316.882 334.414 316.882 334.414L314.726 330.102L311 333.828V317L322.414 328.414H318.162C318.37 328.814 319.7 331.495 319.923 332.03Z" fill="white"/>
<path fill-rule="evenodd" clip-rule="evenodd" d="M312 319.414V331.414L315 328.414L317.5 333.414C317.5 333.414 318.176 333.63 318.5 333.414C318.824 333.198 319.146 332.764 319 332.414C318.312 330.764 316.5 327.414 316.5 327.414H320L312 319.414Z" fill="white"/>
<rect x="19.5" y="24.5" width="560" height="428" rx="17.5" fill="url(#paint2_linear_315_3097)" stroke="url(#paint3_linear_315_3097)"/>
<rect x="44.5" y="185.5" width="406" height="310" rx="17.5" fill="url(#paint4_linear_315_3097)" stroke="url(#paint5_linear_315_3097)"/>
<rect x="60.5" y="209.5" width="51.1809" height="54.2504" stroke="white" stroke-opacity="0.1"/>
<rect x="115.137" y="209.5" width="51.1809" height="54.2504" stroke="white" stroke-opacity="0.1"/>
<rect x="169.773" y="209.5" width="51.1809" height="54.2504" stroke="white" stroke-opacity="0.1"/>
<rect x="224.409" y="209.5" width="51.1809" height="54.2504" stroke="white" stroke-opacity="0.1"/>
<rect x="279.046" y="209.5" width="51.1809" height="54.2504" stroke="white" stroke-opacity="0.1"/>
<rect x="333.683" y="209.5" width="51.1809" height="54.2504" stroke="white" stroke-opacity="0.1"/>
<rect x="388.319" y="209.5" width="51.1809" height="54.2504" stroke="white" stroke-opacity="0.1"/>
<path opacity="0.3" d="M188.88 231.68L185.68 231.68L185.68 229.38L191.34 229.38L191.34 244L188.88 244L188.88 231.68ZM204.029 243.98L193.889 244L193.889 242.08L198.669 238.04C200.649 236.36 201.309 235.4 201.309 234C201.309 232.34 200.409 231.4 198.869 231.4C197.269 231.4 196.269 232.52 196.249 234.4L193.709 234.4C193.729 231.2 195.769 229.12 198.869 229.12C201.989 229.12 203.929 230.9 203.929 233.86C203.929 235.9 202.809 237.44 200.589 239.34L197.949 241.6L204.029 241.6L204.029 243.98Z" fill="white"/>
<path opacity="0.2" d="M133.88 231.68L130.68 231.68L130.68 229.38L136.34 229.38L136.34 244L133.88 244L133.88 231.68ZM141.575 231.68L138.375 231.68L138.375 229.38L144.035 229.38L144.035 244L141.575 244L141.575 231.68Z" fill="white"/>
<path opacity="0.2" d="M78.88 231.68L75.68 231.68L75.68 229.38L81.34 229.38L81.34 244L78.88 244L78.88 231.68ZM83.8288 236.72C83.8288 232.18 86.2688 229.1 90.0088 229.1C93.7488 229.1 96.2088 232.18 96.2088 236.72C96.2088 241.24 93.8888 244.26 90.0088 244.26C86.1288 244.26 83.8288 241.24 83.8288 236.72ZM86.3488 236.72C86.3488 240.1 87.7088 242 90.0088 242C92.3288 242 93.6888 240.1 93.6888 236.72C93.6888 233.26 92.3288 231.36 90.0088 231.36C87.7088 231.36 86.3488 233.26 86.3488 236.72Z" fill="white"/>
<rect x="60.5" y="270.5" width="51.1809" height="54.2504" stroke="white" stroke-opacity="0.1"/>
<rect x="115.137" y="270.5" width="51.1809" height="54.2504" stroke="white" stroke-opacity="0.1"/>
<rect x="169.773" y="270.5" width="51.1809" height="54.2504" stroke="white" stroke-opacity="0.1"/>
<rect x="224.409" y="270.5" width="51.1809" height="54.2504" stroke="white" stroke-opacity="0.1"/>
<rect x="279.046" y="270.5" width="51.1809" height="54.2504" stroke="white" stroke-opacity="0.1"/>
<rect x="333.683" y="270.5" width="51.1809" height="54.2504" stroke="white" stroke-opacity="0.1"/>
<rect x="388.319" y="270.5" width="51.1809" height="54.2504" stroke="white" stroke-opacity="0.1"/>
<path d="M304.06 304.98L293.92 305L293.92 303.08L298.7 299.04C300.68 297.36 301.34 296.4 301.34 295C301.34 293.34 300.44 292.4 298.9 292.4C297.3 292.4 296.3 293.52 296.28 295.4L293.74 295.4C293.76 292.2 295.8 290.12 298.9 290.12C302.02 290.12 303.96 291.9 303.96 294.86C303.96 296.9 302.84 298.44 300.62 300.34L297.98 302.6L304.06 302.6L304.06 304.98ZM315.974 304.98L305.834 305L305.834 303.08L310.614 299.04C312.594 297.36 313.254 296.4 313.254 295C313.254 293.34 312.354 292.4 310.814 292.4C309.214 292.4 308.214 293.52 308.194 295.4L305.654 295.4C305.674 292.2 307.714 290.12 310.814 290.12C313.934 290.12 315.874 291.9 315.874 294.86C315.874 296.9 314.754 298.44 312.534 300.34L309.894 302.6L315.974 302.6L315.974 304.98Z" fill="white"/>
<path opacity="0.4" d="M251.06 304.98L240.92 305L240.92 303.08L245.7 299.04C247.68 297.36 248.34 296.4 248.34 295C248.34 293.34 247.44 292.4 245.9 292.4C244.3 292.4 243.3 293.52 243.28 295.4L240.74 295.4C240.76 292.2 242.8 290.12 245.9 290.12C249.02 290.12 250.96 291.9 250.96 294.86C250.96 296.9 249.84 298.44 247.62 300.34L244.98 302.6L251.06 302.6L251.06 304.98ZM255.794 292.68L252.594 292.68L252.594 290.38L258.254 290.38L258.254 305L255.794 305L255.794 292.68Z" fill="white"/>
<path opacity="0.3" d="M196.06 304.98L185.92 305L185.92 303.08L190.7 299.04C192.68 297.36 193.34 296.4 193.34 295C193.34 293.34 192.44 292.4 190.9 292.4C189.3 292.4 188.3 293.52 188.28 295.4L185.74 295.4C185.76 292.2 187.8 290.12 190.9 290.12C194.02 290.12 195.96 291.9 195.96 294.86C195.96 296.9 194.84 298.44 192.62 300.34L189.98 302.6L196.06 302.6L196.06 304.98ZM197.637 297.72C197.637 293.18 200.077 290.1 203.817 290.1C207.557 290.1 210.017 293.18 210.017 297.72C210.017 302.24 207.697 305.26 203.817 305.26C199.937 305.26 197.637 302.24 197.637 297.72ZM200.157 297.72C200.157 301.1 201.517 303 203.817 303C206.137 303 207.497 301.1 207.497 297.72C207.497 294.26 206.137 292.36 203.817 292.36C201.517 292.36 200.157 294.26 200.157 297.72Z" fill="white"/>
<path opacity="0.2" d="M133.88 292.68L130.68 292.68L130.68 290.38L136.34 290.38L136.34 305L133.88 305L133.88 292.68ZM147.429 300.7L144.269 305L141.349 305L144.849 300.34C144.489 300.44 144.109 300.5 143.749 300.5C140.729 300.5 138.689 298.38 138.689 295.42C138.689 292.3 141.009 290.12 144.129 290.12C147.289 290.12 149.649 292.44 149.649 295.44C149.649 297.2 149.069 298.48 147.429 300.7ZM147.029 295.42C147.029 293.64 145.849 292.4 144.129 292.4C142.449 292.4 141.269 293.64 141.269 295.42C141.269 297.18 142.449 298.4 144.129 298.4C145.869 298.4 147.029 297.18 147.029 295.42Z" fill="white"/>
<path opacity="0.2" d="M78.88 292.68L75.68 292.68L75.68 290.38L81.34 290.38L81.34 305L78.88 305L78.88 292.68ZM83.672 300.86C83.672 299.12 84.652 297.72 86.172 297.14C84.892 296.56 84.192 295.46 84.192 294.04C84.192 291.72 86.252 290.12 89.272 290.12C92.272 290.12 94.292 291.7 94.292 294.08C94.292 295.5 93.572 296.6 92.272 297.14C93.812 297.68 94.812 299.1 94.812 300.86C94.812 303.5 92.632 305.24 89.232 305.24C85.852 305.24 83.672 303.52 83.672 300.86ZM86.512 294.26C86.512 295.48 87.572 296.26 89.232 296.26C90.872 296.26 91.912 295.5 91.912 294.28C91.912 293.06 90.872 292.3 89.232 292.3C87.572 292.3 86.512 293.06 86.512 294.26ZM86.172 300.68C86.172 302.1 87.352 302.98 89.252 302.98C91.112 302.98 92.292 302.1 92.292 300.68C92.292 299.26 91.112 298.38 89.232 298.38C87.352 298.38 86.172 299.26 86.172 300.68Z" fill="white"/>
<path opacity="0.5" d="M360.06 304.98L349.92 305L349.92 303.08L354.7 299.04C356.68 297.36 357.34 296.4 357.34 295C357.34 293.34 356.44 292.4 354.9 292.4C353.3 292.4 352.3 293.52 352.28 295.4L349.74 295.4C349.76 292.2 351.8 290.12 354.9 290.12C358.02 290.12 359.96 291.9 359.96 294.86C359.96 296.9 358.84 298.44 356.62 300.34L353.98 302.6L360.06 302.6L360.06 304.98ZM366.094 297.76L364.314 297.76L364.314 296.1L368.074 292.64L361.994 292.64L361.994 290.38L371.274 290.38L371.274 292.42L367.714 295.7C369.954 296.14 371.694 297.78 371.694 300.36C371.694 303.36 369.354 305.26 366.394 305.26C363.534 305.26 361.314 303.5 361.314 300.34L363.834 300.34C363.834 302.02 364.874 302.98 366.434 302.98C368.034 302.98 369.094 301.94 369.094 300.32C369.094 298.84 368.134 297.76 366.094 297.76Z" fill="white"/>
<path opacity="0.2" d="M413.06 304.98L402.92 305L402.92 303.08L407.7 299.04C409.68 297.36 410.34 296.4 410.34 295C410.34 293.34 409.44 292.4 407.9 292.4C406.3 292.4 405.3 293.52 405.28 295.4L402.74 295.4C402.76 292.2 404.8 290.12 407.9 290.12C411.02 290.12 412.96 291.9 412.96 294.86C412.96 296.9 411.84 298.44 409.62 300.34L406.98 302.6L413.06 302.6L413.06 304.98ZM425.743 302.22L423.963 302.22L423.963 305L421.543 305L421.543 302.22L414.123 302.22L414.123 299.98L420.743 290.38L423.963 290.38L423.963 299.98L425.743 299.98L425.743 302.22ZM416.843 299.98L421.543 299.98L421.543 293.14L416.843 299.98Z" fill="white"/>
<rect x="60.5" y="333.5" width="51.1809" height="54.2504" stroke="white" stroke-opacity="0.1"/>
<rect x="115.137" y="333.5" width="51.1809" height="54.2504" stroke="white" stroke-opacity="0.1"/>
<rect x="169.773" y="333.5" width="51.1809" height="54.2504" stroke="white" stroke-opacity="0.1"/>
<rect x="224.409" y="333.5" width="51.1809" height="54.2504" stroke="white" stroke-opacity="0.1"/>
<rect x="279.046" y="333.5" width="51.1809" height="54.2504" stroke="white" stroke-opacity="0.1"/>
<rect x="333.683" y="333.5" width="51.1809" height="54.2504" stroke="white" stroke-opacity="0.1"/>
<rect x="388.319" y="333.5" width="51.1809" height="54.2504" stroke="white" stroke-opacity="0.1"/>
<path opacity="0.5" d="M304.06 367.98L293.92 368L293.92 366.08L298.7 362.04C300.68 360.36 301.34 359.4 301.34 358C301.34 356.34 300.44 355.4 298.9 355.4C297.3 355.4 296.3 356.52 296.28 358.4L293.74 358.4C293.76 355.2 295.8 353.12 298.9 353.12C302.02 353.12 303.96 354.9 303.96 357.86C303.96 359.9 302.84 361.44 300.62 363.34L297.98 365.6L304.06 365.6L304.06 367.98ZM314.237 363.7L311.077 368L308.157 368L311.657 363.34C311.297 363.44 310.917 363.5 310.557 363.5C307.537 363.5 305.497 361.38 305.497 358.42C305.497 355.3 307.817 353.12 310.937 353.12C314.097 353.12 316.457 355.44 316.457 358.44C316.457 360.2 315.877 361.48 314.237 363.7ZM313.837 358.42C313.837 356.64 312.657 355.4 310.937 355.4C309.257 355.4 308.077 356.64 308.077 358.42C308.077 360.18 309.257 361.4 310.937 361.4C312.677 361.4 313.837 360.18 313.837 358.42Z" fill="white"/>
<path opacity="0.1" d="M251.06 367.98L240.92 368L240.92 366.08L245.7 362.04C247.68 360.36 248.34 359.4 248.34 358C248.34 356.34 247.44 355.4 245.9 355.4C244.3 355.4 243.3 356.52 243.28 358.4L240.74 358.4C240.76 355.2 242.8 353.12 245.9 353.12C249.02 353.12 250.96 354.9 250.96 357.86C250.96 359.9 249.84 361.44 247.62 363.34L244.98 365.6L251.06 365.6L251.06 367.98ZM252.617 363.86C252.617 362.12 253.597 360.72 255.117 360.14C253.837 359.56 253.137 358.46 253.137 357.04C253.137 354.72 255.197 353.12 258.217 353.12C261.217 353.12 263.237 354.7 263.237 357.08C263.237 358.5 262.517 359.6 261.217 360.14C262.757 360.68 263.757 362.1 263.757 363.86C263.757 366.5 261.577 368.24 258.177 368.24C254.797 368.24 252.617 366.52 252.617 363.86ZM255.457 357.26C255.457 358.48 256.517 359.26 258.177 359.26C259.817 359.26 260.857 358.5 260.857 357.28C260.857 356.06 259.817 355.3 258.177 355.3C256.517 355.3 255.457 356.06 255.457 357.26ZM255.117 363.68C255.117 365.1 256.297 365.98 258.197 365.98C260.057 365.98 261.237 365.1 261.237 363.68C261.237 362.26 260.057 361.38 258.177 361.38C256.297 361.38 255.117 362.26 255.117 363.68Z" fill="white"/>
<path opacity="0.1" d="M196.06 367.98L185.92 368L185.92 366.08L190.7 362.04C192.68 360.36 193.34 359.4 193.34 358C193.34 356.34 192.44 355.4 190.9 355.4C189.3 355.4 188.3 356.52 188.28 358.4L185.74 358.4C185.76 355.2 187.8 353.12 190.9 353.12C194.02 353.12 195.96 354.9 195.96 357.86C195.96 359.9 194.84 361.44 192.62 363.34L189.98 365.6L196.06 365.6L196.06 367.98ZM196.859 353.38L207.359 353.38L207.359 355.74L202.059 368L199.399 368L204.799 355.74L196.859 355.74L196.859 353.38Z" fill="white"/>
<path opacity="0.2" d="M141.06 367.98L130.92 368L130.92 366.08L135.7 362.04C137.68 360.36 138.34 359.4 138.34 358C138.34 356.34 137.44 355.4 135.9 355.4C134.3 355.4 133.3 356.52 133.28 358.4L130.74 358.4C130.76 355.2 132.8 353.12 135.9 353.12C139.02 353.12 140.96 354.9 140.96 357.86C140.96 359.9 139.84 361.44 137.62 363.34L134.98 365.6L141.06 365.6L141.06 367.98ZM144.717 357.68L147.877 353.38L150.797 353.38L147.297 358.04C147.657 357.94 148.037 357.88 148.397 357.88C151.417 357.88 153.457 360 153.457 362.96C153.457 366.08 151.137 368.26 148.017 368.26C144.857 368.26 142.497 365.94 142.497 362.94C142.497 361.18 143.077 359.9 144.717 357.68ZM145.117 362.96C145.117 364.74 146.297 365.98 148.017 365.98C149.677 365.98 150.877 364.74 150.877 362.96C150.877 361.2 149.697 359.98 148.017 359.98C146.277 359.98 145.117 361.2 145.117 362.96Z" fill="white"/>
<path opacity="0.1" d="M86.06 367.98L75.92 368L75.92 366.08L80.7 362.04C82.68 360.36 83.34 359.4 83.34 358C83.34 356.34 82.44 355.4 80.9 355.4C79.3 355.4 78.3 356.52 78.28 358.4L75.74 358.4C75.76 355.2 77.8 353.12 80.9 353.12C84.02 353.12 85.96 354.9 85.96 357.86C85.96 359.9 84.84 361.44 82.62 363.34L79.98 365.6L86.06 365.6L86.06 367.98ZM92.5016 368.24C89.4416 368.24 87.4216 366.28 87.4216 363.32L89.9616 363.32C89.9616 364.98 90.9416 365.96 92.5616 365.96C94.2816 365.96 95.3816 364.84 95.3816 363.06C95.3816 361.36 94.3616 360.2 92.6016 360.2C91.4816 360.2 90.4616 360.76 89.9416 361.52L87.6816 361.04L89.4816 353.38L97.1016 353.38L97.1016 355.74L91.3216 355.74L90.5416 358.78C91.2416 358.32 92.1216 358.06 93.1216 358.06C96.0416 358.06 97.9816 360.04 97.9816 362.92C97.9816 366.08 95.7616 368.24 92.5016 368.24Z" fill="white"/>
<path opacity="0.1" d="M354.18 360.76L352.4 360.76L352.4 359.1L356.16 355.64L350.08 355.64L350.08 353.38L359.36 353.38L359.36 355.42L355.8 358.7C358.04 359.14 359.78 360.78 359.78 363.36C359.78 366.36 357.44 368.26 354.48 368.26C351.62 368.26 349.4 366.5 349.4 363.34L351.92 363.34C351.92 365.02 352.96 365.98 354.52 365.98C356.12 365.98 357.18 364.94 357.18 363.32C357.18 361.84 356.22 360.76 354.18 360.76ZM361.247 360.72C361.247 356.18 363.687 353.1 367.427 353.1C371.167 353.1 373.627 356.18 373.627 360.72C373.627 365.24 371.307 368.26 367.427 368.26C363.547 368.26 361.247 365.24 361.247 360.72ZM363.767 360.72C363.767 364.1 365.127 366 367.427 366C369.747 366 371.107 364.1 371.107 360.72C371.107 357.26 369.747 355.36 367.427 355.36C365.127 355.36 363.767 357.26 363.767 360.72Z" fill="white"/>
<path opacity="0.2" d="M407.18 360.76L405.4 360.76L405.4 359.1L409.16 355.64L403.08 355.64L403.08 353.38L412.36 353.38L412.36 355.42L408.8 358.7C411.04 359.14 412.78 360.78 412.78 363.36C412.78 366.36 410.44 368.26 407.48 368.26C404.62 368.26 402.4 366.5 402.4 363.34L404.92 363.34C404.92 365.02 405.96 365.98 407.52 365.98C409.12 365.98 410.18 364.94 410.18 363.32C410.18 361.84 409.22 360.76 407.18 360.76ZM417.071 355.68L413.871 355.68L413.871 353.38L419.531 353.38L419.531 368L417.071 368L417.071 355.68Z" fill="white"/>
<g filter="url(#filter0_b_315_3097)">
<path fill-rule="evenodd" clip-rule="evenodd" d="M255 235C243.954 235 235 243.954 235 255C235 266.046 243.954 275 255 275H296.185L301.669 284.5C303.594 287.833 308.405 287.833 310.33 284.5L315.814 275H424C435.046 275 444 266.046 444 255C444 243.954 435.046 235 424 235H255Z" fill="white" fill-opacity="0.15"/>
</g>
<path d="M285.45 263L282.758 263L282.758 247.133L285.45 247.133L290.573 259.766L295.695 247.133L298.43 247.133L298.43 263L295.739 263L295.739 258.116C295.739 254.925 295.739 253.992 295.891 252.863L291.853 263L289.292 263L285.276 252.885C285.428 253.84 285.45 255.338 285.45 257.313L285.45 263ZM304.742 263.282C302.463 263.282 301.074 261.958 301.074 259.939C301.074 257.964 302.507 256.727 305.046 256.531L308.259 256.293L308.259 256.054C308.259 254.6 307.391 254.014 306.045 254.014C304.482 254.014 303.614 254.665 303.614 255.793L301.356 255.793C301.356 253.471 303.266 251.951 306.175 251.951C309.062 251.951 310.842 253.514 310.842 256.488L310.842 263L308.519 263L308.324 261.415C307.868 262.522 306.414 263.282 304.742 263.282ZM305.611 261.285C307.239 261.285 308.28 260.308 308.28 258.659L308.28 258.094L306.045 258.268C304.395 258.42 303.766 258.963 303.766 259.831C303.766 260.808 304.417 261.285 305.611 261.285ZM312.213 267.971L312.213 265.757L313.798 265.757C314.84 265.757 315.491 265.518 315.947 264.259L316.251 263.456L311.931 252.277L314.731 252.277L317.488 260.091L320.397 252.277L323.132 252.277L317.879 265.388C317.076 267.385 315.947 268.21 314.189 268.21C313.451 268.21 312.799 268.123 312.213 267.971ZM341.123 262.978L330.117 263L330.117 260.916L335.305 256.531C337.454 254.708 338.17 253.666 338.17 252.147C338.17 250.345 337.194 249.325 335.522 249.325C333.786 249.325 332.7 250.54 332.679 252.581L329.922 252.581C329.944 249.108 332.158 246.85 335.522 246.85C338.909 246.85 341.014 248.782 341.014 251.995C341.014 254.209 339.798 255.88 337.389 257.942L334.524 260.395L341.123 260.395L341.123 262.978ZM354.053 262.978L343.048 263L343.048 260.916L348.236 256.531C350.385 254.708 351.101 253.666 351.101 252.147C351.101 250.345 350.124 249.325 348.453 249.325C346.716 249.325 345.631 250.54 345.609 252.581L342.853 252.581C342.874 249.108 345.088 246.85 348.453 246.85C351.839 246.85 353.945 248.782 353.945 251.995C353.945 254.209 352.729 255.88 350.32 257.942L347.454 260.395L354.053 260.395L354.053 262.978ZM359.846 263L357.198 263L357.198 254.491L355.136 254.491L355.136 252.277L357.198 252.277L357.198 248.934L359.846 248.934L359.846 252.277L361.93 252.277L361.93 254.491L359.846 254.491L359.846 263ZM366.224 263L363.576 263L363.576 246.85L366.246 246.85L366.246 253.666C366.919 252.624 368.178 251.951 369.719 251.951C372.367 251.951 373.756 253.623 373.756 256.401L373.756 263L371.108 263L371.108 257.031C371.108 255.229 370.218 254.361 368.872 254.361C367.201 254.361 366.224 255.533 366.224 257.139L366.224 263ZM392.845 262.978L381.84 263L381.84 260.916L387.028 256.531C389.177 254.708 389.893 253.666 389.893 252.147C389.893 250.345 388.916 249.325 387.245 249.325C385.508 249.325 384.423 250.54 384.401 252.581L381.645 252.581C381.666 249.108 383.88 246.85 387.245 246.85C390.631 246.85 392.737 248.782 392.737 251.995C392.737 254.209 391.521 255.88 389.112 257.942L386.246 260.395L392.845 260.395L392.845 262.978ZM394.557 255.099C394.557 250.171 397.205 246.829 401.264 246.829C405.323 246.829 407.993 250.171 407.993 255.099C407.993 260.005 405.475 263.282 401.264 263.282C397.053 263.282 394.557 260.005 394.557 255.099ZM397.292 255.099C397.292 258.767 398.768 260.829 401.264 260.829C403.782 260.829 405.258 258.767 405.258 255.099C405.258 251.344 403.782 249.281 401.264 249.281C398.768 249.281 397.292 251.344 397.292 255.099ZM420.932 262.978L409.927 263L409.927 260.916L415.115 256.531C417.264 254.708 417.98 253.666 417.98 252.147C417.98 250.345 417.003 249.325 415.332 249.325C413.595 249.325 412.51 250.54 412.488 252.581L409.732 252.581C409.753 249.108 411.967 246.85 415.332 246.85C418.718 246.85 420.824 248.782 420.824 251.995C420.824 254.209 419.608 255.88 417.199 257.942L414.333 260.395L420.932 260.395L420.932 262.978ZM434.697 259.983L432.765 259.983L432.765 263L430.138 263L430.138 259.983L422.085 259.983L422.085 257.552L429.27 247.133L432.765 247.133L432.765 257.552L434.697 257.552L434.697 259.983ZM425.037 257.552L430.138 257.552L430.138 250.128L425.037 257.552Z" fill="white"/>
<rect x="243.5" y="241.5" width="27.942" height="27.942" rx="13.971" fill="white" fill-opacity="0.22"/>
<rect x="243.5" y="241.5" width="27.942" height="27.942" rx="13.971" stroke="url(#paint6_linear_315_3097)"/>
<path d="M265.804 257.138V255.471C265.804 254.772 265.804 254.151 265.794 253.596H249.148C249.138 254.151 249.138 254.772 249.138 255.471V257.138C249.138 260.281 249.138 261.852 250.114 262.828C251.09 263.805 252.662 263.805 255.804 263.805H259.138C262.28 263.805 263.852 263.805 264.828 262.828C265.804 261.852 265.804 260.281 265.804 257.138Z" fill="white"/>
<path d="M253.929 247.555C253.929 247.21 253.65 246.93 253.304 246.93C252.959 246.93 252.679 247.21 252.679 247.555V248.871C251.48 248.967 250.693 249.202 250.114 249.781C249.536 250.359 249.3 251.147 249.204 252.346H265.738C265.642 251.147 265.407 250.359 264.828 249.781C264.25 249.202 263.462 248.967 262.263 248.871V247.555C262.263 247.21 261.983 246.93 261.638 246.93C261.293 246.93 261.013 247.21 261.013 247.555V248.815C260.458 248.805 259.837 248.805 259.138 248.805H255.804C255.105 248.805 254.484 248.805 253.929 248.815V247.555Z" fill="white"/>
<circle cx="51.5" cy="51.5" r="11.5" fill="white"/>
<path d="M50.6293 45.7225C50.9716 44.9794 52.0277 44.9794 52.3701 45.7225L53.7695 48.7604C53.865 48.9679 54.0315 49.1343 54.2389 49.2299L57.2768 50.6293C58.02 50.9716 58.02 52.0277 57.2768 52.3701L54.2389 53.7695C54.0315 53.865 53.865 54.0315 53.7695 54.2389L52.3701 57.2768C52.0277 58.02 50.9716 58.02 50.6293 57.2768L49.2299 54.2389C49.1343 54.0315 48.9679 53.865 48.7604 53.7695L45.7225 52.3701C44.9794 52.0277 44.9794 50.9716 45.7225 50.6293L48.7604 49.2299C48.9679 49.1343 49.1343 48.9679 49.2299 48.7604L50.6293 45.7225Z" fill="#C9B2D4"/>
<path fill-rule="evenodd" clip-rule="evenodd" d="M82 43.25C82.4142 43.25 82.75 43.5858 82.75 44L82.75 60C82.75 60.4142 82.4142 60.75 82 60.75C81.5858 60.75 81.25 60.4142 81.25 60L81.25 44C81.25 43.5858 81.5858 43.25 82 43.25ZM78 46.25C78.4142 46.25 78.75 46.5858 78.75 47V57C78.75 57.4142 78.4142 57.75 78 57.75C77.5858 57.75 77.25 57.4142 77.25 57V47C77.25 46.5858 77.5858 46.25 78 46.25ZM86 46.25C86.4142 46.25 86.75 46.5858 86.75 47V57C86.75 57.4142 86.4142 57.75 86 57.75C85.5858 57.75 85.25 57.4142 85.25 57V47C85.25 46.5858 85.5858 46.25 86 46.25ZM74 50.25C74.4142 50.25 74.75 50.5858 74.75 51L74.75 53C74.75 53.4142 74.4142 53.75 74 53.75C73.5858 53.75 73.25 53.4142 73.25 53L73.25 51C73.25 50.5858 73.5858 50.25 74 50.25ZM90 50.25C90.4142 50.25 90.75 50.5858 90.75 51V53C90.75 53.4142 90.4142 53.75 90 53.75C89.5858 53.75 89.25 53.4142 89.25 53V51C89.25 50.5858 89.5858 50.25 90 50.25Z" fill="white"/>
<path d="M106.4 54.96L103.18 54.96L103.18 60L100.62 60L100.62 45.38L106.4 45.38C109.34 45.38 111.24 47.3 111.24 50.16C111.24 52.98 109.32 54.96 106.4 54.96ZM105.9 47.66L103.18 47.66L103.18 52.68L105.86 52.68C107.62 52.68 108.56 51.74 108.56 50.14C108.56 48.54 107.6 47.66 105.9 47.66ZM119.733 50.12L122.173 50.12L122.173 60L119.913 60L119.733 58.68C119.133 59.62 117.853 60.26 116.533 60.26C114.253 60.26 112.913 58.72 112.913 56.3L112.913 50.12L115.353 50.12L115.353 55.44C115.353 57.32 116.093 58.08 117.453 58.08C118.993 58.08 119.733 57.18 119.733 55.3L119.733 50.12ZM130.894 50.08L130.894 52.34L129.994 52.34C128.234 52.34 127.134 53.28 127.134 55.2L127.134 60L124.694 60L124.694 50.14L126.994 50.14L127.134 51.58C127.554 50.6 128.494 49.94 129.814 49.94C130.154 49.94 130.494 49.98 130.894 50.08ZM136.633 60.26C133.693 60.26 131.633 58.12 131.633 55.06C131.633 51.96 133.653 49.82 136.553 49.82C139.513 49.82 141.393 51.8 141.393 54.88L141.393 55.62L133.953 55.64C134.133 57.38 135.053 58.26 136.673 58.26C138.013 58.26 138.893 57.74 139.173 56.8L141.433 56.8C141.013 58.96 139.213 60.26 136.633 60.26ZM136.573 51.82C135.133 51.82 134.253 52.6 134.013 54.08L138.973 54.08C138.973 52.72 138.033 51.82 136.573 51.82ZM146.608 60L144.168 60L144.168 52.16L142.268 52.16L142.268 50.12L144.168 50.12L144.168 47.04L146.608 47.04L146.608 50.12L148.528 50.12L148.528 52.16L146.608 52.16L146.608 60ZM152.927 60.26C150.827 60.26 149.547 59.04 149.547 57.18C149.547 55.36 150.867 54.22 153.207 54.04L156.167 53.82L156.167 53.6C156.167 52.26 155.367 51.72 154.127 51.72C152.687 51.72 151.887 52.32 151.887 53.36L149.807 53.36C149.807 51.22 151.567 49.82 154.247 49.82C156.907 49.82 158.547 51.26 158.547 54L158.547 60L156.407 60L156.227 58.54C155.807 59.56 154.467 60.26 152.927 60.26ZM153.727 58.42C155.227 58.42 156.187 57.52 156.187 56L156.187 55.48L154.127 55.64C152.607 55.78 152.027 56.28 152.027 57.08C152.027 57.98 152.627 58.42 153.727 58.42ZM163.404 60L160.984 60L160.984 45.12L163.404 45.12L163.404 60ZM168.423 60L166.003 60L166.003 45.12L168.423 45.12L168.423 54.26L172.263 50.12L175.323 50.12L171.563 54.04L175.243 60L172.443 60L169.863 55.84L168.423 57.34L168.423 60ZM183.735 60L181.075 60L186.355 45.38L188.975 45.38L194.255 60L191.555 60L190.375 56.62L184.915 56.62L183.735 60ZM187.335 49.74L185.675 54.46L189.635 54.46L187.955 49.74C187.835 49.36 187.695 48.92 187.655 48.62C187.595 48.9 187.475 49.34 187.335 49.74ZM198.649 45.38L198.649 60L196.089 60L196.089 45.38L198.649 45.38Z" fill="white"/>
<path d="M48.232 80.488C48.232 81.544 47.512 82.288 46.456 82.288C45.328 82.288 44.512 81.376 44.512 79.936C44.512 77.92 45.856 76.36 47.776 76.12L47.776 77.272C46.744 77.464 46.024 78.112 46.024 78.952C46.216 78.88 46.432 78.832 46.696 78.832C47.56 78.832 48.232 79.456 48.232 80.488ZM52.984 80.488C52.984 81.544 52.264 82.288 51.208 82.288C50.08 82.288 49.264 81.376 49.264 79.936C49.264 77.92 50.608 76.36 52.528 76.12L52.528 77.272C51.496 77.464 50.752 78.112 50.752 78.976C50.944 78.88 51.16 78.832 51.424 78.832C52.288 78.832 52.984 79.456 52.984 80.488ZM59.5004 76.456L59.5004 94L56.4284 94L56.4284 76.456L59.5004 76.456ZM68.5141 90.4L71.2981 90.4C71.3221 91.432 72.0901 92.08 73.4341 92.08C74.8021 92.08 75.5461 91.528 75.5461 90.664C75.5461 90.064 75.2341 89.632 74.1781 89.392L72.0421 88.888C69.9061 88.408 68.8741 87.4 68.8741 85.504C68.8741 83.176 70.8421 81.784 73.5781 81.784C76.2421 81.784 78.0421 83.32 78.0661 85.624L75.2821 85.624C75.2581 84.616 74.5861 83.968 73.4581 83.968C72.3061 83.968 71.6341 84.496 71.6341 85.384C71.6341 86.056 72.1621 86.488 73.1701 86.728L75.3061 87.232C77.2981 87.688 78.3061 88.6 78.3061 90.424C78.3061 92.824 76.2661 94.312 73.3381 94.312C70.3861 94.312 68.5141 92.728 68.5141 90.4ZM85.8394 94.312C82.3114 94.312 79.8394 91.744 79.8394 88.072C79.8394 84.352 82.2634 81.784 85.7434 81.784C89.2954 81.784 91.5514 84.16 91.5514 87.856L91.5514 88.744L82.6234 88.768C82.8394 90.856 83.9434 91.912 85.8874 91.912C87.4954 91.912 88.5514 91.288 88.8874 90.16L91.5994 90.16C91.0954 92.752 88.9354 94.312 85.8394 94.312ZM85.7674 84.184C84.0394 84.184 82.9834 85.12 82.6954 86.896L88.6474 86.896C88.6474 85.264 87.5194 84.184 85.7674 84.184ZM99.1988 94.312C95.6708 94.312 93.1988 91.744 93.1988 88.072C93.1988 84.352 95.6228 81.784 99.1028 81.784C102.655 81.784 104.911 84.16 104.911 87.856L104.911 88.744L95.9828 88.768C96.1988 90.856 97.3028 91.912 99.2468 91.912C100.855 91.912 101.911 91.288 102.247 90.16L104.959 90.16C104.455 92.752 102.295 94.312 99.1988 94.312ZM99.1268 84.184C97.3988 84.184 96.3428 85.12 96.0548 86.896L102.007 86.896C102.007 85.264 100.879 84.184 99.1268 84.184ZM112.691 99.496L112.691 97.048L114.443 97.048C115.595 97.048 116.315 96.784 116.819 95.392L117.155 94.504L112.379 82.144L115.475 82.144L118.523 90.784L121.739 82.144L124.763 82.144L118.955 96.64C118.067 98.848 116.819 99.76 114.875 99.76C114.059 99.76 113.339 99.664 112.691 99.496ZM125.191 88.048C125.191 84.352 127.855 81.808 131.527 81.808C135.199 81.808 137.863 84.352 137.863 88.048C137.863 91.744 135.199 94.288 131.527 94.288C127.855 94.288 125.191 91.744 125.191 88.048ZM128.119 88.048C128.119 90.208 129.511 91.672 131.527 91.672C133.543 91.672 134.935 90.208 134.935 88.048C134.935 85.888 133.543 84.424 131.527 84.424C129.511 84.424 128.119 85.888 128.119 88.048ZM147.943 82.144L150.871 82.144L150.871 94L148.159 94L147.943 92.416C147.223 93.544 145.687 94.312 144.103 94.312C141.367 94.312 139.759 92.464 139.759 89.56L139.759 82.144L142.687 82.144L142.687 88.528C142.687 90.784 143.575 91.696 145.207 91.696C147.055 91.696 147.943 90.616 147.943 88.36L147.943 82.144ZM163.292 94L160.364 94L160.364 82.144L163.052 82.144L163.292 83.536C163.892 82.552 165.092 81.784 166.796 81.784C168.596 81.784 169.844 82.672 170.468 84.04C171.068 82.672 172.46 81.784 174.26 81.784C177.14 81.784 178.724 83.512 178.724 86.248L178.724 94L175.82 94L175.82 87.016C175.82 85.312 174.908 84.424 173.516 84.424C172.1 84.424 171.02 85.336 171.02 87.28L171.02 94L168.092 94L168.092 86.992C168.092 85.336 167.204 84.448 165.812 84.448C164.42 84.448 163.292 85.36 163.292 87.28L163.292 94ZM180.902 88.048C180.902 84.352 183.566 81.808 187.238 81.808C190.91 81.808 193.574 84.352 193.574 88.048C193.574 91.744 190.91 94.288 187.238 94.288C183.566 94.288 180.902 91.744 180.902 88.048ZM183.83 88.048C183.83 90.208 185.222 91.672 187.238 91.672C189.254 91.672 190.646 90.208 190.646 88.048C190.646 85.888 189.254 84.424 187.238 84.424C185.222 84.424 183.83 85.888 183.83 88.048ZM198.669 94L193.965 82.144L197.085 82.144L199.149 87.592C199.653 89.008 200.061 90.232 200.205 90.88C200.373 90.136 200.805 88.888 201.309 87.592L203.469 82.144L206.493 82.144L201.549 94L198.669 94ZM212.894 94.312C209.366 94.312 206.894 91.744 206.894 88.072C206.894 84.352 209.318 81.784 212.798 81.784C216.35 81.784 218.606 84.16 218.606 87.856L218.606 88.744L209.678 88.768C209.894 90.856 210.998 91.912 212.942 91.912C214.55 91.912 215.606 91.288 215.942 90.16L218.654 90.16C218.15 92.752 215.99 94.312 212.894 94.312ZM212.822 84.184C211.094 84.184 210.038 85.12 209.75 86.896L215.702 86.896C215.702 85.264 214.574 84.184 212.822 84.184ZM220.926 88.888L220.926 86.296L228.654 86.296L228.654 88.888L220.926 88.888ZM233.101 79.768C232.093 79.768 231.301 78.976 231.301 77.992C231.301 77.008 232.093 76.24 233.101 76.24C234.061 76.24 234.853 77.008 234.853 77.992C234.853 78.976 234.061 79.768 233.101 79.768ZM231.637 94L231.637 82.144L234.565 82.144L234.565 94L231.637 94ZM240.518 94L237.59 94L237.59 82.144L240.302 82.144L240.542 83.68C241.286 82.48 242.726 81.784 244.334 81.784C247.31 81.784 248.846 83.632 248.846 86.704L248.846 94L245.918 94L245.918 87.4C245.918 85.408 244.934 84.448 243.422 84.448C241.622 84.448 240.518 85.696 240.518 87.616L240.518 94ZM257.496 88.048C257.496 84.352 260.16 81.808 263.832 81.808C267.504 81.808 270.168 84.352 270.168 88.048C270.168 91.744 267.504 94.288 263.832 94.288C260.16 94.288 257.496 91.744 257.496 88.048ZM260.424 88.048C260.424 90.208 261.816 91.672 263.832 91.672C265.848 91.672 267.24 90.208 267.24 88.048C267.24 85.888 265.848 84.424 263.832 84.424C261.816 84.424 260.424 85.888 260.424 88.048ZM275.417 94L272.489 94L272.489 82.144L275.201 82.144L275.441 83.68C276.185 82.48 277.625 81.784 279.233 81.784C282.209 81.784 283.745 83.632 283.745 86.704L283.745 94L280.817 94L280.817 87.4C280.817 85.408 279.833 84.448 278.321 84.448C276.521 84.448 275.417 85.696 275.417 87.616L275.417 94ZM296.498 94L293.522 94L293.522 76.456L296.498 76.456L302.162 90.424L307.826 76.456L310.85 76.456L310.85 94L307.874 94L307.874 88.6C307.874 85.072 307.874 84.04 308.042 82.792L303.578 94L300.746 94L296.306 82.816C296.474 83.872 296.498 85.528 296.498 87.712L296.498 94ZM317.829 94.312C315.309 94.312 313.773 92.848 313.773 90.616C313.773 88.432 315.357 87.064 318.165 86.848L321.717 86.584L321.717 86.32C321.717 84.712 320.757 84.064 319.269 84.064C317.541 84.064 316.581 84.784 316.581 86.032L314.085 86.032C314.085 83.464 316.197 81.784 319.413 81.784C322.605 81.784 324.573 83.512 324.573 86.8L324.573 94L322.005 94L321.789 92.248C321.285 93.472 319.677 94.312 317.829 94.312ZM318.789 92.104C320.589 92.104 321.741 91.024 321.741 89.2L321.741 88.576L319.269 88.768C317.445 88.936 316.749 89.536 316.749 90.496C316.749 91.576 317.469 92.104 318.789 92.104ZM326.089 99.496L326.089 97.048L327.841 97.048C328.993 97.048 329.713 96.784 330.217 95.392L330.553 94.504L325.777 82.144L328.873 82.144L331.921 90.784L335.137 82.144L338.161 82.144L332.353 96.64C331.465 98.848 330.217 99.76 328.273 99.76C327.457 99.76 326.737 99.664 326.089 99.496ZM341.557 92.944C341.557 94.936 340.117 96.52 338.173 96.76L338.173 95.584C339.253 95.392 340.069 94.744 340.069 93.904C339.877 94 339.661 94.048 339.373 94.048C338.437 94.048 337.669 93.352 337.669 92.392C337.669 91.24 338.413 90.472 339.493 90.472C340.693 90.472 341.557 91.456 341.557 92.944ZM347.935 94L345.007 94L345.007 84.592L342.727 84.592L342.727 82.144L345.007 82.144L345.007 78.448L347.935 78.448L347.935 82.144L350.239 82.144L350.239 84.592L347.935 84.592L347.935 94ZM354.987 94L352.059 94L352.059 76.144L355.011 76.144L355.011 83.68C355.755 82.528 357.147 81.784 358.851 81.784C361.779 81.784 363.315 83.632 363.315 86.704L363.315 94L360.387 94L360.387 87.4C360.387 85.408 359.403 84.448 357.915 84.448C356.067 84.448 354.987 85.744 354.987 87.52L354.987 94ZM371.496 94.312C367.968 94.312 365.496 91.744 365.496 88.072C365.496 84.352 367.92 81.784 371.4 81.784C374.952 81.784 377.208 84.16 377.208 87.856L377.208 88.744L368.28 88.768C368.496 90.856 369.6 91.912 371.544 91.912C373.152 91.912 374.208 91.288 374.544 90.16L377.256 90.16C376.752 92.752 374.592 94.312 371.496 94.312ZM371.424 84.184C369.696 84.184 368.64 85.12 368.352 86.896L374.304 86.896C374.304 85.264 373.176 84.184 371.424 84.184ZM397.78 93.976L385.612 94L385.612 91.696L391.348 86.848C393.724 84.832 394.516 83.68 394.516 82C394.516 80.008 393.436 78.88 391.588 78.88C389.668 78.88 388.468 80.224 388.444 82.48L385.396 82.48C385.42 78.64 387.868 76.144 391.588 76.144C395.332 76.144 397.66 78.28 397.66 81.832C397.66 84.28 396.316 86.128 393.652 88.408L390.484 91.12L397.78 91.12L397.78 93.976ZM412.077 93.976L399.909 94L399.909 91.696L405.645 86.848C408.021 84.832 408.813 83.68 408.813 82C408.813 80.008 407.733 78.88 405.885 78.88C403.965 78.88 402.765 80.224 402.741 82.48L399.693 82.48C399.717 78.64 402.165 76.144 405.885 76.144C409.629 76.144 411.957 78.28 411.957 81.832C411.957 84.28 410.613 86.128 407.949 88.408L404.781 91.12L412.077 91.12L412.077 93.976ZM418.482 94L415.554 94L415.554 84.592L413.274 84.592L413.274 82.144L415.554 82.144L415.554 78.448L418.482 78.448L418.482 82.144L420.786 82.144L420.786 84.592L418.482 84.592L418.482 94ZM425.534 94L422.606 94L422.606 76.144L425.558 76.144L425.558 83.68C426.302 82.528 427.694 81.784 429.398 81.784C432.326 81.784 433.862 83.632 433.862 86.704L433.862 94L430.934 94L430.934 87.4C430.934 85.408 429.95 84.448 428.462 84.448C426.614 84.448 425.534 85.744 425.534 87.52L425.534 94ZM438.707 94.288C437.651 94.288 436.763 93.424 436.763 92.392C436.763 91.336 437.651 90.472 438.707 90.472C439.763 90.472 440.651 91.336 440.651 92.392C440.651 93.424 439.763 94.288 438.707 94.288ZM52.36 128.288C47.248 128.288 43.936 124.736 43.936 119.24C43.936 113.792 47.368 110.168 52.504 110.168C56.656 110.168 59.752 112.592 60.352 116.36L57.112 116.36C56.512 114.32 54.76 113.12 52.432 113.12C49.192 113.12 47.152 115.472 47.152 119.216C47.152 122.936 49.216 125.336 52.432 125.336C54.808 125.336 56.632 124.088 57.208 122.144L60.4 122.144C59.728 125.84 56.512 128.288 52.36 128.288ZM66.0166 128.312C63.4966 128.312 61.9606 126.848 61.9606 124.616C61.9606 122.432 63.5446 121.064 66.3526 120.848L69.9046 120.584L69.9046 120.32C69.9046 118.712 68.9446 118.064 67.4566 118.064C65.7286 118.064 64.7686 118.784 64.7686 120.032L62.2726 120.032C62.2726 117.464 64.3846 115.784 67.6006 115.784C70.7926 115.784 72.7606 117.512 72.7606 120.8L72.7606 128L70.1926 128L69.9766 126.248C69.4726 127.472 67.8646 128.312 66.0166 128.312ZM66.9766 126.104C68.7766 126.104 69.9286 125.024 69.9286 123.2L69.9286 122.576L67.4566 122.768C65.6326 122.936 64.9366 123.536 64.9366 124.496C64.9366 125.576 65.6566 126.104 66.9766 126.104ZM78.565 128L75.637 128L75.637 116.144L78.349 116.144L78.589 117.68C79.333 116.48 80.773 115.784 82.381 115.784C85.357 115.784 86.893 117.632 86.893 120.704L86.893 128L83.965 128L83.965 121.4C83.965 119.408 82.981 118.448 81.469 118.448C79.669 118.448 78.565 119.696 78.565 121.616L78.565 128ZM99.7666 128.312C97.2466 128.312 95.7106 126.848 95.7106 124.616C95.7106 122.432 97.2946 121.064 100.103 120.848L103.655 120.584L103.655 120.32C103.655 118.712 102.695 118.064 101.207 118.064C99.4786 118.064 98.5186 118.784 98.5186 120.032L96.0226 120.032C96.0226 117.464 98.1346 115.784 101.351 115.784C104.543 115.784 106.511 117.512 106.511 120.8L106.511 128L103.943 128L103.727 126.248C103.223 127.472 101.615 128.312 99.7666 128.312ZM100.727 126.104C102.527 126.104 103.679 125.024 103.679 123.2L103.679 122.576L101.207 122.768C99.3826 122.936 98.6866 123.536 98.6866 124.496C98.6866 125.576 99.4066 126.104 100.727 126.104ZM112.315 128L109.387 128L109.387 116.144L112.099 116.144L112.339 117.68C113.083 116.48 114.523 115.784 116.131 115.784C119.107 115.784 120.643 117.632 120.643 120.704L120.643 128L117.715 128L117.715 121.4C117.715 119.408 116.731 118.448 115.219 118.448C113.419 118.448 112.315 119.696 112.315 121.616L112.315 128ZM122.467 124.4L125.251 124.4C125.275 125.432 126.043 126.08 127.387 126.08C128.755 126.08 129.499 125.528 129.499 124.664C129.499 124.064 129.187 123.632 128.131 123.392L125.995 122.888C123.859 122.408 122.827 121.4 122.827 119.504C122.827 117.176 124.795 115.784 127.531 115.784C130.195 115.784 131.995 117.32 132.019 119.624L129.235 119.624C129.211 118.616 128.539 117.968 127.411 117.968C126.259 117.968 125.587 118.496 125.587 119.384C125.587 120.056 126.115 120.488 127.123 120.728L129.259 121.232C131.251 121.688 132.259 122.6 132.259 124.424C132.259 126.824 130.219 128.312 127.291 128.312C124.339 128.312 122.467 126.728 122.467 124.4ZM136.776 128L132.936 116.144L135.984 116.144L137.544 121.232C137.808 122.168 138.048 123.2 138.264 124.304C138.48 123.152 138.696 122.408 139.08 121.232L140.712 116.144L143.688 116.144L145.272 121.232C145.416 121.712 145.896 123.488 146.04 124.28C146.232 123.392 146.616 121.976 146.832 121.232L148.416 116.144L151.512 116.144L147.408 128L144.672 128L143.04 122.864C142.56 121.304 142.296 120.176 142.2 119.576C142.08 120.128 141.864 120.968 141.264 122.912L139.632 128L136.776 128ZM158.004 128.312C154.476 128.312 152.004 125.744 152.004 122.072C152.004 118.352 154.428 115.784 157.908 115.784C161.46 115.784 163.716 118.16 163.716 121.856L163.716 122.744L154.788 122.768C155.004 124.856 156.108 125.912 158.052 125.912C159.66 125.912 160.716 125.288 161.052 124.16L163.764 124.16C163.26 126.752 161.1 128.312 158.004 128.312ZM157.932 118.184C156.204 118.184 155.148 119.12 154.86 120.896L160.812 120.896C160.812 119.264 159.684 118.184 157.932 118.184ZM173.499 116.096L173.499 118.808L172.419 118.808C170.307 118.808 168.987 119.936 168.987 122.24L168.987 128L166.059 128L166.059 116.168L168.819 116.168L168.987 117.896C169.491 116.72 170.619 115.928 172.203 115.928C172.611 115.928 173.019 115.976 173.499 116.096ZM185.478 128.312C182.958 128.312 181.422 126.848 181.422 124.616C181.422 122.432 183.006 121.064 185.814 120.848L189.366 120.584L189.366 120.32C189.366 118.712 188.406 118.064 186.918 118.064C185.19 118.064 184.23 118.784 184.23 120.032L181.734 120.032C181.734 117.464 183.846 115.784 187.062 115.784C190.254 115.784 192.222 117.512 192.222 120.8L192.222 128L189.654 128L189.438 126.248C188.934 127.472 187.326 128.312 185.478 128.312ZM186.438 126.104C188.238 126.104 189.39 125.024 189.39 123.2L189.39 122.576L186.918 122.768C185.094 122.936 184.398 123.536 184.398 124.496C184.398 125.576 185.118 126.104 186.438 126.104ZM198.026 128L195.098 128L195.098 116.144L197.81 116.144L198.05 117.68C198.794 116.48 200.234 115.784 201.842 115.784C204.818 115.784 206.354 117.632 206.354 120.704L206.354 128L203.426 128L203.426 121.4C203.426 119.408 202.442 118.448 200.93 118.448C199.13 118.448 198.026 119.696 198.026 121.616L198.026 128ZM207.964 133.496L207.964 131.048L209.716 131.048C210.868 131.048 211.588 130.784 212.092 129.392L212.428 128.504L207.652 116.144L210.748 116.144L213.796 124.784L217.012 116.144L220.036 116.144L214.228 130.64C213.34 132.848 212.092 133.76 210.148 133.76C209.332 133.76 208.612 133.664 207.964 133.496ZM227.472 121.928C227.472 118.208 229.68 115.784 233.016 115.784C234.816 115.784 236.376 116.576 237.096 117.944L237.288 116.144L239.976 116.144L239.976 133.496L237.072 133.496L237.072 126.416C236.328 127.616 234.768 128.312 233.016 128.312C229.488 128.312 227.472 125.624 227.472 121.928ZM230.4 122.072C230.4 124.184 231.648 125.672 233.688 125.672C235.728 125.672 237.048 124.208 237.048 122.072C237.048 119.936 235.728 118.448 233.688 118.448C231.648 118.448 230.4 119.96 230.4 122.072ZM251.068 116.144L253.996 116.144L253.996 128L251.284 128L251.068 126.416C250.348 127.544 248.812 128.312 247.228 128.312C244.492 128.312 242.884 126.464 242.884 123.56L242.884 116.144L245.812 116.144L245.812 122.528C245.812 124.784 246.7 125.696 248.332 125.696C250.18 125.696 251.068 124.616 251.068 122.36L251.068 116.144ZM262.089 128.312C258.561 128.312 256.089 125.744 256.089 122.072C256.089 118.352 258.513 115.784 261.993 115.784C265.545 115.784 267.801 118.16 267.801 121.856L267.801 122.744L258.873 122.768C259.089 124.856 260.193 125.912 262.137 125.912C263.745 125.912 264.801 125.288 265.137 124.16L267.849 124.16C267.345 126.752 265.185 128.312 262.089 128.312ZM262.017 118.184C260.289 118.184 259.233 119.12 258.945 120.896L264.897 120.896C264.897 119.264 263.769 118.184 262.017 118.184ZM269.233 124.4L272.017 124.4C272.041 125.432 272.809 126.08 274.153 126.08C275.521 126.08 276.265 125.528 276.265 124.664C276.265 124.064 275.953 123.632 274.897 123.392L272.761 122.888C270.625 122.408 269.593 121.4 269.593 119.504C269.593 117.176 271.561 115.784 274.297 115.784C276.961 115.784 278.761 117.32 278.785 119.624L276.001 119.624C275.977 118.616 275.305 117.968 274.177 117.968C273.025 117.968 272.353 118.496 272.353 119.384C272.353 120.056 272.881 120.488 273.889 120.728L276.025 121.232C278.017 121.688 279.025 122.6 279.025 124.424C279.025 126.824 276.985 128.312 274.057 128.312C271.105 128.312 269.233 126.728 269.233 124.4ZM285.286 128L282.358 128L282.358 118.592L280.078 118.592L280.078 116.144L282.358 116.144L282.358 112.448L285.286 112.448L285.286 116.144L287.59 116.144L287.59 118.592L285.286 118.592L285.286 128ZM290.874 113.768C289.866 113.768 289.074 112.976 289.074 111.992C289.074 111.008 289.866 110.24 290.874 110.24C291.834 110.24 292.626 111.008 292.626 111.992C292.626 112.976 291.834 113.768 290.874 113.768ZM289.41 128L289.41 116.144L292.338 116.144L292.338 128L289.41 128ZM294.668 122.048C294.668 118.352 297.332 115.808 301.004 115.808C304.676 115.808 307.34 118.352 307.34 122.048C307.34 125.744 304.676 128.288 301.004 128.288C297.332 128.288 294.668 125.744 294.668 122.048ZM297.596 122.048C297.596 124.208 298.988 125.672 301.004 125.672C303.02 125.672 304.412 124.208 304.412 122.048C304.412 119.888 303.02 118.424 301.004 118.424C298.988 118.424 297.596 119.888 297.596 122.048ZM312.588 128L309.66 128L309.66 116.144L312.372 116.144L312.612 117.68C313.356 116.48 314.796 115.784 316.404 115.784C319.38 115.784 320.916 117.632 320.916 120.704L320.916 128L317.988 128L317.988 121.4C317.988 119.408 317.004 118.448 315.492 118.448C313.692 118.448 312.588 119.696 312.588 121.616L312.588 128ZM322.741 124.4L325.525 124.4C325.549 125.432 326.317 126.08 327.661 126.08C329.029 126.08 329.773 125.528 329.773 124.664C329.773 124.064 329.461 123.632 328.405 123.392L326.269 122.888C324.133 122.408 323.101 121.4 323.101 119.504C323.101 117.176 325.069 115.784 327.805 115.784C330.469 115.784 332.269 117.32 332.293 119.624L329.509 119.624C329.485 118.616 328.813 117.968 327.685 117.968C326.533 117.968 325.861 118.496 325.861 119.384C325.861 120.056 326.389 120.488 327.397 120.728L329.533 121.232C331.525 121.688 332.533 122.6 332.533 124.424C332.533 126.824 330.493 128.312 327.565 128.312C324.613 128.312 322.741 126.728 322.741 124.4ZM344.759 128.312C342.239 128.312 340.703 126.848 340.703 124.616C340.703 122.432 342.287 121.064 345.095 120.848L348.647 120.584L348.647 120.32C348.647 118.712 347.687 118.064 346.199 118.064C344.471 118.064 343.511 118.784 343.511 120.032L341.015 120.032C341.015 117.464 343.127 115.784 346.343 115.784C349.535 115.784 351.503 117.512 351.503 120.8L351.503 128L348.935 128L348.719 126.248C348.215 127.472 346.607 128.312 344.759 128.312ZM345.719 126.104C347.519 126.104 348.671 125.024 348.671 123.2L348.671 122.576L346.199 122.768C344.375 122.936 343.679 123.536 343.679 124.496C343.679 125.576 344.399 126.104 345.719 126.104ZM357.091 128L354.379 128L354.379 110.144L357.307 110.144L357.307 117.872C358.075 116.552 359.659 115.76 361.459 115.76C364.843 115.76 366.907 118.4 366.907 122.144C366.907 125.792 364.675 128.312 361.267 128.312C359.491 128.312 357.979 127.52 357.283 126.152L357.091 128ZM357.331 122.024C357.331 124.16 358.651 125.624 360.667 125.624C362.731 125.624 363.955 124.136 363.955 122.024C363.955 119.912 362.731 118.4 360.667 118.4C358.651 118.4 357.331 119.888 357.331 122.024ZM368.543 122.048C368.543 118.352 371.207 115.808 374.879 115.808C378.551 115.808 381.215 118.352 381.215 122.048C381.215 125.744 378.551 128.288 374.879 128.288C371.207 128.288 368.543 125.744 368.543 122.048ZM371.471 122.048C371.471 124.208 372.863 125.672 374.879 125.672C376.895 125.672 378.287 124.208 378.287 122.048C378.287 119.888 376.895 118.424 374.879 118.424C372.863 118.424 371.471 119.888 371.471 122.048ZM391.294 116.144L394.222 116.144L394.222 128L391.51 128L391.294 126.416C390.574 127.544 389.038 128.312 387.454 128.312C384.718 128.312 383.11 126.464 383.11 123.56L383.11 116.144L386.038 116.144L386.038 122.528C386.038 124.784 386.926 125.696 388.558 125.696C390.406 125.696 391.294 124.616 391.294 122.36L391.294 116.144ZM401.278 128L398.35 128L398.35 118.592L396.07 118.592L396.07 116.144L398.35 116.144L398.35 112.448L401.278 112.448L401.278 116.144L403.582 116.144L403.582 118.592L401.278 118.592L401.278 128ZM415.903 128L412.975 128L412.975 118.592L410.695 118.592L410.695 116.144L412.975 116.144L412.975 112.448L415.903 112.448L415.903 116.144L418.207 116.144L418.207 118.592L415.903 118.592L415.903 128ZM422.956 128L420.028 128L420.028 110.144L422.98 110.144L422.98 117.68C423.724 116.528 425.116 115.784 426.82 115.784C429.748 115.784 431.284 117.632 431.284 120.704L431.284 128L428.356 128L428.356 121.4C428.356 119.408 427.372 118.448 425.884 118.448C424.036 118.448 422.956 119.744 422.956 121.52L422.956 128ZM439.464 128.312C435.936 128.312 433.464 125.744 433.464 122.072C433.464 118.352 435.888 115.784 439.368 115.784C442.92 115.784 445.176 118.16 445.176 121.856L445.176 122.744L436.248 122.768C436.464 124.856 437.568 125.912 439.512 125.912C441.12 125.912 442.176 125.288 442.512 124.16L445.224 124.16C444.72 126.752 442.56 128.312 439.464 128.312ZM439.392 118.184C437.664 118.184 436.608 119.12 436.32 120.896L442.272 120.896C442.272 119.264 441.144 118.184 439.392 118.184ZM43.816 156.048C43.816 152.376 46.24 149.784 49.744 149.784C52.984 149.784 55.192 151.584 55.504 154.44L52.576 154.44C52.24 153.096 51.256 152.4 49.864 152.4C47.992 152.4 46.744 153.816 46.744 156.048C46.744 158.28 47.896 159.672 49.768 159.672C51.232 159.672 52.264 158.952 52.576 157.656L55.528 157.656C55.168 160.416 52.864 162.312 49.768 162.312C46.168 162.312 43.816 159.816 43.816 156.048ZM57.0113 156.048C57.0113 152.352 59.6753 149.808 63.3473 149.808C67.0193 149.808 69.6833 152.352 69.6833 156.048C69.6833 159.744 67.0193 162.288 63.3473 162.288C59.6753 162.288 57.0113 159.744 57.0113 156.048ZM59.9393 156.048C59.9393 158.208 61.3313 159.672 63.3473 159.672C65.3633 159.672 66.7553 158.208 66.7553 156.048C66.7553 153.888 65.3633 152.424 63.3473 152.424C61.3313 152.424 59.9393 153.888 59.9393 156.048ZM74.9322 162L72.0042 162L72.0042 150.144L74.6922 150.144L74.9322 151.536C75.5322 150.552 76.7322 149.784 78.4362 149.784C80.2362 149.784 81.4842 150.672 82.1082 152.04C82.7082 150.672 84.1002 149.784 85.9002 149.784C88.7802 149.784 90.3642 151.512 90.3642 154.248L90.3642 162L87.4602 162L87.4602 155.016C87.4602 153.312 86.5482 152.424 85.1562 152.424C83.7402 152.424 82.6602 153.336 82.6602 155.28L82.6602 162L79.7322 162L79.7322 154.992C79.7322 153.336 78.8442 152.448 77.4522 152.448C76.0602 152.448 74.9322 153.36 74.9322 155.28L74.9322 162ZM96.1666 162L93.2386 162L93.2386 150.144L95.9266 150.144L96.1666 151.536C96.7666 150.552 97.9666 149.784 99.6706 149.784C101.471 149.784 102.719 150.672 103.343 152.04C103.943 150.672 105.335 149.784 107.135 149.784C110.015 149.784 111.599 151.512 111.599 154.248L111.599 162L108.695 162L108.695 155.016C108.695 153.312 107.783 152.424 106.391 152.424C104.975 152.424 103.895 153.336 103.895 155.28L103.895 162L100.967 162L100.967 154.992C100.967 153.336 100.079 152.448 98.6866 152.448C97.2946 152.448 96.1666 153.36 96.1666 155.28L96.1666 162ZM122.513 150.144L125.441 150.144L125.441 162L122.729 162L122.513 160.416C121.793 161.544 120.257 162.312 118.673 162.312C115.937 162.312 114.329 160.464 114.329 157.56L114.329 150.144L117.257 150.144L117.257 156.528C117.257 158.784 118.145 159.696 119.777 159.696C121.625 159.696 122.513 158.616 122.513 156.36L122.513 150.144ZM131.393 162L128.465 162L128.465 150.144L131.177 150.144L131.417 151.68C132.161 150.48 133.601 149.784 135.209 149.784C138.185 149.784 139.721 151.632 139.721 154.704L139.721 162L136.793 162L136.793 155.4C136.793 153.408 135.809 152.448 134.297 152.448C132.497 152.448 131.393 153.696 131.393 155.616L131.393 162ZM144.062 147.768C143.054 147.768 142.262 146.976 142.262 145.992C142.262 145.008 143.054 144.24 144.062 144.24C145.022 144.24 145.814 145.008 145.814 145.992C145.814 146.976 145.022 147.768 144.062 147.768ZM142.598 162L142.598 150.144L145.526 150.144L145.526 162L142.598 162ZM152.583 162L149.655 162L149.655 152.592L147.375 152.592L147.375 150.144L149.655 150.144L149.655 146.448L152.583 146.448L152.583 150.144L154.887 150.144L154.887 152.592L152.583 152.592L152.583 162ZM155.675 167.496L155.675 165.048L157.427 165.048C158.579 165.048 159.299 164.784 159.803 163.392L160.139 162.504L155.363 150.144L158.459 150.144L161.507 158.784L164.723 150.144L167.747 150.144L161.939 164.64C161.051 166.848 159.803 167.76 157.859 167.76C157.043 167.76 156.323 167.664 155.675 167.496ZM174.703 150.144L176.407 150.144L176.407 148.704C176.407 145.488 178.111 144.144 180.679 144.144C181.135 144.144 181.687 144.168 182.191 144.264L182.191 146.76L181.159 146.76C179.671 146.76 179.311 147.528 179.311 148.704L179.311 150.144L182.143 150.144L182.143 152.592L179.311 152.592L179.311 162L176.407 162L176.407 152.592L174.703 152.592L174.703 150.144ZM182.964 156.048C182.964 152.352 185.628 149.808 189.3 149.808C192.972 149.808 195.636 152.352 195.636 156.048C195.636 159.744 192.972 162.288 189.3 162.288C185.628 162.288 182.964 159.744 182.964 156.048ZM185.892 156.048C185.892 158.208 187.284 159.672 189.3 159.672C191.316 159.672 192.708 158.208 192.708 156.048C192.708 153.888 191.316 152.424 189.3 152.424C187.284 152.424 185.892 153.888 185.892 156.048ZM205.397 150.096L205.397 152.808L204.317 152.808C202.205 152.808 200.885 153.936 200.885 156.24L200.885 162L197.957 162L197.957 150.168L200.717 150.168L200.885 151.896C201.389 150.72 202.517 149.928 204.101 149.928C204.509 149.928 204.917 149.976 205.397 150.096ZM212.816 167.496L212.816 165.048L214.568 165.048C215.72 165.048 216.44 164.784 216.944 163.392L217.28 162.504L212.504 150.144L215.6 150.144L218.648 158.784L221.864 150.144L224.888 150.144L219.08 164.64C218.192 166.848 216.944 167.76 215 167.76C214.184 167.76 213.464 167.664 212.816 167.496ZM225.316 156.048C225.316 152.352 227.98 149.808 231.652 149.808C235.324 149.808 237.988 152.352 237.988 156.048C237.988 159.744 235.324 162.288 231.652 162.288C227.98 162.288 225.316 159.744 225.316 156.048ZM228.244 156.048C228.244 158.208 229.636 159.672 231.652 159.672C233.668 159.672 235.06 158.208 235.06 156.048C235.06 153.888 233.668 152.424 231.652 152.424C229.636 152.424 228.244 153.888 228.244 156.048ZM248.068 150.144L250.996 150.144L250.996 162L248.284 162L248.068 160.416C247.348 161.544 245.812 162.312 244.228 162.312C241.492 162.312 239.884 160.464 239.884 157.56L239.884 150.144L242.812 150.144L242.812 156.528C242.812 158.784 243.7 159.696 245.332 159.696C247.18 159.696 248.068 158.616 248.068 156.36L248.068 150.144ZM259.876 157.512L257.212 157.512L257.212 156.96C257.212 154.776 258.556 153.648 259.828 152.664C260.908 151.8 261.892 150.984 261.892 149.592C261.892 147.96 260.884 146.88 259.204 146.88C257.5 146.88 256.324 148.152 256.324 150L253.276 150C253.276 146.568 255.796 144.144 259.276 144.144C262.852 144.144 265.012 146.208 265.012 149.4C265.012 151.968 263.356 153.192 261.964 154.176C260.788 155.016 259.876 155.736 259.876 156.96L259.876 157.512ZM258.652 162.312C257.572 162.312 256.708 161.448 256.708 160.416C256.708 159.36 257.572 158.496 258.652 158.496C259.708 158.496 260.596 159.36 260.596 160.416C260.596 161.424 259.708 162.312 258.652 162.312ZM271.498 146.472C271.498 148.488 270.154 150.048 268.234 150.288L268.234 149.136C269.266 148.944 270.01 148.296 270.01 147.456C269.818 147.528 269.602 147.576 269.338 147.576C268.474 147.576 267.778 146.976 267.778 145.92C267.778 144.864 268.498 144.12 269.554 144.12C270.682 144.12 271.498 145.032 271.498 146.472ZM276.25 146.472C276.25 148.488 274.906 150.048 272.986 150.288L272.986 149.136C274.018 148.944 274.738 148.296 274.738 147.456C274.546 147.528 274.33 147.576 274.066 147.576C273.202 147.576 272.53 146.976 272.53 145.92C272.53 144.864 273.25 144.12 274.306 144.12C275.434 144.12 276.25 145.032 276.25 146.472Z" fill="white"/>
</g>
<defs>
<filter id="filter0_b_315_3097" x="219.172" y="219.172" width="240.655" height="83.6553" filterUnits="userSpaceOnUse" color-interpolation-filters="sRGB">
<feFlood flood-opacity="0" result="BackgroundImageFix"/>
<feGaussianBlur in="BackgroundImageFix" stdDeviation="7.91382"/>
<feComposite in2="SourceAlpha" operator="in" result="effect1_backgroundBlur_315_3097"/>
<feBlend mode="normal" in="SourceGraphic" in2="effect1_backgroundBlur_315_3097" result="shape"/>
</filter>
<linearGradient id="paint0_linear_315_3097" x1="-28.5348" y1="-12.2706" x2="372.339" y2="486.571" gradientUnits="userSpaceOnUse">
<stop offset="0.111618" stop-color="#6E5DED"/>
<stop offset="0.486101" stop-color="#B18EED"/>
<stop offset="0.921954" stop-color="#CDB6D1"/>
</linearGradient>
<linearGradient id="paint1_linear_315_3097" x1="62.2931" y1="28.6485" x2="309.78" y2="587.01" gradientUnits="userSpaceOnUse">
<stop stop-color="#CDB6D1"/>
<stop offset="0.537437" stop-color="#B297E1"/>
<stop offset="1" stop-color="#C289FF"/>
</linearGradient>
<linearGradient id="paint2_linear_315_3097" x1="299.5" y1="24" x2="299.5" y2="453" gradientUnits="userSpaceOnUse">
<stop stop-color="white" stop-opacity="0.24"/>
<stop offset="1" stop-color="white" stop-opacity="0"/>
</linearGradient>
<linearGradient id="paint3_linear_315_3097" x1="55.527" y1="-38.074" x2="299.796" y2="452.853" gradientUnits="userSpaceOnUse">
<stop offset="0.257208" stop-color="white"/>
<stop offset="0.407829" stop-color="white" stop-opacity="0"/>
</linearGradient>
<linearGradient id="paint4_linear_315_3097" x1="247.5" y1="185" x2="247.5" y2="496" gradientUnits="userSpaceOnUse">
<stop stop-color="white" stop-opacity="0.24"/>
<stop offset="1" stop-color="white" stop-opacity="0"/>
</linearGradient>
<linearGradient id="paint5_linear_315_3097" x1="70.5" y1="140" x2="247.5" y2="496" gradientUnits="userSpaceOnUse">
<stop offset="0.257208" stop-color="white"/>
<stop offset="0.407829" stop-color="white" stop-opacity="0"/>
</linearGradient>
<linearGradient id="paint6_linear_315_3097" x1="257.471" y1="241" x2="257.471" y2="269.942" gradientUnits="userSpaceOnUse">
<stop stop-color="white"/>
<stop offset="1" stop-color="white" stop-opacity="0"/>
</linearGradient>
</defs>
</svg>
