<svg width="64" height="64" viewBox="0 0 64 64" fill="none" xmlns="http://www.w3.org/2000/svg">
<rect width="64" height="64" rx="32" fill="#F9F9F9"/>
<path d="M29.3834 23.0884L30.2488 24.639C31.0297 26.0383 30.7162 27.8739 29.4863 29.1039C29.4863 29.1039 29.4863 29.1039 29.4863 29.1039C29.4862 29.104 27.9945 30.5959 30.6993 33.3008C33.4036 36.005 34.8955 34.5147 34.8963 34.5139C34.8963 34.5139 34.8963 34.5139 34.8963 34.5138C36.1263 33.2839 37.9619 32.9704 39.3612 33.7514L40.9118 34.6167C43.0247 35.7959 43.2743 38.7592 41.417 40.6164C40.301 41.7324 38.9339 42.6008 37.4225 42.6581C34.8784 42.7545 30.5577 42.1107 26.2236 37.7766C21.8895 33.4425 21.2456 29.1218 21.3421 26.5776C21.3994 25.0663 22.2677 23.6991 23.3837 22.5831C25.241 20.7259 28.2042 20.9754 29.3834 23.0884Z" fill="#121212"/>
<path d="M33.6793 18.5068C33.7676 17.9616 34.283 17.5917 34.8282 17.68C34.8619 17.6865 34.9705 17.7068 35.0274 17.7194C35.1411 17.7448 35.2998 17.7838 35.4977 17.8414C35.8934 17.9567 36.4462 18.1465 37.1097 18.4507C38.4381 19.0597 40.2058 20.1251 42.0402 21.9595C43.8746 23.7939 44.94 25.5616 45.549 26.89C45.8532 27.5535 46.043 28.1063 46.1583 28.502C46.2159 28.6999 46.2549 28.8586 46.2803 28.9723C46.293 29.0292 46.3022 29.0749 46.3087 29.1087L46.3163 29.1503C46.4046 29.6954 46.0381 30.2321 45.493 30.3204C44.9493 30.4084 44.4372 30.0404 44.3468 29.4977C44.344 29.4832 44.3363 29.444 44.3281 29.4071C44.3117 29.3333 44.2832 29.2162 44.2381 29.0613C44.1479 28.7515 43.9912 28.2911 43.7309 27.7235C43.2112 26.5898 42.2765 25.0242 40.626 23.3737C38.9755 21.7232 37.41 20.7885 36.2762 20.2688C35.7087 20.0086 35.2482 19.8519 34.9384 19.7616C34.7836 19.7165 34.5889 19.6718 34.515 19.6554C33.9724 19.565 33.5913 19.0504 33.6793 18.5068Z" fill="#121212"/>
<path fill-rule="evenodd" clip-rule="evenodd" d="M33.981 23.1061C34.1327 22.575 34.6862 22.2675 35.2172 22.4193L34.9425 23.3808C35.2172 22.4193 35.2172 22.4193 35.2172 22.4193L35.2192 22.4198L35.2212 22.4204L35.2256 22.4217L35.236 22.4248L35.2624 22.433C35.2825 22.4394 35.3076 22.4478 35.3375 22.4584C35.3974 22.4797 35.4765 22.5099 35.5736 22.5515C35.7679 22.6347 36.0333 22.7633 36.3593 22.9562C37.0119 23.3425 37.9028 23.9841 38.9494 25.0307C39.9961 26.0773 40.6376 26.9682 41.0239 27.6209C41.2168 27.9469 41.3454 28.2123 41.4286 28.4065C41.4703 28.5036 41.5005 28.5828 41.5217 28.6426C41.5323 28.6726 41.5407 28.6977 41.5471 28.7178L41.5554 28.7442L41.5584 28.7545L41.5597 28.7589L41.5603 28.761C41.5603 28.761 41.5609 28.7629 40.5994 29.0376L41.5609 28.7629C41.7126 29.2939 41.4051 29.8474 40.8741 29.9992C40.3476 30.1496 39.799 29.8486 39.6418 29.3258L39.6369 29.3115C39.6298 29.2914 39.615 29.252 39.5904 29.1944C39.541 29.0793 39.4516 28.891 39.3027 28.6395C39.0054 28.1372 38.4685 27.3782 37.5352 26.4449C36.602 25.5116 35.843 24.9747 35.3406 24.6774C35.0892 24.5286 34.9009 24.4391 34.7858 24.3898C34.7282 24.3651 34.6887 24.3504 34.6687 24.3433L34.6543 24.3383C34.1316 24.1812 33.8306 23.6326 33.981 23.1061Z" fill="#121212"/>
</svg>
