<svg width="64" height="64" viewBox="0 0 64 64" fill="none" xmlns="http://www.w3.org/2000/svg">
<rect width="64" height="64" rx="32" fill="#F9F9F9"/>
<path d="M45.3333 27.3332C45.3333 22.5467 41.4531 18.6665 36.6667 18.6665C33.8895 18.6665 31.4174 19.9762 29.8313 22.0094C36.5961 22.271 42 27.8377 42 34.6665C42 34.8136 41.9975 34.9601 41.9925 35.106L42.4355 35.2245C43.724 35.5692 44.9027 34.3905 44.558 33.102L44.3882 32.4673C44.251 31.9546 44.3334 31.4129 44.554 30.9301C45.0544 29.8345 45.3333 28.6164 45.3333 27.3332Z" fill="#121212"/>
<path fill-rule="evenodd" clip-rule="evenodd" d="M40 34.6665C40 40.5575 35.2244 45.3332 29.3333 45.3332C27.686 45.3332 26.1259 44.9597 24.733 44.2929C24.2543 44.0637 23.7119 43.9832 23.1992 44.1204L21.5645 44.5578C20.276 44.9026 19.0973 43.7238 19.442 42.4354L19.8794 40.8007C20.0166 40.2879 19.9361 39.7456 19.7069 39.2668C19.0401 37.874 18.6667 36.3138 18.6667 34.6665C18.6667 28.7755 23.4423 23.9998 29.3333 23.9998C35.2244 23.9998 40 28.7755 40 34.6665ZM24.6667 35.9998C25.403 35.9998 26 35.4029 26 34.6665C26 33.9301 25.403 33.3332 24.6667 33.3332C23.9303 33.3332 23.3333 33.9301 23.3333 34.6665C23.3333 35.4029 23.9303 35.9998 24.6667 35.9998ZM29.3333 35.9998C30.0697 35.9998 30.6667 35.4029 30.6667 34.6665C30.6667 33.9301 30.0697 33.3332 29.3333 33.3332C28.597 33.3332 28 33.9301 28 34.6665C28 35.4029 28.597 35.9998 29.3333 35.9998ZM34 35.9998C34.7364 35.9998 35.3333 35.4029 35.3333 34.6665C35.3333 33.9301 34.7364 33.3332 34 33.3332C33.2636 33.3332 32.6667 33.9301 32.6667 34.6665C32.6667 35.4029 33.2636 35.9998 34 35.9998Z" fill="#121212"/>
</svg>
