<svg width="64" height="64" viewBox="0 0 64 64" fill="none" xmlns="http://www.w3.org/2000/svg">
<rect width="64" height="64" rx="32" fill="#F9F9F9"/>
<path d="M28.5951 20.3335C27.0847 20.3335 25.8503 20.3334 24.8759 20.4645C23.8573 20.6014 22.9741 20.8978 22.2692 21.6027C21.5643 22.3076 21.2679 23.1907 21.131 24.2093C20.9999 25.1838 21 26.4181 21 27.9286L21 36.0083C20.3799 36.0263 19.9857 36.0839 19.6667 36.2681C19.3626 36.4437 19.1102 36.6961 18.9346 37.0002C18.6667 37.4643 18.6667 38.0873 18.6667 39.3335C18.6667 40.5797 18.6667 41.2027 18.9346 41.6668C19.1102 41.9709 19.3626 42.2233 19.6667 42.3989C20.1308 42.6668 20.7539 42.6668 22 42.6668C23.2462 42.6668 23.8692 42.6668 24.3333 42.3989C24.6374 42.2233 24.8899 41.9709 25.0654 41.6668C25.3333 41.2027 25.3333 40.5797 25.3333 39.3335C25.3333 38.0873 25.3333 37.4643 25.0654 37.0002C24.8899 36.6961 24.6374 36.4437 24.3333 36.2681C24.0143 36.0839 23.6201 36.0263 23 36.0083V28.0002C23 26.4005 23.0021 25.3014 23.1131 24.4758C23.2203 23.679 23.412 23.2883 23.6834 23.0169C23.9548 22.7455 24.3455 22.5538 25.1423 22.4466C25.9679 22.3356 27.0671 22.3335 28.6667 22.3335H35.3333C36.933 22.3335 38.0321 22.3356 38.8577 22.4466C39.6545 22.5538 40.0452 22.7455 40.3166 23.0169C40.588 23.2883 40.7798 23.679 40.8869 24.4758C40.9979 25.3014 41 26.4005 41 28.0002V29.586L40.0404 28.6264C39.6499 28.2359 39.0168 28.2359 38.6262 28.6264C38.2357 29.0169 38.2357 29.6501 38.6262 30.0406L41.2929 32.7073C41.6834 33.0978 42.3166 33.0978 42.7071 32.7073L45.3738 30.0406C45.7643 29.6501 45.7643 29.0169 45.3738 28.6264C44.9833 28.2359 44.3501 28.2359 43.9596 28.6264L43 29.586V27.9286C43 26.4182 43.0001 25.1838 42.869 24.2093C42.7321 23.1907 42.4357 22.3076 41.7308 21.6027C41.0259 20.8978 40.1428 20.6014 39.1242 20.4645C38.1497 20.3334 36.9154 20.3335 35.405 20.3335H28.5951Z" fill="#121212"/>
<path d="M28.9346 37.0002C28.6667 37.4643 28.6667 38.0873 28.6667 39.3335C28.6667 40.5797 28.6667 41.2027 28.9346 41.6668C29.1102 41.9709 29.3626 42.2233 29.6667 42.3989C30.1308 42.6668 30.7539 42.6668 32 42.6668C33.2462 42.6668 33.8692 42.6668 34.3333 42.3989C34.6374 42.2233 34.8899 41.9709 35.0654 41.6668C35.3333 41.2027 35.3333 40.5797 35.3333 39.3335C35.3333 38.0873 35.3333 37.4643 35.0654 37.0002C34.8899 36.6961 34.6374 36.4437 34.3333 36.2681C33.8692 36.0002 33.2462 36.0002 32 36.0002C30.7539 36.0002 30.1308 36.0002 29.6667 36.2681C29.3626 36.4437 29.1102 36.6961 28.9346 37.0002Z" fill="#121212"/>
<path d="M38.6667 39.3335C38.6667 38.0873 38.6667 37.4643 38.9346 37.0002C39.1102 36.6961 39.3626 36.4437 39.6667 36.2681C40.1308 36.0002 40.7539 36.0002 42 36.0002C43.2462 36.0002 43.8692 36.0002 44.3333 36.2681C44.6374 36.4437 44.8899 36.6961 45.0654 37.0002C45.3333 37.4643 45.3333 38.0873 45.3333 39.3335C45.3333 40.5797 45.3333 41.2027 45.0654 41.6668C44.8899 41.9709 44.6374 42.2233 44.3333 42.3989C43.8692 42.6668 43.2462 42.6668 42 42.6668C40.7539 42.6668 40.1308 42.6668 39.6667 42.3989C39.3626 42.2233 39.1102 41.9709 38.9346 41.6668C38.6667 41.2027 38.6667 40.5797 38.6667 39.3335Z" fill="#121212"/>
</svg>
