<svg width="495" height="388" viewBox="0 0 495 388" fill="none" xmlns="http://www.w3.org/2000/svg">
<rect width="495" height="388" rx="16" fill="url(#paint0_linear_256_2521)"/>
<mask id="mask0_256_2521" style="mask-type:alpha" maskUnits="userSpaceOnUse" x="0" y="0" width="495" height="388">
<rect width="495" height="388" rx="16" fill="url(#paint1_linear_256_2521)"/>
</mask>
<g mask="url(#mask0_256_2521)">
<g filter="url(#filter0_b_256_2521)">
<circle cx="247" cy="250" r="221" fill="white" fill-opacity="0.12"/>
<circle cx="247" cy="250" r="220.5" stroke="url(#paint2_linear_256_2521)"/>
</g>
</g>
<g clip-path="url(#clip0_256_2521)">
<path d="M73 68.8595C73 62.6081 73 59.4824 74.2166 57.0946C75.2868 54.9944 76.9944 53.2868 79.0946 52.2166C81.4824 51 84.6081 51 90.8595 51H404.141C410.392 51 413.518 51 415.905 52.2166C418.006 53.2868 419.713 54.9944 420.783 57.0946C422 59.4824 422 62.6081 422 68.8595V388H73V68.8595Z" fill="white"/>
<circle opacity="0.2" cx="247.909" cy="234.478" r="91.0414" fill="white" stroke="url(#paint3_linear_256_2521)" stroke-width="0.697635"/>
<circle opacity="0.2" cx="247.909" cy="235.041" r="105.692" fill="white" stroke="url(#paint4_linear_256_2521)" stroke-width="0.697635"/>
<rect x="83.2363" y="215.67" width="1.97201" height="19.7201" fill="#DFC8FB"/>
<rect x="85.2085" y="219.614" width="1.97201" height="11.8321" fill="#DFC8FB"/>
<rect x="87.1802" y="219.614" width="1.97201" height="11.8321" fill="#DFC8FB"/>
<rect x="89.1523" y="209.754" width="1.97201" height="31.5522" fill="#DFC8FB"/>
<rect x="91.1245" y="209.754" width="1.97201" height="31.5522" fill="#DFC8FB"/>
<rect x="93.0967" y="221.586" width="1.97201" height="7.88804" fill="#DFC8FB"/>
<rect x="95.0684" y="213.955" width="1.71479" height="23.1497" fill="#DFC8FB"/>
<rect x="96.7832" y="210.954" width="1.71479" height="29.1515" fill="#DFC8FB"/>
<rect x="98.498" y="217.814" width="1.71479" height="15.4331" fill="#DFC8FB"/>
<rect x="100.213" y="217.814" width="1.71479" height="15.4331" fill="#DFC8FB"/>
<rect x="101.928" y="213.955" width="1.71479" height="23.1497" fill="#DFC8FB"/>
<rect x="103.642" y="205.81" width="1.71479" height="39.4402" fill="#DFC8FB"/>
<rect x="105.357" y="205.81" width="1.71479" height="39.4402" fill="#DFC8FB"/>
<rect x="107.072" y="205.81" width="1.71479" height="39.4402" fill="#DFC8FB"/>
<rect x="108.787" y="219.528" width="1.71479" height="12.0035" fill="#DFC8FB"/>
<rect x="110.501" y="213.955" width="1.71479" height="23.1497" fill="#DFC8FB"/>
<rect x="112.216" y="210.954" width="1.71479" height="29.1515" fill="#DFC8FB"/>
<rect x="113.931" y="217.814" width="1.71479" height="15.4331" fill="#DFC8FB"/>
<rect x="115.646" y="217.814" width="1.71479" height="15.4331" fill="#DFC8FB"/>
<rect x="117.361" y="213.955" width="1.71479" height="23.1497" fill="#DFC8FB"/>
<rect x="119.075" y="205.81" width="1.71479" height="39.4402" fill="#DFC8FB"/>
<rect x="120.79" y="205.81" width="1.71479" height="39.4402" fill="#DFC8FB"/>
<rect x="122.505" y="205.81" width="1.71479" height="39.4402" fill="#DFC8FB"/>
<rect x="124.22" y="219.528" width="1.71479" height="12.0035" fill="#DFC8FB"/>
<rect x="125.935" y="219.099" width="1.71479" height="12.8609" fill="#DFC8FB"/>
<rect x="127.649" y="217.385" width="1.71479" height="16.2905" fill="#DFC8FB"/>
<rect x="129.364" y="221.672" width="1.71479" height="7.71656" fill="#DFC8FB"/>
<rect x="131.079" y="221.672" width="1.71479" height="7.71656" fill="#DFC8FB"/>
<rect x="132.793" y="219.099" width="1.71479" height="12.8609" fill="#DFC8FB"/>
<rect x="134.508" y="214.813" width="1.71479" height="21.4349" fill="#DFC8FB"/>
<rect x="136.223" y="214.813" width="1.71479" height="21.4349" fill="#DFC8FB"/>
<rect x="137.938" y="214.813" width="1.71479" height="21.4349" fill="#DFC8FB"/>
<rect x="139.653" y="222.529" width="1.71479" height="6.00177" fill="#DFC8FB"/>
<rect width="2.09291" height="13.2551" transform="matrix(-1 0 0 1 382.356 218.903)" fill="#DFC8FB"/>
<rect width="1.97201" height="11.8321" transform="matrix(-1 0 0 1 380.264 219.614)" fill="#DFC8FB"/>
<rect width="1.97201" height="11.8321" transform="matrix(-1 0 0 1 378.292 219.614)" fill="#DFC8FB"/>
<rect width="1.97201" height="31.5522" transform="matrix(-1 0 0 1 376.319 209.754)" fill="#DFC8FB"/>
<rect width="1.39527" height="20.2314" transform="matrix(-1 0 0 1 374.348 215.414)" fill="#DFC8FB"/>
<rect width="1.97201" height="7.88804" transform="matrix(-1 0 0 1 372.953 221.586)" fill="#DFC8FB"/>
<rect width="1.71479" height="23.1497" transform="matrix(-1 0 0 1 370.98 213.955)" fill="#DFC8FB"/>
<rect width="1.71479" height="29.1515" transform="matrix(-1 0 0 1 369.266 210.954)" fill="#DFC8FB"/>
<rect width="1.71479" height="15.4331" transform="matrix(-1 0 0 1 367.551 217.813)" fill="#DFC8FB"/>
<rect width="1.71479" height="15.4331" transform="matrix(-1 0 0 1 365.836 217.813)" fill="#DFC8FB"/>
<rect width="1.71479" height="23.1497" transform="matrix(-1 0 0 1 364.121 213.955)" fill="#DFC8FB"/>
<rect width="1.39527" height="25.8125" transform="matrix(-1 0 0 1 362.407 212.624)" fill="#DFC8FB"/>
<rect width="1.39527" height="21.6267" transform="matrix(-1 0 0 1 361.011 214.717)" fill="#DFC8FB"/>
<rect width="1.39527" height="25.8125" transform="matrix(-1 0 0 1 359.616 212.624)" fill="#DFC8FB"/>
<rect width="1.71479" height="12.0035" transform="matrix(-1 0 0 1 358.221 219.528)" fill="#DFC8FB"/>
<rect width="1.71479" height="23.1497" transform="matrix(-1 0 0 1 356.506 213.955)" fill="#DFC8FB"/>
<rect width="1.71479" height="29.1515" transform="matrix(-1 0 0 1 354.791 210.954)" fill="#DFC8FB"/>
<rect width="1.71479" height="15.4331" transform="matrix(-1 0 0 1 353.076 217.814)" fill="#DFC8FB"/>
<rect width="1.71479" height="15.4331" transform="matrix(-1 0 0 1 351.361 217.814)" fill="#DFC8FB"/>
<rect width="1.71479" height="23.1497" transform="matrix(-1 0 0 1 349.646 213.955)" fill="#DFC8FB"/>
<rect width="1.71479" height="39.4402" transform="matrix(-1 0 0 1 347.932 205.81)" fill="#DFC8FB"/>
<rect width="1.39527" height="25.8125" transform="matrix(-1 0 0 1 346.217 212.624)" fill="#DFC8FB"/>
<rect width="1.39527" height="21.6267" transform="matrix(-1 0 0 1 344.822 214.717)" fill="#DFC8FB"/>
<rect width="1.71479" height="12.0035" transform="matrix(-1 0 0 1 343.427 219.528)" fill="#DFC8FB"/>
<rect width="1.71479" height="12.8609" transform="matrix(-1 0 0 1 341.711 219.099)" fill="#DFC8FB"/>
<rect width="1.71479" height="16.2905" transform="matrix(-1 0 0 1 339.997 217.385)" fill="#DFC8FB"/>
<rect width="1.71479" height="7.71656" transform="matrix(-1 0 0 1 338.282 221.672)" fill="#DFC8FB"/>
<rect width="1.71479" height="7.71656" transform="matrix(-1 0 0 1 336.567 221.672)" fill="#DFC8FB"/>
<rect width="1.71479" height="12.8609" transform="matrix(-1 0 0 1 334.853 219.099)" fill="#DFC8FB"/>
<rect width="1.71479" height="21.4349" transform="matrix(-1 0 0 1 333.138 214.813)" fill="#DFC8FB"/>
<rect width="1.71479" height="21.4349" transform="matrix(-1 0 0 1 331.423 214.813)" fill="#DFC8FB"/>
<rect width="1.71479" height="21.4349" transform="matrix(-1 0 0 1 329.708 214.813)" fill="#DFC8FB"/>
<rect width="1.71479" height="6.00177" transform="matrix(-1 0 0 1 327.993 222.529)" fill="#DFC8FB"/>
<rect x="136.044" y="215.106" width="1.97201" height="19.7201" fill="#DFC8FB"/>
<rect x="138.016" y="219.05" width="1.97201" height="11.8321" fill="#DFC8FB"/>
<rect x="139.988" y="219.05" width="1.97201" height="11.8321" fill="#DFC8FB"/>
<rect x="141.96" y="209.19" width="1.97201" height="31.5522" fill="#DFC8FB"/>
<rect x="143.932" y="209.19" width="1.97201" height="31.5522" fill="#DFC8FB"/>
<rect x="145.904" y="221.022" width="1.97201" height="7.88804" fill="#DFC8FB"/>
<rect x="147.876" y="212.148" width="1.97201" height="25.6361" fill="#DFC8FB"/>
<rect x="149.848" y="218.064" width="1.97201" height="13.8041" fill="#DFC8FB"/>
<rect x="151.82" y="218.064" width="1.97201" height="13.8041" fill="#DFC8FB"/>
<rect x="153.792" y="208.204" width="1.97201" height="33.5242" fill="#DFC8FB"/>
<rect x="155.764" y="208.204" width="1.97201" height="33.5242" fill="#DFC8FB"/>
<rect x="157.736" y="208.204" width="1.97201" height="33.5242" fill="#DFC8FB"/>
<rect width="1.71479" height="12.8609" transform="matrix(-1 0 0 1 175.141 218.536)" fill="#DFC8FB"/>
<rect width="1.71479" height="16.2905" transform="matrix(-1 0 0 1 173.426 216.821)" fill="#DFC8FB"/>
<rect width="1.71479" height="7.71656" transform="matrix(-1 0 0 1 171.711 221.108)" fill="#DFC8FB"/>
<rect width="1.71479" height="7.71656" transform="matrix(-1 0 0 1 169.997 221.108)" fill="#DFC8FB"/>
<rect width="1.71479" height="12.8609" transform="matrix(-1 0 0 1 168.282 218.536)" fill="#DFC8FB"/>
<rect width="1.71479" height="21.4349" transform="matrix(-1 0 0 1 166.567 214.249)" fill="#DFC8FB"/>
<rect width="1.71479" height="21.4349" transform="matrix(-1 0 0 1 164.853 214.249)" fill="#DFC8FB"/>
<rect width="1.71479" height="21.4349" transform="matrix(-1 0 0 1 163.138 214.249)" fill="#DFC8FB"/>
<rect width="1.71479" height="6.00177" transform="matrix(-1 0 0 1 161.423 221.965)" fill="#DFC8FB"/>
<rect x="204.148" y="221.586" width="1.97201" height="7.88804" fill="#DFC8FB"/>
<rect x="206.121" y="223.558" width="1.97201" height="3.94402" fill="#DFC8FB"/>
<rect x="208.092" y="223.558" width="1.97201" height="3.94402" fill="#DFC8FB"/>
<rect x="210.064" y="219.614" width="1.97201" height="11.8321" fill="#DFC8FB"/>
<rect x="212.037" y="219.614" width="1.97201" height="11.8321" fill="#DFC8FB"/>
<rect x="214.008" y="223.558" width="1.97201" height="3.94402" fill="#DFC8FB"/>
<rect x="215.98" y="221.586" width="1.97201" height="7.88804" fill="#DFC8FB"/>
<rect x="217.953" y="223.558" width="1.97201" height="3.94402" fill="#DFC8FB"/>
<rect x="219.924" y="223.558" width="1.97201" height="3.94402" fill="#DFC8FB"/>
<rect x="221.896" y="219.614" width="1.97201" height="11.8321" fill="#DFC8FB"/>
<rect x="223.869" y="219.614" width="1.97201" height="11.8321" fill="#DFC8FB"/>
<rect x="225.84" y="219.614" width="1.97201" height="11.8321" fill="#DFC8FB"/>
<rect width="3.94402" height="5.91603" transform="matrix(-1 0 0 1 263.309 222.572)" fill="#DFC8FB"/>
<rect width="3.94402" height="5.91603" transform="matrix(-1 0 0 1 259.365 222.572)" fill="#DFC8FB"/>
<rect width="3.94402" height="1.97201" transform="matrix(-1 0 0 1 255.42 224.544)" fill="#DFC8FB"/>
<rect width="3.94402" height="1.97201" transform="matrix(-1 0 0 1 251.477 224.544)" fill="#DFC8FB"/>
<rect width="3.94402" height="5.91603" transform="matrix(-1 0 0 1 247.532 222.572)" fill="#DFC8FB"/>
<rect width="3.94402" height="9.86005" transform="matrix(-1 0 0 1 243.588 220.6)" fill="#DFC8FB"/>
<rect width="3.94402" height="9.86005" transform="matrix(-1 0 0 1 239.645 220.6)" fill="#DFC8FB"/>
<rect width="3.94402" height="9.86005" transform="matrix(-1 0 0 1 235.701 220.6)" fill="#DFC8FB"/>
<rect width="3.94402" height="1.97201" transform="matrix(-1 0 0 1 231.756 224.544)" fill="#DFC8FB"/>
<rect width="1.97201" height="7.88804" transform="matrix(-1 0 0 1 265.303 221.586)" fill="#DFC8FB"/>
<rect width="1.97201" height="3.94402" transform="matrix(-1 0 0 1 263.331 223.558)" fill="#DFC8FB"/>
<rect width="1.97201" height="3.94402" transform="matrix(-1 0 0 1 261.359 223.558)" fill="#DFC8FB"/>
<rect width="1.97201" height="11.8321" transform="matrix(-1 0 0 1 259.387 219.614)" fill="#DFC8FB"/>
<rect width="1.97201" height="11.8321" transform="matrix(-1 0 0 1 257.415 219.614)" fill="#DFC8FB"/>
<rect width="1.97201" height="3.94402" transform="matrix(-1 0 0 1 255.443 223.558)" fill="#DFC8FB"/>
<rect width="1.97201" height="7.88804" transform="matrix(-1 0 0 1 253.471 221.586)" fill="#DFC8FB"/>
<rect width="1.97201" height="3.94402" transform="matrix(-1 0 0 1 251.499 223.558)" fill="#DFC8FB"/>
<rect width="1.97201" height="3.94402" transform="matrix(-1 0 0 1 249.527 223.558)" fill="#DFC8FB"/>
<rect width="1.97201" height="11.8321" transform="matrix(-1 0 0 1 247.555 219.614)" fill="#DFC8FB"/>
<rect width="1.97201" height="11.8321" transform="matrix(-1 0 0 1 245.583 219.614)" fill="#DFC8FB"/>
<rect width="1.97201" height="11.8321" transform="matrix(-1 0 0 1 243.611 219.614)" fill="#DFC8FB"/>
<rect x="206.143" y="222.572" width="3.94402" height="5.91603" fill="#DFC8FB"/>
<rect x="210.086" y="222.572" width="3.94402" height="5.91603" fill="#DFC8FB"/>
<rect x="214.031" y="224.544" width="3.94402" height="1.97201" fill="#DFC8FB"/>
<rect x="217.975" y="224.544" width="3.94402" height="1.97201" fill="#DFC8FB"/>
<rect x="221.918" y="222.572" width="3.94402" height="5.91603" fill="#DFC8FB"/>
<rect x="225.863" y="220.6" width="3.94402" height="9.86005" fill="#DFC8FB"/>
<rect x="229.807" y="220.6" width="3.94402" height="9.86005" fill="#DFC8FB"/>
<rect x="233.75" y="220.6" width="3.94402" height="9.86005" fill="#DFC8FB"/>
<rect x="237.695" y="224.544" width="3.94402" height="1.97201" fill="#DFC8FB"/>
<rect width="1.97201" height="7.88804" transform="matrix(-1 0 0 1 326.457 221.586)" fill="#DFC8FB"/>
<rect width="1.97201" height="3.94402" transform="matrix(-1 0 0 1 324.485 223.558)" fill="#DFC8FB"/>
<rect width="1.97201" height="3.94402" transform="matrix(-1 0 0 1 322.513 223.558)" fill="#DFC8FB"/>
<rect width="1.97201" height="11.8321" transform="matrix(-1 0 0 1 320.541 219.614)" fill="#DFC8FB"/>
<rect width="1.97201" height="11.8321" transform="matrix(-1 0 0 1 318.569 219.614)" fill="#DFC8FB"/>
<rect width="1.97201" height="3.94402" transform="matrix(-1 0 0 1 316.597 223.558)" fill="#DFC8FB"/>
<rect x="279.129" y="222.572" width="3.94402" height="5.91603" fill="#DFC8FB"/>
<rect x="283.073" y="222.572" width="3.94402" height="5.91603" fill="#DFC8FB"/>
<rect x="287.017" y="224.544" width="3.94402" height="1.97201" fill="#DFC8FB"/>
<rect x="290.961" y="224.544" width="3.94402" height="1.97201" fill="#DFC8FB"/>
<rect x="294.905" y="222.572" width="3.94402" height="5.91603" fill="#DFC8FB"/>
<rect x="298.849" y="220.6" width="3.94402" height="9.86005" fill="#DFC8FB"/>
<rect x="302.793" y="220.6" width="3.94402" height="9.86005" fill="#DFC8FB"/>
<rect x="306.737" y="220.6" width="3.94402" height="9.86005" fill="#DFC8FB"/>
<rect x="310.681" y="224.544" width="3.94402" height="1.97201" fill="#DFC8FB"/>
<rect width="1.97201" height="7.88804" transform="matrix(-1 0 0 1 279.129 221.586)" fill="#DFC8FB"/>
<rect width="1.97201" height="3.94402" transform="matrix(-1 0 0 1 277.157 223.558)" fill="#DFC8FB"/>
<rect width="1.97201" height="3.94402" transform="matrix(-1 0 0 1 275.185 223.558)" fill="#DFC8FB"/>
<rect width="1.97201" height="11.8321" transform="matrix(-1 0 0 1 273.213 219.614)" fill="#DFC8FB"/>
<rect width="1.97201" height="11.8321" transform="matrix(-1 0 0 1 271.241 219.614)" fill="#DFC8FB"/>
<rect width="1.97201" height="11.8321" transform="matrix(-1 0 0 1 269.269 219.614)" fill="#DFC8FB"/>
<rect x="396.571" y="222.572" width="3.94402" height="5.91603" fill="#DFC8FB"/>
<rect x="400.515" y="222.572" width="3.94402" height="5.91603" fill="#DFC8FB"/>
<rect x="404.459" y="224.544" width="3.94402" height="1.97201" fill="#DFC8FB"/>
<rect x="408.403" y="224.544" width="3.94402" height="1.97201" fill="#DFC8FB"/>
<rect x="412.347" y="222.572" width="3.94402" height="5.91603" fill="#DFC8FB"/>
<rect x="416.292" y="220.6" width="3.94402" height="9.86005" fill="#DFC8FB"/>
<rect x="420.235" y="220.6" width="3.94402" height="9.86005" fill="#DFC8FB"/>
<rect width="1.97201" height="7.88804" transform="matrix(-1 0 0 1 396.571 221.586)" fill="#DFC8FB"/>
<rect width="1.97201" height="3.94402" transform="matrix(-1 0 0 1 394.599 223.558)" fill="#DFC8FB"/>
<rect width="1.97201" height="3.94402" transform="matrix(-1 0 0 1 392.627 223.558)" fill="#DFC8FB"/>
<rect width="1.97201" height="11.8321" transform="matrix(-1 0 0 1 390.655 219.614)" fill="#DFC8FB"/>
<rect width="1.97201" height="11.8321" transform="matrix(-1 0 0 1 388.683 219.614)" fill="#DFC8FB"/>
<rect width="1.97201" height="11.8321" transform="matrix(-1 0 0 1 386.711 219.614)" fill="#DFC8FB"/>
<rect x="73.501" y="226.656" width="2.25506" height="376.654" transform="rotate(-90 73.501 226.656)" fill="#DFC8FB"/>
<circle cx="247.909" cy="226.106" r="75.6934" fill="white" stroke="url(#paint5_linear_256_2521)" stroke-width="0.697635"/>
<circle cx="247.909" cy="226.106" r="59.9966" fill="#DFC8FB"/>
<path d="M243.366 195.965C245.152 192.088 250.662 192.088 252.448 195.965L259.749 211.814C260.248 212.896 261.116 213.765 262.198 214.263L278.047 221.564C281.924 223.35 281.924 228.86 278.047 230.646L262.198 237.946C261.116 238.445 260.248 239.314 259.749 240.396L252.448 256.245C250.662 260.122 245.152 260.122 243.366 256.245L236.066 240.396C235.567 239.314 234.699 238.445 233.617 237.946L217.768 230.646C213.89 228.86 213.89 223.35 217.768 221.564L233.617 214.263C234.699 213.765 235.567 212.896 236.066 211.814L243.366 195.965Z" fill="white"/>
<path d="M212.86 328.386H209.796V332.706H208.155V320.601H212.86C215.238 320.601 216.761 322.158 216.761 324.485C216.761 326.745 215.221 328.386 212.86 328.386ZM212.576 322.074H209.796V326.913H212.509C214.133 326.913 215.037 325.959 215.037 324.468C215.037 322.945 214.116 322.074 212.576 322.074ZM224.011 324.519H225.568V332.706H224.162L223.995 331.467C223.526 332.321 222.437 332.907 221.232 332.907C219.323 332.907 218.252 331.618 218.252 329.609V324.519H219.825V329.09C219.825 330.848 220.579 331.517 221.784 331.517C223.224 331.517 224.011 330.596 224.011 328.838V324.519ZM232.54 324.452V325.892H231.837C230.347 325.892 229.426 326.796 229.426 328.37V332.706H227.852V324.535H229.325L229.426 325.774C229.761 324.92 230.581 324.351 231.703 324.351C231.988 324.351 232.222 324.385 232.54 324.452ZM237.255 332.907C234.844 332.907 233.186 331.166 233.186 328.621C233.186 326.059 234.81 324.284 237.188 324.284C239.515 324.284 241.039 325.892 241.039 328.319V328.905L234.71 328.922C234.827 330.647 235.731 331.601 237.288 331.601C238.51 331.601 239.314 331.099 239.582 330.161H241.055C240.654 331.919 239.281 332.907 237.255 332.907ZM237.188 325.607C235.815 325.607 234.944 326.427 234.743 327.867H239.465C239.465 326.511 238.577 325.607 237.188 325.607ZM245.025 332.706H243.452V325.841H241.844V324.519H243.452V321.957H245.025V324.519H246.633V325.841H245.025V332.706ZM250.341 332.907C248.583 332.907 247.545 331.919 247.545 330.429C247.545 328.922 248.667 327.984 250.593 327.834L253.171 327.633V327.398C253.171 326.026 252.351 325.54 251.245 325.54C249.923 325.54 249.169 326.126 249.169 327.114H247.796C247.796 325.406 249.203 324.284 251.312 324.284C253.338 324.284 254.711 325.356 254.711 327.566V332.706H253.372L253.204 331.383C252.786 332.321 251.664 332.907 250.341 332.907ZM250.793 331.685C252.284 331.685 253.188 330.714 253.188 329.173V328.738L251.095 328.905C249.705 329.039 249.136 329.575 249.136 330.379C249.136 331.249 249.772 331.685 250.793 331.685ZM258.498 332.706H256.924V320.383H258.498V332.706ZM262.423 332.706H260.849V320.383H262.423V328.37L266.056 324.519H268.032L264.901 327.784L268.015 332.706H266.207L263.812 328.922L262.423 330.379V332.706ZM270.49 332.907C269.837 332.907 269.284 332.371 269.284 331.735C269.284 331.082 269.837 330.546 270.49 330.546C271.126 330.546 271.678 331.082 271.678 331.735C271.678 332.371 271.126 332.907 270.49 332.907ZM275.157 332.706H273.449L277.869 320.601H279.694L284.131 332.706H282.406L281.318 329.692H276.228L275.157 332.706ZM278.572 323.213L276.73 328.269H280.833L278.974 323.213C278.89 322.978 278.807 322.694 278.773 322.509C278.74 322.677 278.656 322.961 278.572 323.213ZM287.381 320.601V332.706H285.74V320.601H287.381Z" fill="#121212"/>
<path d="M226.539 105.729V117.834H224.899V105.729H226.539ZM230.668 117.834H229.095V109.647H230.518L230.685 110.902C231.204 109.965 232.242 109.412 233.398 109.412C235.557 109.412 236.545 110.735 236.545 112.828V117.834H234.971V113.179C234.971 111.522 234.201 110.852 232.996 110.852C231.522 110.852 230.668 111.907 230.668 113.497V117.834ZM248.594 118.018C245.145 118.018 242.851 115.54 242.851 111.79C242.851 108.056 245.212 105.528 248.678 105.528C251.407 105.528 253.5 107.152 253.952 109.63H252.194C251.742 108.056 250.386 107.102 248.628 107.102C246.183 107.102 244.576 108.943 244.576 111.773C244.576 114.603 246.183 116.444 248.628 116.444C250.403 116.444 251.809 115.49 252.261 114H254.002C253.483 116.411 251.323 118.018 248.594 118.018ZM257.977 118.035C256.219 118.035 255.181 117.047 255.181 115.557C255.181 114.05 256.303 113.112 258.228 112.962L260.807 112.761V112.526C260.807 111.153 259.986 110.668 258.881 110.668C257.559 110.668 256.805 111.254 256.805 112.242H255.432C255.432 110.534 256.839 109.412 258.948 109.412C260.974 109.412 262.347 110.484 262.347 112.694V117.834H261.008L260.84 116.511C260.422 117.449 259.3 118.035 257.977 118.035ZM258.429 116.813C259.919 116.813 260.823 115.842 260.823 114.301V113.866L258.731 114.033C257.341 114.167 256.772 114.703 256.772 115.507C256.772 116.377 257.408 116.813 258.429 116.813ZM266.134 117.834H264.56V105.511H266.134V117.834ZM270.058 117.834H268.484V105.511H270.058V117.834Z" fill="#121212"/>
<g filter="url(#filter1_d_256_2521)">
<rect x="204.619" y="282.199" width="87.277" height="27.3716" rx="13.6858" fill="white" shape-rendering="crispEdges"/>
<rect x="204.968" y="282.548" width="86.5794" height="26.674" rx="13.337" stroke="black" stroke-opacity="0.1" stroke-width="0.697635" shape-rendering="crispEdges"/>
<path d="M212.993 295.687C213.019 294.401 213.032 293.759 213.459 293.209C213.537 293.108 213.652 292.989 213.747 292.908C214.272 292.465 214.965 292.465 216.352 292.465C216.847 292.465 217.095 292.465 217.331 292.4C217.38 292.387 217.428 292.371 217.476 292.353C217.707 292.269 217.914 292.124 218.327 291.833C219.959 290.686 220.774 290.112 221.459 290.361C221.59 290.409 221.717 290.478 221.831 290.563C222.423 291.007 222.468 292.039 222.558 294.103C222.591 294.867 222.614 295.521 222.614 295.885C222.614 296.249 222.591 296.903 222.558 297.667C222.468 299.731 222.423 300.763 221.831 301.207C221.717 301.292 221.59 301.361 221.459 301.409C220.774 301.658 219.959 301.084 218.327 299.937C217.914 299.646 217.707 299.501 217.476 299.417C217.428 299.399 217.38 299.384 217.331 299.37C217.095 299.305 216.847 299.305 216.352 299.305C214.965 299.305 214.272 299.305 213.747 298.862C213.652 298.781 213.537 298.662 213.459 298.561C213.032 298.011 213.019 297.369 212.993 296.084C212.992 296.016 212.991 295.95 212.991 295.885C212.991 295.82 212.992 295.754 212.993 295.687Z" fill="#1C274C"/>
<path fill-rule="evenodd" clip-rule="evenodd" d="M225.193 291.387C225.397 291.205 225.7 291.235 225.87 291.453L225.501 291.781C225.87 291.453 225.87 291.452 225.87 291.453L225.871 291.453L225.872 291.455L225.874 291.457L225.878 291.463C225.882 291.468 225.887 291.474 225.892 291.482C225.903 291.496 225.917 291.516 225.933 291.541C225.967 291.591 226.012 291.662 226.063 291.754C226.167 291.939 226.3 292.209 226.431 292.572C226.693 293.298 226.944 294.386 226.944 295.885C226.944 297.384 226.693 298.473 226.431 299.199C226.3 299.561 226.167 299.832 226.063 300.016C226.012 300.108 225.967 300.179 225.933 300.229C225.917 300.254 225.903 300.274 225.892 300.289C225.887 300.296 225.882 300.302 225.878 300.307L225.874 300.313L225.872 300.316L225.871 300.317C225.871 300.317 225.87 300.318 225.501 299.989L225.87 300.318C225.7 300.536 225.397 300.565 225.193 300.384C224.989 300.203 224.961 299.882 225.128 299.664C225.129 299.664 225.13 299.663 225.131 299.661C225.134 299.656 225.141 299.647 225.15 299.633C225.169 299.604 225.2 299.556 225.238 299.488C225.315 299.352 225.423 299.135 225.533 298.831C225.752 298.223 225.982 297.259 225.982 295.885C225.982 294.511 225.752 293.548 225.533 292.94C225.423 292.635 225.315 292.418 225.238 292.282C225.2 292.214 225.169 292.166 225.15 292.138C225.141 292.123 225.134 292.114 225.131 292.109C225.13 292.108 225.129 292.107 225.128 292.106C225.128 292.106 225.128 292.106 225.128 292.106" fill="#1C274C"/>
<path fill-rule="evenodd" clip-rule="evenodd" d="M223.984 293.385C224.216 293.247 224.509 293.336 224.638 293.584L224.218 293.833C224.638 293.584 224.638 293.584 224.638 293.584L224.639 293.585L224.639 293.586L224.64 293.588L224.643 293.593L224.649 293.605C224.654 293.615 224.659 293.627 224.666 293.642C224.679 293.671 224.696 293.711 224.714 293.761C224.752 293.862 224.799 294.005 224.844 294.193C224.935 294.57 225.019 295.126 225.019 295.885C225.019 296.645 224.935 297.201 224.844 297.577C224.799 297.766 224.752 297.909 224.714 298.009C224.696 298.06 224.679 298.099 224.666 298.129C224.659 298.143 224.654 298.156 224.649 298.165L224.643 298.178L224.64 298.183L224.639 298.185L224.639 298.186C224.639 298.186 224.638 298.187 224.218 297.937L224.638 298.187C224.509 298.434 224.216 298.523 223.984 298.386C223.754 298.249 223.669 297.941 223.794 297.695L223.797 297.688C223.801 297.678 223.81 297.658 223.821 297.628C223.843 297.569 223.877 297.468 223.912 297.323C223.982 297.033 224.057 296.562 224.057 295.885C224.057 295.208 223.982 294.738 223.912 294.448C223.877 294.303 223.843 294.202 223.821 294.142C223.81 294.112 223.801 294.093 223.797 294.083L223.794 294.076C223.669 293.829 223.754 293.521 223.984 293.385Z" fill="#1C274C"/>
<path d="M234.506 294.018C234.506 292.288 235.901 291.116 237.98 291.116C239.906 291.116 241.147 292.19 241.259 293.934H239.878C239.808 292.93 239.096 292.344 237.966 292.344C236.697 292.344 235.873 292.985 235.873 293.976C235.873 294.785 236.334 295.274 237.283 295.497L238.943 295.888C240.589 296.264 241.426 297.157 241.426 298.581C241.426 300.394 240.017 301.552 237.869 301.552C235.817 301.552 234.45 300.478 234.366 298.748H235.762C235.79 299.711 236.599 300.325 237.869 300.325C239.208 300.325 240.059 299.697 240.059 298.692C240.059 297.897 239.627 297.395 238.664 297.171L237.003 296.795C235.357 296.418 234.506 295.469 234.506 294.018ZM242.921 304.441V294.562H244.107L244.205 295.79C244.666 294.855 245.586 294.367 246.675 294.367C248.628 294.367 249.842 295.832 249.842 297.925C249.842 300.004 248.698 301.566 246.675 301.566C245.586 301.566 244.68 301.106 244.233 300.269V304.441H242.921ZM244.247 297.981C244.247 299.376 245.056 300.38 246.396 300.38C247.735 300.38 248.53 299.376 248.53 297.981C248.53 296.571 247.735 295.567 246.396 295.567C245.056 295.567 244.247 296.557 244.247 297.981ZM254.232 301.552C252.222 301.552 250.841 300.101 250.841 297.981C250.841 295.846 252.195 294.367 254.176 294.367C256.115 294.367 257.385 295.706 257.385 297.729V298.218L252.111 298.232C252.209 299.669 252.962 300.464 254.26 300.464C255.278 300.464 255.948 300.046 256.171 299.264H257.399C257.064 300.729 255.92 301.552 254.232 301.552ZM254.176 295.469C253.032 295.469 252.306 296.153 252.139 297.353H256.073C256.073 296.223 255.334 295.469 254.176 295.469ZM260.777 301.552C259.312 301.552 258.447 300.729 258.447 299.487C258.447 298.232 259.382 297.45 260.986 297.325L263.135 297.157V296.962C263.135 295.818 262.451 295.413 261.53 295.413C260.428 295.413 259.8 295.902 259.8 296.725H258.656C258.656 295.302 259.828 294.367 261.586 294.367C263.275 294.367 264.419 295.26 264.419 297.102V301.385H263.302L263.163 300.283C262.814 301.064 261.879 301.552 260.777 301.552ZM261.154 300.534C262.396 300.534 263.149 299.725 263.149 298.441V298.078L261.405 298.218C260.247 298.329 259.772 298.776 259.772 299.446C259.772 300.171 260.303 300.534 261.154 300.534ZM267.574 301.385H266.263V291.116H267.574V297.771L270.602 294.562H272.249L269.639 297.283L272.235 301.385H270.728L268.733 298.232L267.574 299.446V301.385ZM276.006 301.552C273.996 301.552 272.615 300.101 272.615 297.981C272.615 295.846 273.968 294.367 275.95 294.367C277.889 294.367 279.159 295.706 279.159 297.729V298.218L273.885 298.232C273.982 299.669 274.736 300.464 276.033 300.464C277.052 300.464 277.722 300.046 277.945 299.264H279.173C278.838 300.729 277.694 301.552 276.006 301.552ZM275.95 295.469C274.806 295.469 274.08 296.153 273.913 297.353H277.847C277.847 296.223 277.108 295.469 275.95 295.469ZM284.531 294.506V295.706H283.945C282.703 295.706 281.935 296.46 281.935 297.771V301.385H280.624V294.576H281.852L281.935 295.609C282.214 294.897 282.898 294.423 283.833 294.423C284.07 294.423 284.265 294.451 284.531 294.506Z" fill="#121212"/>
</g>
<path opacity="0.5" d="M233.547 349.186C233.547 346.686 234.842 344.989 236.873 344.989C238.894 344.989 240.188 346.686 240.188 349.186C240.188 351.698 238.949 353.361 236.873 353.361C234.786 353.361 233.547 351.698 233.547 349.186ZM234.63 349.186C234.63 351.173 235.456 352.379 236.873 352.379C238.291 352.379 239.106 351.173 239.106 349.186C239.106 347.177 238.291 345.972 236.873 345.972C235.456 345.972 234.63 347.177 234.63 349.186ZM242.827 346.128H241.13V345.146H243.876V353.216H242.827V346.128ZM246.457 349.164C246.022 349.164 245.654 348.807 245.654 348.394C245.654 347.958 246.022 347.601 246.457 347.601C246.881 347.601 247.25 347.958 247.25 348.394C247.25 348.807 246.881 349.164 246.457 349.164ZM246.457 353.35C246.022 353.35 245.654 352.993 245.654 352.568C245.654 352.133 246.022 351.776 246.457 351.776C246.881 351.776 247.25 352.133 247.25 352.568C247.25 352.993 246.881 353.35 246.457 353.35ZM250.966 349.041H250.162V348.316L252.45 346.117H248.823V345.146H253.834V346.027L251.624 348.137C252.997 348.304 254.035 349.231 254.035 350.682C254.035 352.312 252.807 353.35 251.167 353.35C249.582 353.35 248.443 352.379 248.443 350.704H249.526C249.526 351.754 250.173 352.367 251.189 352.367C252.238 352.367 252.919 351.698 252.919 350.66C252.919 349.689 252.249 349.041 250.966 349.041ZM254.977 350.972C254.977 350.001 255.546 349.22 256.439 348.896C255.68 348.572 255.267 347.936 255.267 347.121C255.267 345.86 256.35 345 257.957 345C259.542 345 260.614 345.86 260.614 347.132C260.614 347.958 260.19 348.595 259.431 348.896C260.335 349.186 260.915 349.99 260.915 350.983C260.915 352.401 259.732 353.35 257.946 353.35C256.149 353.35 254.977 352.401 254.977 350.972ZM256.272 347.188C256.272 347.981 256.93 348.494 257.935 348.494C258.951 348.494 259.587 347.992 259.587 347.211C259.587 346.44 258.951 345.949 257.935 345.949C256.93 345.949 256.272 346.44 256.272 347.188ZM256.048 350.894C256.048 351.798 256.796 352.379 257.946 352.379C259.085 352.379 259.832 351.798 259.832 350.894C259.832 350.001 259.096 349.432 257.935 349.432C256.785 349.432 256.048 350.001 256.048 350.894Z" fill="#121212"/>
<path d="M104.098 65.9386C104.527 65.9415 104.945 66.0174 105.351 66.1664C105.759 66.3124 106.127 66.5519 106.455 66.8849C106.782 67.2149 107.042 67.6574 107.234 68.2123C107.427 68.7673 107.524 69.4537 107.524 70.2715C107.526 71.0425 107.445 71.7318 107.278 72.3393C107.115 72.9439 106.88 73.455 106.573 73.8727C106.266 74.2904 105.897 74.6087 105.464 74.8278C105.032 75.0468 104.546 75.1564 104.006 75.1564C103.439 75.1564 102.937 75.0454 102.498 74.8234C102.063 74.6014 101.711 74.2977 101.443 73.9121C101.174 73.5266 101.009 73.0856 100.948 72.589H102.547C102.628 72.9454 102.795 73.2287 103.046 73.439C103.3 73.6463 103.62 73.75 104.006 73.75C104.628 73.75 105.107 73.4799 105.443 72.9395C105.778 72.3992 105.946 71.6486 105.946 70.6877H105.885C105.742 70.9447 105.556 71.1667 105.329 71.3536C105.101 71.5376 104.842 71.6792 104.553 71.7785C104.267 71.8779 103.963 71.9275 103.642 71.9275C103.116 71.9275 102.643 71.8019 102.222 71.5507C101.805 71.2995 101.473 70.9549 101.228 70.5168C100.986 70.0787 100.863 69.5778 100.86 69.0141C100.86 68.4299 100.994 67.9057 101.263 67.4413C101.535 66.974 101.913 66.606 102.398 66.3372C102.883 66.0656 103.449 65.9327 104.098 65.9386ZM104.102 67.2529C103.786 67.2529 103.502 67.3303 103.248 67.4851C102.996 67.637 102.798 67.8443 102.652 68.1072C102.509 68.3671 102.437 68.6578 102.437 68.979C102.44 69.2974 102.512 69.5865 102.652 69.8465C102.795 70.1064 102.989 70.3123 103.234 70.4642C103.483 70.6161 103.766 70.692 104.084 70.692C104.321 70.692 104.541 70.6468 104.746 70.5562C104.95 70.4657 105.129 70.3401 105.28 70.1795C105.435 70.0159 105.555 69.8304 105.64 69.6231C105.727 69.4157 105.77 69.1966 105.767 68.9659C105.767 68.6592 105.694 68.3759 105.548 68.116C105.405 67.856 105.207 67.6472 104.956 67.4895C104.708 67.3317 104.423 67.2529 104.102 67.2529ZM109.723 73.9559C109.457 73.9559 109.229 73.8625 109.039 73.6756C108.85 73.4857 108.756 73.2579 108.759 72.9921C108.756 72.7292 108.85 72.5043 109.039 72.3174C109.229 72.1305 109.457 72.037 109.723 72.037C109.98 72.037 110.203 72.1305 110.393 72.3174C110.586 72.5043 110.684 72.7292 110.687 72.9921C110.684 73.1703 110.637 73.3324 110.546 73.4784C110.459 73.6244 110.342 73.7413 110.196 73.8289C110.053 73.9136 109.895 73.9559 109.723 73.9559ZM109.723 69.5091C109.457 69.5091 109.229 69.4157 109.039 69.2288C108.85 69.0389 108.756 68.8111 108.759 68.5453C108.756 68.2824 108.85 68.0575 109.039 67.8706C109.229 67.6808 109.457 67.5859 109.723 67.5859C109.98 67.5859 110.203 67.6808 110.393 67.8706C110.586 68.0575 110.684 68.2824 110.687 68.5453C110.684 68.7206 110.637 68.8812 110.546 69.0272C110.459 69.1733 110.342 69.2901 110.196 69.3777C110.053 69.4653 109.895 69.5091 109.723 69.5091ZM111.89 73.3689V72.0765L115.698 66.0612H116.775V67.9013H116.118L113.555 71.9626V72.0327H118.869V73.3689H111.89ZM116.171 75.0337V72.9746L116.188 72.3963V66.0612H117.722V75.0337H116.171ZM123.544 66.0612V75.0337H121.919V67.6428H121.866L119.768 68.9834V67.4939L121.998 66.0612H123.544Z" fill="#121212"/>
<path d="M139.876 65.8708L140.328 66.6821C140.737 67.4143 140.573 68.3748 139.929 69.0183C139.929 69.0183 139.929 69.0183 139.929 69.0183C139.929 69.0184 139.149 69.799 140.564 71.2142C141.979 72.629 142.759 71.8495 142.76 71.849C142.76 71.8489 142.76 71.849 142.76 71.8489C143.404 71.2054 144.364 71.0414 145.096 71.45L145.908 71.9028C147.013 72.5198 147.144 74.0702 146.172 75.042C145.588 75.6259 144.873 76.0802 144.082 76.1102C142.751 76.1607 140.49 75.8238 138.222 73.5561C135.955 71.2884 135.618 69.0277 135.668 67.6965C135.698 66.9057 136.152 66.1904 136.736 65.6065C137.708 64.6347 139.259 64.7653 139.876 65.8708Z" fill="#1C274C"/>
<path fill-rule="evenodd" clip-rule="evenodd" d="M353.659 66.1276H352.812C352.344 66.1276 351.965 66.5068 351.965 66.9746V74.3153C351.965 74.7831 352.344 75.1623 352.812 75.1623H353.659C354.127 75.1623 354.506 74.7831 354.506 74.3153V66.9746C354.506 66.5068 354.127 66.1276 353.659 66.1276ZM348.859 68.104H349.706C350.173 68.104 350.553 68.4832 350.553 68.951V74.3153C350.553 74.7831 350.173 75.1623 349.706 75.1623H348.859C348.391 75.1623 348.012 74.7831 348.012 74.3153V68.951C348.012 68.4832 348.391 68.104 348.859 68.104ZM345.755 70.0811H344.908C344.44 70.0811 344.061 70.4603 344.061 70.9281V74.3161C344.061 74.7839 344.44 75.1631 344.908 75.1631H345.755C346.223 75.1631 346.602 74.7839 346.602 74.3161V70.9281C346.602 70.4603 346.223 70.0811 345.755 70.0811ZM341.801 71.7747H340.954C340.487 71.7747 340.107 72.1539 340.107 72.6217V74.3157C340.107 74.7835 340.487 75.1627 340.954 75.1627H341.801C342.269 75.1627 342.648 74.7835 342.648 74.3157V72.6217C342.648 72.1539 342.269 71.7747 341.801 71.7747Z" fill="#121212"/>
<path fill-rule="evenodd" clip-rule="evenodd" d="M365.406 68.0625C367.291 68.0626 369.103 68.786 370.468 70.0833C370.571 70.1835 370.736 70.1822 370.837 70.0805L371.82 69.0892C371.871 69.0376 371.9 68.9677 371.899 68.895C371.899 68.8223 371.87 68.7527 371.818 68.7018C368.233 65.2695 362.578 65.2695 358.994 68.7018C358.942 68.7527 358.913 68.8222 358.912 68.895C358.912 68.9677 358.94 69.0376 358.991 69.0892L359.975 70.0805C360.076 70.1824 360.24 70.1836 360.343 70.0833C361.709 68.786 363.522 68.0625 365.406 68.0625ZM365.405 71.2877C366.441 71.2877 367.439 71.6722 368.206 72.3665C368.31 72.4651 368.474 72.4629 368.575 72.3617L369.557 71.3704C369.609 71.3185 369.637 71.2479 369.636 71.1746C369.636 71.1013 369.606 71.0314 369.553 70.9805C367.216 68.8084 363.597 68.8084 361.26 70.9805C361.207 71.0314 361.177 71.1014 361.176 71.1747C361.175 71.248 361.204 71.3185 361.256 71.3704L362.238 72.3617C362.339 72.4629 362.502 72.4651 362.606 72.3665C363.373 71.6726 364.371 71.2882 365.405 71.2877ZM367.372 73.4572C367.373 73.5307 367.345 73.6016 367.292 73.6531L365.594 75.3657C365.544 75.4161 365.476 75.4444 365.405 75.4444C365.334 75.4444 365.266 75.4161 365.217 75.3657L363.518 73.6531C363.465 73.6016 363.436 73.5307 363.438 73.4572C363.439 73.3837 363.471 73.3141 363.526 73.2648C364.611 72.3481 366.199 72.3481 367.284 73.2648C367.339 73.3141 367.37 73.3837 367.372 73.4572Z" fill="#121212"/>
<rect opacity="0.35" x="376.729" y="66.5511" width="17.7871" height="8.75238" rx="1.83518" stroke="#121212" stroke-width="0.847005"/>
<path opacity="0.4" d="M395.785 69.2335V72.6215C396.467 72.3346 396.91 71.6671 396.91 70.9275C396.91 70.188 396.467 69.5205 395.785 69.2335Z" fill="#121212"/>
<rect x="378" y="67.8213" width="15.2461" height="6.21137" rx="1.12934" fill="#121212"/>
<rect x="100.011" y="97.0439" width="27.5566" height="27.5566" rx="13.7783" fill="white"/>
<rect x="100.36" y="97.3928" width="26.859" height="26.859" rx="13.4295" stroke="black" stroke-opacity="0.1" stroke-width="0.697635"/>
<path fill-rule="evenodd" clip-rule="evenodd" d="M116.222 105.542C116.442 105.73 116.467 106.06 116.279 106.279L112.385 110.822L116.279 115.365C116.467 115.585 116.442 115.915 116.222 116.103C116.003 116.291 115.673 116.266 115.485 116.046L111.299 111.163C111.131 110.967 111.131 110.678 111.299 110.482L115.485 105.598C115.673 105.379 116.003 105.353 116.222 105.542Z" fill="#1C274C"/>
<rect width="27.9054" height="27.9054" rx="13.9527" transform="matrix(-1 0 0 1 395.11 97.0439)" fill="white"/>
<rect x="-0.348818" y="0.348818" width="27.2078" height="27.2078" rx="13.6039" transform="matrix(-1 0 0 1 394.413 97.0439)" stroke="black" stroke-opacity="0.1" stroke-width="0.697635"/>
<path d="M377.669 110.997C377.669 111.767 377.045 112.392 376.274 112.392C375.504 112.392 374.879 111.767 374.879 110.997C374.879 110.226 375.504 109.601 376.274 109.601C377.045 109.601 377.669 110.226 377.669 110.997Z" fill="#1C274C"/>
<path d="M382.553 110.997C382.553 111.767 381.928 112.392 381.158 112.392C380.387 112.392 379.762 111.767 379.762 110.997C379.762 110.226 380.387 109.601 381.158 109.601C381.928 109.601 382.553 110.226 382.553 110.997Z" fill="#1C274C"/>
<path d="M387.436 110.997C387.436 111.767 386.812 112.392 386.041 112.392C385.27 112.392 384.646 111.767 384.646 110.997C384.646 110.226 385.27 109.601 386.041 109.601C386.812 109.601 387.436 110.226 387.436 110.997Z" fill="#1C274C"/>
</g>
<defs>
<filter id="filter0_b_256_2521" x="-10.4" y="-7.4" width="514.8" height="514.8" filterUnits="userSpaceOnUse" color-interpolation-filters="sRGB">
<feFlood flood-opacity="0" result="BackgroundImageFix"/>
<feGaussianBlur in="BackgroundImageFix" stdDeviation="18.2"/>
<feComposite in2="SourceAlpha" operator="in" result="effect1_backgroundBlur_256_2521"/>
<feBlend mode="normal" in="SourceGraphic" in2="effect1_backgroundBlur_256_2521" result="shape"/>
</filter>
<filter id="filter1_d_256_2521" x="189.55" y="269.921" width="117.415" height="57.5094" filterUnits="userSpaceOnUse" color-interpolation-filters="sRGB">
<feFlood flood-opacity="0" result="BackgroundImageFix"/>
<feColorMatrix in="SourceAlpha" type="matrix" values="0 0 0 0 0 0 0 0 0 0 0 0 0 0 0 0 0 0 127 0" result="hardAlpha"/>
<feOffset dy="2.79054"/>
<feGaussianBlur stdDeviation="7.53446"/>
<feComposite in2="hardAlpha" operator="out"/>
<feColorMatrix type="matrix" values="0 0 0 0 0 0 0 0 0 0 0 0 0 0 0 0 0 0 0.04 0"/>
<feBlend mode="normal" in2="BackgroundImageFix" result="effect1_dropShadow_256_2521"/>
<feBlend mode="normal" in="SourceGraphic" in2="effect1_dropShadow_256_2521" result="shape"/>
</filter>
<linearGradient id="paint0_linear_256_2521" x1="-28.5348" y1="-12.2706" x2="372.339" y2="486.571" gradientUnits="userSpaceOnUse">
<stop offset="0.111618" stop-color="#6E5DED"/>
<stop offset="0.486101" stop-color="#B18EED"/>
<stop offset="0.921954" stop-color="#CDB6D1"/>
</linearGradient>
<linearGradient id="paint1_linear_256_2521" x1="62.2931" y1="28.6485" x2="309.78" y2="587.01" gradientUnits="userSpaceOnUse">
<stop stop-color="#CDB6D1"/>
<stop offset="0.537437" stop-color="#B297E1"/>
<stop offset="1" stop-color="#C289FF"/>
</linearGradient>
<linearGradient id="paint2_linear_256_2521" x1="247" y1="29" x2="247" y2="471" gradientUnits="userSpaceOnUse">
<stop stop-color="white"/>
<stop offset="1" stop-color="#999999"/>
</linearGradient>
<linearGradient id="paint3_linear_256_2521" x1="247.909" y1="143.088" x2="247.909" y2="325.868" gradientUnits="userSpaceOnUse">
<stop stop-color="#DFC8FB"/>
<stop offset="1" stop-color="#DFC8FB"/>
</linearGradient>
<linearGradient id="paint4_linear_256_2521" x1="247.909" y1="129" x2="247.909" y2="341.081" gradientUnits="userSpaceOnUse">
<stop stop-color="#DFC8FB"/>
<stop offset="1" stop-color="#DFC8FB"/>
</linearGradient>
<linearGradient id="paint5_linear_256_2521" x1="247.909" y1="150.063" x2="247.909" y2="302.148" gradientUnits="userSpaceOnUse">
<stop stop-color="#DFC8FB"/>
<stop offset="1" stop-color="#DFC8FB"/>
</linearGradient>
<clipPath id="clip0_256_2521">
<path d="M73 68.8595C73 62.6081 73 59.4824 74.2166 57.0946C75.2868 54.9944 76.9944 53.2868 79.0946 52.2166C81.4824 51 84.6081 51 90.8595 51H404.141C410.392 51 413.518 51 415.905 52.2166C418.006 53.2868 419.713 54.9944 420.783 57.0946C422 59.4824 422 62.6081 422 68.8595V388H73V68.8595Z" fill="white"/>
</clipPath>
</defs>
</svg>
