<svg width="495" height="388" viewBox="0 0 495 388" fill="none" xmlns="http://www.w3.org/2000/svg">
<rect width="495" height="388" rx="16" fill="url(#paint0_linear_256_2848)"/>
<mask id="mask0_256_2848" style="mask-type:alpha" maskUnits="userSpaceOnUse" x="0" y="0" width="495" height="388">
<rect width="495" height="388" rx="16" fill="url(#paint1_linear_256_2848)"/>
</mask>
<g mask="url(#mask0_256_2848)">
<g filter="url(#filter0_b_256_2848)">
<circle cx="247" cy="250" r="221" fill="white" fill-opacity="0.12"/>
<circle cx="247" cy="250" r="220.5" stroke="url(#paint2_linear_256_2848)"/>
</g>
</g>
<g clip-path="url(#clip0_256_2848)">
<path d="M73 68.8595C73 62.6081 73 59.4824 74.2166 57.0946C75.2868 54.9944 76.9944 53.2868 79.0946 52.2166C81.4824 51 84.6081 51 90.8595 51H403.141C409.392 51 412.518 51 414.905 52.2166C417.006 53.2868 418.713 54.9944 419.783 57.0946C421 59.4824 421 62.6081 421 68.8595V388H73V68.8595Z" fill="white"/>
<path d="M113.6 129H103.016V111.648H113.6V113.808H105.368V119.232H112.784V121.32H105.368V126.816H113.6V129ZM118.88 129H116.624V117.264H118.664L118.904 119.064C119.648 117.72 121.136 116.928 122.792 116.928C125.888 116.928 127.304 118.824 127.304 121.824V129H125.048V122.328C125.048 119.952 123.944 118.992 122.216 118.992C120.104 118.992 118.88 120.504 118.88 122.784V129ZM129.685 122.832C129.685 119.52 131.821 116.928 135.229 116.928C137.125 116.928 138.589 117.792 139.333 119.256L139.501 117.264H141.517V128.52C141.517 132.216 139.237 134.568 135.637 134.568C132.445 134.568 130.261 132.768 129.829 129.792H132.085C132.373 131.52 133.669 132.528 135.637 132.528C137.845 132.528 139.285 131.088 139.285 128.856V126.504C138.517 127.872 136.981 128.688 135.133 128.688C131.797 128.688 129.685 126.12 129.685 122.832ZM131.941 122.784C131.941 124.992 133.309 126.72 135.517 126.72C137.797 126.72 139.189 125.088 139.189 122.784C139.189 120.528 137.845 118.896 135.541 118.896C133.285 118.896 131.941 120.624 131.941 122.784ZM148.205 129.288C145.685 129.288 144.197 127.872 144.197 125.736C144.197 123.576 145.805 122.232 148.565 122.016L152.261 121.728V121.392C152.261 119.424 151.085 118.728 149.501 118.728C147.605 118.728 146.525 119.568 146.525 120.984H144.557C144.557 118.536 146.573 116.928 149.597 116.928C152.501 116.928 154.469 118.464 154.469 121.632V129H152.549L152.309 127.104C151.709 128.448 150.101 129.288 148.205 129.288ZM148.853 127.536C150.989 127.536 152.285 126.144 152.285 123.936V123.312L149.285 123.552C147.293 123.744 146.477 124.512 146.477 125.664C146.477 126.912 147.389 127.536 148.853 127.536ZM156.849 122.832C156.849 119.52 158.985 116.928 162.393 116.928C164.289 116.928 165.753 117.792 166.497 119.256L166.665 117.264H168.681V128.52C168.681 132.216 166.401 134.568 162.801 134.568C159.609 134.568 157.425 132.768 156.993 129.792H159.249C159.537 131.52 160.833 132.528 162.801 132.528C165.009 132.528 166.449 131.088 166.449 128.856V126.504C165.681 127.872 164.145 128.688 162.297 128.688C158.961 128.688 156.849 126.12 156.849 122.832ZM159.105 122.784C159.105 124.992 160.473 126.72 162.681 126.72C164.961 126.72 166.353 125.088 166.353 122.784C166.353 120.528 165.009 118.896 162.705 118.896C160.449 118.896 159.105 120.624 159.105 122.784ZM177.001 129.288C173.545 129.288 171.169 126.792 171.169 123.144C171.169 119.472 173.497 116.928 176.905 116.928C180.241 116.928 182.425 119.232 182.425 122.712V123.552L173.353 123.576C173.521 126.048 174.817 127.416 177.049 127.416C178.801 127.416 179.953 126.696 180.337 125.352H182.449C181.873 127.872 179.905 129.288 177.001 129.288ZM176.905 118.824C174.937 118.824 173.689 120 173.401 122.064H180.169C180.169 120.12 178.897 118.824 176.905 118.824ZM194.027 129L190.187 117.264H192.515L194.459 123.36C194.723 124.224 194.963 125.112 195.179 126.144C195.371 125.112 195.683 124.128 195.947 123.36L197.915 117.264H200.219L202.163 123.36C202.355 123.936 202.739 125.304 202.931 126.144C203.123 125.208 203.339 124.392 203.675 123.36L205.643 117.264H207.995L203.987 129H201.851L199.811 122.712C199.427 121.536 199.187 120.624 199.067 119.976C198.947 120.552 198.731 121.32 198.299 122.736L196.259 129H194.027ZM211.033 114.48C210.217 114.48 209.545 113.808 209.545 112.992C209.545 112.152 210.217 111.504 211.033 111.504C211.849 111.504 212.521 112.152 212.521 112.992C212.521 113.808 211.849 114.48 211.033 114.48ZM209.929 129V117.264H212.185V129H209.929ZM218.772 129H216.516V119.16H214.212V117.264H216.516V113.592H218.772V117.264H221.076V119.16H218.772V129ZM225.357 128.976H223.101V111.336H225.357V119.064C226.101 117.792 227.517 116.928 229.341 116.928C232.341 116.928 233.781 118.824 233.781 121.824V129H231.525V122.328C231.525 119.952 230.397 118.992 228.717 118.992C226.533 118.992 225.357 120.576 225.357 122.592V128.976ZM246.9 129.288C244.38 129.288 242.892 127.872 242.892 125.736C242.892 123.576 244.5 122.232 247.26 122.016L250.956 121.728V121.392C250.956 119.424 249.78 118.728 248.196 118.728C246.3 118.728 245.22 119.568 245.22 120.984H243.252C243.252 118.536 245.268 116.928 248.292 116.928C251.196 116.928 253.164 118.464 253.164 121.632V129H251.244L251.004 127.104C250.404 128.448 248.796 129.288 246.9 129.288ZM247.548 127.536C249.684 127.536 250.98 126.144 250.98 123.936V123.312L247.98 123.552C245.988 123.744 245.172 124.512 245.172 125.664C245.172 126.912 246.084 127.536 247.548 127.536ZM262.107 122.832C262.107 119.52 264.243 116.928 267.651 116.928C269.547 116.928 271.011 117.792 271.755 119.256L271.923 117.264H273.939V128.52C273.939 132.216 271.659 134.568 268.059 134.568C264.867 134.568 262.683 132.768 262.251 129.792H264.507C264.795 131.52 266.091 132.528 268.059 132.528C270.267 132.528 271.707 131.088 271.707 128.856V126.504C270.939 127.872 269.403 128.688 267.555 128.688C264.219 128.688 262.107 126.12 262.107 122.832ZM264.363 122.784C264.363 124.992 265.731 126.72 267.939 126.72C270.219 126.72 271.611 125.088 271.611 122.784C271.611 120.528 270.267 118.896 267.963 118.896C265.707 118.896 264.363 120.624 264.363 122.784ZM279.499 129H277.243V111.336H279.499V129ZM282.052 123.12C282.052 119.496 284.644 116.952 288.172 116.952C291.676 116.952 294.268 119.496 294.268 123.12C294.268 126.744 291.676 129.288 288.172 129.288C284.644 129.288 282.052 126.744 282.052 123.12ZM284.332 123.12C284.332 125.568 285.892 127.272 288.172 127.272C290.428 127.272 292.012 125.568 292.012 123.12C292.012 120.672 290.428 118.968 288.172 118.968C285.892 118.968 284.332 120.672 284.332 123.12ZM298.805 129H296.765V111.336H299.021V119.28C299.789 117.744 301.373 116.928 303.293 116.928C306.653 116.928 308.669 119.568 308.669 123.192C308.669 126.744 306.557 129.288 303.149 129.288C301.301 129.288 299.741 128.472 298.973 126.864L298.805 129ZM299.045 123.096C299.045 125.544 300.437 127.248 302.741 127.248C305.045 127.248 306.413 125.52 306.413 123.096C306.413 120.696 305.045 118.968 302.741 118.968C300.437 118.968 299.045 120.696 299.045 123.096ZM314.587 129.288C312.067 129.288 310.579 127.872 310.579 125.736C310.579 123.576 312.187 122.232 314.947 122.016L318.643 121.728V121.392C318.643 119.424 317.467 118.728 315.883 118.728C313.987 118.728 312.907 119.568 312.907 120.984H310.939C310.939 118.536 312.955 116.928 315.979 116.928C318.883 116.928 320.851 118.464 320.851 121.632V129H318.931L318.691 127.104C318.091 128.448 316.483 129.288 314.587 129.288ZM315.235 127.536C317.371 127.536 318.667 126.144 318.667 123.936V123.312L315.667 123.552C313.675 123.744 312.859 124.512 312.859 125.664C312.859 126.912 313.771 127.536 315.235 127.536ZM326.28 129H324.024V111.336H326.28V129ZM106.064 161.288C103.544 161.288 102.056 159.872 102.056 157.736C102.056 155.576 103.664 154.232 106.424 154.016L110.12 153.728V153.392C110.12 151.424 108.944 150.728 107.36 150.728C105.464 150.728 104.384 151.568 104.384 152.984H102.416C102.416 150.536 104.432 148.928 107.456 148.928C110.36 148.928 112.328 150.464 112.328 153.632V161H110.408L110.168 159.104C109.568 160.448 107.96 161.288 106.064 161.288ZM106.712 159.536C108.848 159.536 110.144 158.144 110.144 155.936V155.312L107.144 155.552C105.152 155.744 104.336 156.512 104.336 157.664C104.336 158.912 105.248 159.536 106.712 159.536ZM123.564 149.264H125.796V161H123.78L123.54 159.224C122.868 160.448 121.308 161.288 119.58 161.288C116.844 161.288 115.308 159.44 115.308 156.56V149.264H117.564V155.816C117.564 158.336 118.644 159.296 120.372 159.296C122.436 159.296 123.564 157.976 123.564 155.456V149.264ZM133.539 161.288C130.131 161.288 128.067 158.744 128.067 155.168C128.067 151.568 130.155 148.928 133.635 148.928C135.435 148.928 136.947 149.72 137.739 151.16V143.336H139.971V161H137.955L137.763 158.864C136.995 160.472 135.411 161.288 133.539 161.288ZM133.995 159.248C136.299 159.248 137.715 157.544 137.715 155.096C137.715 152.696 136.299 150.968 133.995 150.968C131.691 150.968 130.347 152.696 130.347 155.096C130.347 157.52 131.691 159.248 133.995 159.248ZM144.33 146.48C143.514 146.48 142.842 145.808 142.842 144.992C142.842 144.152 143.514 143.504 144.33 143.504C145.146 143.504 145.818 144.152 145.818 144.992C145.818 145.808 145.146 146.48 144.33 146.48ZM143.226 161V149.264H145.482V161H143.226ZM153.821 161.288C150.365 161.288 147.989 158.792 147.989 155.144C147.989 151.472 150.317 148.928 153.725 148.928C157.061 148.928 159.245 151.232 159.245 154.712V155.552L150.173 155.576C150.341 158.048 151.637 159.416 153.869 159.416C155.621 159.416 156.773 158.696 157.157 157.352H159.269C158.693 159.872 156.725 161.288 153.821 161.288ZM153.725 150.824C151.757 150.824 150.509 152 150.221 154.064H156.989C156.989 152.12 155.717 150.824 153.725 150.824ZM164.021 161H161.765V149.264H163.805L164.045 151.064C164.789 149.72 166.277 148.928 167.933 148.928C171.029 148.928 172.445 150.824 172.445 153.824V161H170.189V154.328C170.189 151.952 169.085 150.992 167.357 150.992C165.245 150.992 164.021 152.504 164.021 154.784V161ZM174.802 155.144C174.802 151.472 177.13 148.928 180.562 148.928C183.514 148.928 185.578 150.608 185.986 153.224H183.73C183.346 151.736 182.146 150.944 180.634 150.944C178.498 150.944 177.034 152.576 177.034 155.12C177.034 157.64 178.402 159.272 180.538 159.272C182.146 159.272 183.346 158.432 183.754 157.04H186.01C185.554 159.584 183.37 161.288 180.538 161.288C177.082 161.288 174.802 158.84 174.802 155.144ZM193.454 161.288C189.998 161.288 187.622 158.792 187.622 155.144C187.622 151.472 189.95 148.928 193.358 148.928C196.694 148.928 198.878 151.232 198.878 154.712V155.552L189.806 155.576C189.974 158.048 191.27 159.416 193.502 159.416C195.254 159.416 196.406 158.696 196.79 157.352H198.902C198.326 159.872 196.358 161.288 193.454 161.288ZM193.358 150.824C191.39 150.824 190.142 152 189.854 154.064H196.622C196.622 152.12 195.35 150.824 193.358 150.824ZM210 161H207.96V143.336H210.216V151.28C210.984 149.744 212.568 148.928 214.488 148.928C217.848 148.928 219.864 151.568 219.864 155.192C219.864 158.744 217.752 161.288 214.344 161.288C212.496 161.288 210.936 160.472 210.168 158.864L210 161ZM210.24 155.096C210.24 157.544 211.632 159.248 213.936 159.248C216.24 159.248 217.608 157.52 217.608 155.096C217.608 152.696 216.24 150.968 213.936 150.968C211.632 150.968 210.24 152.696 210.24 155.096ZM220.824 166.256V164.408H222.336C223.416 164.408 224.28 164.24 224.832 162.752L225.24 161.624L220.512 149.264H222.888L226.296 158.72L229.776 149.264H232.104L226.56 163.64C225.768 165.656 224.592 166.496 222.792 166.496C222.048 166.496 221.424 166.4 220.824 166.256ZM239.7 155.12C239.7 151.496 242.292 148.952 245.82 148.952C249.324 148.952 251.916 151.496 251.916 155.12C251.916 158.744 249.324 161.288 245.82 161.288C242.292 161.288 239.7 158.744 239.7 155.12ZM241.98 155.12C241.98 157.568 243.54 159.272 245.82 159.272C248.076 159.272 249.66 157.568 249.66 155.12C249.66 152.672 248.076 150.968 245.82 150.968C243.54 150.968 241.98 152.672 241.98 155.12ZM253.095 149.264H254.823V147.392C254.823 144.512 256.383 143.336 258.543 143.336C258.975 143.336 259.479 143.36 259.911 143.432V145.376H258.903C257.439 145.376 257.079 146.12 257.079 147.392V149.264H262.287V147.392C262.287 144.512 263.847 143.336 265.983 143.336C266.415 143.336 266.943 143.36 267.375 143.432V145.376H266.367C264.903 145.376 264.519 146.12 264.519 147.392V149.264H267.303V151.16H264.519V161H262.287V151.16H257.079V161H254.823V151.16H253.095V149.264ZM274.102 161.288C270.646 161.288 268.27 158.792 268.27 155.144C268.27 151.472 270.598 148.928 274.006 148.928C277.342 148.928 279.526 151.232 279.526 154.712V155.552L270.454 155.576C270.622 158.048 271.918 159.416 274.15 159.416C275.902 159.416 277.054 158.696 277.438 157.352H279.55C278.974 159.872 277.006 161.288 274.102 161.288ZM274.006 150.824C272.038 150.824 270.79 152 270.502 154.064H277.27C277.27 152.12 275.998 150.824 274.006 150.824ZM288.766 149.168V151.232H287.758C285.622 151.232 284.302 152.528 284.302 154.784V161H282.046V149.288H284.158L284.302 151.064C284.782 149.84 285.958 149.024 287.566 149.024C287.974 149.024 288.31 149.072 288.766 149.168ZM291.986 146.48C291.17 146.48 290.498 145.808 290.498 144.992C290.498 144.152 291.17 143.504 291.986 143.504C292.802 143.504 293.474 144.152 293.474 144.992C293.474 145.808 292.802 146.48 291.986 146.48ZM290.882 161V149.264H293.138V161H290.882ZM298.669 161H296.413V149.264H298.453L298.693 151.064C299.437 149.72 300.925 148.928 302.581 148.928C305.677 148.928 307.093 150.824 307.093 153.824V161H304.837V154.328C304.837 151.952 303.733 150.992 302.005 150.992C299.893 150.992 298.669 152.504 298.669 154.784V161ZM309.474 154.832C309.474 151.52 311.61 148.928 315.018 148.928C316.914 148.928 318.378 149.792 319.122 151.256L319.29 149.264H321.306V160.52C321.306 164.216 319.026 166.568 315.426 166.568C312.234 166.568 310.05 164.768 309.618 161.792H311.874C312.162 163.52 313.458 164.528 315.426 164.528C317.634 164.528 319.074 163.088 319.074 160.856V158.504C318.306 159.872 316.77 160.688 314.922 160.688C311.586 160.688 309.474 158.12 309.474 154.832ZM311.73 154.784C311.73 156.992 313.098 158.72 315.306 158.72C317.586 158.72 318.978 157.088 318.978 154.784C318.978 152.528 317.634 150.896 315.33 150.896C313.074 150.896 311.73 152.624 311.73 154.784ZM334.412 161L329.684 149.264H332.084L334.652 155.816C335.06 156.92 335.396 157.904 335.588 158.624C335.78 157.856 336.164 156.848 336.572 155.816L339.188 149.264H341.54L336.644 161H334.412ZM342.028 155.12C342.028 151.496 344.62 148.952 348.148 148.952C351.652 148.952 354.244 151.496 354.244 155.12C354.244 158.744 351.652 161.288 348.148 161.288C344.62 161.288 342.028 158.744 342.028 155.12ZM344.308 155.12C344.308 157.568 345.868 159.272 348.148 159.272C350.404 159.272 351.988 157.568 351.988 155.12C351.988 152.672 350.404 150.968 348.148 150.968C345.868 150.968 344.308 152.672 344.308 155.12ZM357.845 146.48C357.029 146.48 356.357 145.808 356.357 144.992C356.357 144.152 357.029 143.504 357.845 143.504C358.661 143.504 359.333 144.152 359.333 144.992C359.333 145.808 358.661 146.48 357.845 146.48ZM356.741 161V149.264H358.997V161H356.741ZM361.505 155.144C361.505 151.472 363.833 148.928 367.265 148.928C370.217 148.928 372.281 150.608 372.689 153.224H370.433C370.049 151.736 368.849 150.944 367.337 150.944C365.201 150.944 363.737 152.576 363.737 155.12C363.737 157.64 365.105 159.272 367.241 159.272C368.849 159.272 370.049 158.432 370.457 157.04H372.713C372.257 159.584 370.073 161.288 367.241 161.288C363.785 161.288 361.505 158.84 361.505 155.144ZM380.157 161.288C376.701 161.288 374.325 158.792 374.325 155.144C374.325 151.472 376.653 148.928 380.061 148.928C383.397 148.928 385.581 151.232 385.581 154.712V155.552L376.509 155.576C376.677 158.048 377.973 159.416 380.205 159.416C381.957 159.416 383.109 158.696 383.493 157.352H385.605C385.029 159.872 383.061 161.288 380.157 161.288ZM380.061 150.824C378.093 150.824 376.845 152 376.557 154.064H383.325C383.325 152.12 382.053 150.824 380.061 150.824ZM103.736 178.48C102.92 178.48 102.248 177.808 102.248 176.992C102.248 176.152 102.92 175.504 103.736 175.504C104.552 175.504 105.224 176.152 105.224 176.992C105.224 177.808 104.552 178.48 103.736 178.48ZM102.632 193V181.264H104.888V193H102.632ZM110.419 193H108.163V181.264H110.203L110.443 183.064C111.187 181.72 112.675 180.928 114.331 180.928C117.427 180.928 118.843 182.824 118.843 185.824V193H116.587V186.328C116.587 183.952 115.483 182.992 113.755 182.992C111.643 182.992 110.419 184.504 110.419 186.784V193ZM125.28 193H123.024V183.16H120.72V181.264H123.024V177.592H125.28V181.264H127.584V183.16H125.28V193ZM134.555 193.288C131.099 193.288 128.723 190.792 128.723 187.144C128.723 183.472 131.051 180.928 134.459 180.928C137.795 180.928 139.979 183.232 139.979 186.712V187.552L130.907 187.576C131.075 190.048 132.371 191.416 134.603 191.416C136.355 191.416 137.507 190.696 137.891 189.352H140.003C139.427 191.872 137.459 193.288 134.555 193.288ZM134.459 182.824C132.491 182.824 131.243 184 130.955 186.064H137.723C137.723 184.12 136.451 182.824 134.459 182.824ZM149.219 181.168V183.232H148.211C146.075 183.232 144.755 184.528 144.755 186.784V193H142.499V181.288H144.611L144.755 183.064C145.235 181.84 146.411 181.024 148.019 181.024C148.427 181.024 148.763 181.072 149.219 181.168ZM154.298 193.288C151.778 193.288 150.29 191.872 150.29 189.736C150.29 187.576 151.898 186.232 154.658 186.016L158.354 185.728V185.392C158.354 183.424 157.178 182.728 155.594 182.728C153.698 182.728 152.618 183.568 152.618 184.984H150.65C150.65 182.536 152.666 180.928 155.69 180.928C158.594 180.928 160.562 182.464 160.562 185.632V193H158.642L158.402 191.104C157.802 192.448 156.194 193.288 154.298 193.288ZM154.946 191.536C157.082 191.536 158.378 190.144 158.378 187.936V187.312L155.378 187.552C153.386 187.744 152.57 188.512 152.57 189.664C152.57 190.912 153.482 191.536 154.946 191.536ZM162.919 187.144C162.919 183.472 165.247 180.928 168.679 180.928C171.631 180.928 173.695 182.608 174.103 185.224H171.847C171.463 183.736 170.263 182.944 168.751 182.944C166.615 182.944 165.151 184.576 165.151 187.12C165.151 189.64 166.519 191.272 168.655 191.272C170.263 191.272 171.463 190.432 171.871 189.04H174.127C173.671 191.584 171.487 193.288 168.655 193.288C165.199 193.288 162.919 190.84 162.919 187.144ZM179.819 193H177.563V183.16H175.259V181.264H177.563V177.592H179.819V181.264H182.123V183.16H179.819V193ZM185.252 178.48C184.436 178.48 183.764 177.808 183.764 176.992C183.764 176.152 184.436 175.504 185.252 175.504C186.068 175.504 186.74 176.152 186.74 176.992C186.74 177.808 186.068 178.48 185.252 178.48ZM184.148 193V181.264H186.404V193H184.148ZM188.911 187.12C188.911 183.496 191.503 180.952 195.031 180.952C198.535 180.952 201.127 183.496 201.127 187.12C201.127 190.744 198.535 193.288 195.031 193.288C191.503 193.288 188.911 190.744 188.911 187.12ZM191.191 187.12C191.191 189.568 192.751 191.272 195.031 191.272C197.287 191.272 198.871 189.568 198.871 187.12C198.871 184.672 197.287 182.968 195.031 182.968C192.751 182.968 191.191 184.672 191.191 187.12ZM205.88 193H203.624V181.264H205.664L205.904 183.064C206.648 181.72 208.136 180.928 209.792 180.928C212.888 180.928 214.304 182.824 214.304 185.824V193H212.048V186.328C212.048 183.952 210.944 182.992 209.216 182.992C207.104 182.992 205.88 184.504 205.88 186.784V193ZM216.328 189.592H218.488C218.488 190.792 219.4 191.512 220.888 191.512C222.472 191.512 223.384 190.864 223.384 189.784C223.384 188.992 223 188.512 221.776 188.2L219.712 187.72C217.624 187.216 216.64 186.184 216.64 184.456C216.64 182.296 218.464 180.928 221.056 180.928C223.624 180.928 225.304 182.368 225.352 184.6H223.192C223.144 183.424 222.352 182.68 220.984 182.68C219.568 182.68 218.776 183.304 218.776 184.384C218.776 185.176 219.352 185.704 220.504 185.992L222.568 186.496C224.56 186.976 225.544 187.888 225.544 189.64C225.544 191.872 223.624 193.288 220.84 193.288C218.08 193.288 216.328 191.824 216.328 189.592Z" fill="#C7AFD4"/>
<path d="M103.736 215.48C102.92 215.48 102.248 214.808 102.248 213.992C102.248 213.152 102.92 212.504 103.736 212.504C104.552 212.504 105.224 213.152 105.224 213.992C105.224 214.808 104.552 215.48 103.736 215.48ZM102.632 230V218.264H104.888V230H102.632ZM110.419 230H108.163V218.264H110.203L110.443 220.064C111.187 218.72 112.675 217.928 114.331 217.928C117.427 217.928 118.843 219.824 118.843 222.824V230H116.587V223.328C116.587 220.952 115.483 219.992 113.755 219.992C111.643 219.992 110.419 221.504 110.419 223.784V230ZM130.786 230H128.53V218.264H130.546L130.762 219.8C131.362 218.696 132.61 217.928 134.266 217.928C136.09 217.928 137.386 218.84 137.986 220.304C138.538 218.84 139.954 217.928 141.778 217.928C144.466 217.928 146.098 219.608 146.098 222.32V230H143.89V222.872C143.89 221.024 142.858 219.968 141.274 219.968C139.57 219.968 138.442 221.168 138.442 223.04V230H136.21V222.848C136.21 221 135.202 219.992 133.618 219.992C131.914 219.992 130.786 221.168 130.786 223.04V230ZM157.338 218.264H159.57V230H157.554L157.314 228.224C156.642 229.448 155.082 230.288 153.354 230.288C150.618 230.288 149.082 228.44 149.082 225.56V218.264H151.338V224.816C151.338 227.336 152.418 228.296 154.146 228.296C156.21 228.296 157.338 226.976 157.338 224.456V218.264ZM165.147 230H162.891V212.336H165.147V230ZM171.78 230H169.524V220.16H167.22V218.264H169.524V214.592H171.78V218.264H174.084V220.16H171.78V230ZM177.213 215.48C176.397 215.48 175.725 214.808 175.725 213.992C175.725 213.152 176.397 212.504 177.213 212.504C178.029 212.504 178.701 213.152 178.701 213.992C178.701 214.808 178.029 215.48 177.213 215.48ZM176.109 230V218.264H178.365V230H176.109ZM181.64 235.256V218.264H183.68L183.848 220.376C184.64 218.768 186.224 217.928 188.096 217.928C191.456 217.928 193.544 220.448 193.544 224.048C193.544 227.624 191.576 230.312 188.096 230.312C186.224 230.312 184.664 229.52 183.896 228.08V235.256H181.64ZM183.92 224.144C183.92 226.544 185.312 228.272 187.616 228.272C189.92 228.272 191.288 226.544 191.288 224.144C191.288 221.72 189.92 219.992 187.616 219.992C185.312 219.992 183.92 221.696 183.92 224.144ZM198.334 230H196.078V212.336H198.334V230ZM206.719 230.288C203.263 230.288 200.887 227.792 200.887 224.144C200.887 220.472 203.215 217.928 206.623 217.928C209.959 217.928 212.143 220.232 212.143 223.712V224.552L203.071 224.576C203.239 227.048 204.535 228.416 206.767 228.416C208.519 228.416 209.671 227.696 210.055 226.352H212.167C211.591 228.872 209.623 230.288 206.719 230.288ZM206.623 219.824C204.655 219.824 203.407 221 203.119 223.064H209.887C209.887 221.12 208.615 219.824 206.623 219.824ZM223.53 230H221.274V212.336H223.53V230ZM230.283 230.288C227.763 230.288 226.275 228.872 226.275 226.736C226.275 224.576 227.883 223.232 230.643 223.016L234.339 222.728V222.392C234.339 220.424 233.163 219.728 231.579 219.728C229.683 219.728 228.603 220.568 228.603 221.984H226.635C226.635 219.536 228.651 217.928 231.675 217.928C234.579 217.928 236.547 219.464 236.547 222.632V230H234.627L234.387 228.104C233.787 229.448 232.179 230.288 230.283 230.288ZM230.931 228.536C233.067 228.536 234.363 227.144 234.363 224.936V224.312L231.363 224.552C229.371 224.744 228.555 225.512 228.555 226.664C228.555 227.912 229.467 228.536 230.931 228.536ZM241.927 230H239.671V218.264H241.711L241.951 220.064C242.695 218.72 244.183 217.928 245.839 217.928C248.935 217.928 250.351 219.824 250.351 222.824V230H248.095V223.328C248.095 220.952 246.991 219.992 245.263 219.992C243.151 219.992 241.927 221.504 241.927 223.784V230ZM252.732 223.832C252.732 220.52 254.868 217.928 258.276 217.928C260.172 217.928 261.636 218.792 262.38 220.256L262.548 218.264H264.564V229.52C264.564 233.216 262.284 235.568 258.684 235.568C255.492 235.568 253.308 233.768 252.876 230.792H255.132C255.42 232.52 256.716 233.528 258.684 233.528C260.892 233.528 262.332 232.088 262.332 229.856V227.504C261.564 228.872 260.028 229.688 258.18 229.688C254.844 229.688 252.732 227.12 252.732 223.832ZM254.988 223.784C254.988 225.992 256.356 227.72 258.564 227.72C260.844 227.72 262.236 226.088 262.236 223.784C262.236 221.528 260.892 219.896 258.588 219.896C256.332 219.896 254.988 221.624 254.988 223.784ZM275.932 218.264H278.164V230H276.148L275.908 228.224C275.236 229.448 273.676 230.288 271.948 230.288C269.212 230.288 267.676 228.44 267.676 225.56V218.264H269.932V224.816C269.932 227.336 271.012 228.296 272.74 228.296C274.804 228.296 275.932 226.976 275.932 224.456V218.264ZM284.869 230.288C282.349 230.288 280.861 228.872 280.861 226.736C280.861 224.576 282.469 223.232 285.229 223.016L288.925 222.728V222.392C288.925 220.424 287.749 219.728 286.165 219.728C284.269 219.728 283.189 220.568 283.189 221.984H281.221C281.221 219.536 283.237 217.928 286.261 217.928C289.165 217.928 291.133 219.464 291.133 222.632V230H289.213L288.973 228.104C288.373 229.448 286.765 230.288 284.869 230.288ZM285.517 228.536C287.653 228.536 288.949 227.144 288.949 224.936V224.312L285.949 224.552C283.957 224.744 283.141 225.512 283.141 226.664C283.141 227.912 284.053 228.536 285.517 228.536ZM293.513 223.832C293.513 220.52 295.649 217.928 299.057 217.928C300.953 217.928 302.417 218.792 303.161 220.256L303.329 218.264H305.345V229.52C305.345 233.216 303.065 235.568 299.465 235.568C296.273 235.568 294.089 233.768 293.657 230.792H295.913C296.201 232.52 297.497 233.528 299.465 233.528C301.673 233.528 303.113 232.088 303.113 229.856V227.504C302.345 228.872 300.809 229.688 298.961 229.688C295.625 229.688 293.513 227.12 293.513 223.832ZM295.769 223.784C295.769 225.992 297.137 227.72 299.345 227.72C301.625 227.72 303.017 226.088 303.017 223.784C303.017 221.528 301.673 219.896 299.369 219.896C297.113 219.896 295.769 221.624 295.769 223.784ZM313.665 230.288C310.209 230.288 307.833 227.792 307.833 224.144C307.833 220.472 310.161 217.928 313.569 217.928C316.905 217.928 319.089 220.232 319.089 223.712V224.552L310.017 224.576C310.185 227.048 311.481 228.416 313.713 228.416C315.465 228.416 316.617 227.696 317.001 226.352H319.113C318.537 228.872 316.569 230.288 313.665 230.288ZM313.569 219.824C311.601 219.824 310.353 221 310.065 223.064H316.833C316.833 221.12 315.561 219.824 313.569 219.824ZM320.649 226.592H322.809C322.809 227.792 323.721 228.512 325.209 228.512C326.793 228.512 327.705 227.864 327.705 226.784C327.705 225.992 327.321 225.512 326.097 225.2L324.033 224.72C321.945 224.216 320.961 223.184 320.961 221.456C320.961 219.296 322.785 217.928 325.377 217.928C327.945 217.928 329.625 219.368 329.673 221.6H327.513C327.465 220.424 326.673 219.68 325.305 219.68C323.889 219.68 323.097 220.304 323.097 221.384C323.097 222.176 323.673 222.704 324.825 222.992L326.889 223.496C328.881 223.976 329.865 224.888 329.865 226.64C329.865 228.872 327.945 230.288 325.161 230.288C322.401 230.288 320.649 228.824 320.649 226.592ZM335.61 229.064C335.61 230.792 334.314 232.232 332.61 232.448V231.44C333.594 231.272 334.29 230.624 334.29 229.88C334.122 229.976 333.93 230.024 333.642 230.024C332.85 230.024 332.178 229.448 332.178 228.56C332.178 227.6 332.826 226.904 333.786 226.904C334.794 226.904 335.61 227.744 335.61 229.064ZM101.864 256.144C101.864 252.472 104.192 249.928 107.624 249.928C110.576 249.928 112.64 251.608 113.048 254.224H110.792C110.408 252.736 109.208 251.944 107.696 251.944C105.56 251.944 104.096 253.576 104.096 256.12C104.096 258.64 105.464 260.272 107.6 260.272C109.208 260.272 110.408 259.432 110.816 258.04H113.072C112.616 260.584 110.432 262.288 107.6 262.288C104.144 262.288 101.864 259.84 101.864 256.144ZM118.884 262.288C116.364 262.288 114.876 260.872 114.876 258.736C114.876 256.576 116.484 255.232 119.244 255.016L122.94 254.728V254.392C122.94 252.424 121.764 251.728 120.18 251.728C118.284 251.728 117.204 252.568 117.204 253.984H115.236C115.236 251.536 117.252 249.928 120.276 249.928C123.18 249.928 125.148 251.464 125.148 254.632V262H123.228L122.988 260.104C122.388 261.448 120.78 262.288 118.884 262.288ZM119.532 260.536C121.668 260.536 122.964 259.144 122.964 256.936V256.312L119.964 256.552C117.972 256.744 117.156 257.512 117.156 258.664C117.156 259.912 118.068 260.536 119.532 260.536ZM131.397 262H129.141V252.16H126.837V250.264H129.141V246.592H131.397V250.264H133.701V252.16H131.397V262ZM140.673 262.288C137.217 262.288 134.841 259.792 134.841 256.144C134.841 252.472 137.169 249.928 140.577 249.928C143.913 249.928 146.097 252.232 146.097 255.712V256.552L137.025 256.576C137.193 259.048 138.489 260.416 140.721 260.416C142.473 260.416 143.625 259.696 144.009 258.352H146.121C145.545 260.872 143.577 262.288 140.673 262.288ZM140.577 251.824C138.609 251.824 137.361 253 137.073 255.064H143.841C143.841 253.12 142.569 251.824 140.577 251.824ZM155.336 250.168V252.232H154.328C152.192 252.232 150.872 253.528 150.872 255.784V262H148.616V250.288H150.728L150.872 252.064C151.352 250.84 152.528 250.024 154.136 250.024C154.544 250.024 154.88 250.072 155.336 250.168ZM158.556 247.48C157.74 247.48 157.068 246.808 157.068 245.992C157.068 245.152 157.74 244.504 158.556 244.504C159.372 244.504 160.044 245.152 160.044 245.992C160.044 246.808 159.372 247.48 158.556 247.48ZM157.452 262V250.264H159.708V262H157.452ZM165.24 262H162.984V250.264H165.024L165.264 252.064C166.008 250.72 167.496 249.928 169.152 249.928C172.248 249.928 173.664 251.824 173.664 254.824V262H171.408V255.328C171.408 252.952 170.304 251.992 168.576 251.992C166.464 251.992 165.24 253.504 165.24 255.784V262ZM176.044 255.832C176.044 252.52 178.18 249.928 181.588 249.928C183.484 249.928 184.948 250.792 185.692 252.256L185.86 250.264H187.876V261.52C187.876 265.216 185.596 267.568 181.996 267.568C178.804 267.568 176.62 265.768 176.188 262.792H178.444C178.732 264.52 180.028 265.528 181.996 265.528C184.204 265.528 185.644 264.088 185.644 261.856V259.504C184.876 260.872 183.34 261.688 181.492 261.688C178.156 261.688 176.044 259.12 176.044 255.832ZM178.3 255.784C178.3 257.992 179.668 259.72 181.876 259.72C184.156 259.72 185.548 258.088 185.548 255.784C185.548 253.528 184.204 251.896 181.9 251.896C179.644 251.896 178.3 253.624 178.3 255.784ZM201.007 262H198.751V252.16H196.447V250.264H198.751V246.592H201.007V250.264H203.311V252.16H201.007V262ZM204.45 256.12C204.45 252.496 207.042 249.952 210.57 249.952C214.074 249.952 216.666 252.496 216.666 256.12C216.666 259.744 214.074 262.288 210.57 262.288C207.042 262.288 204.45 259.744 204.45 256.12ZM206.73 256.12C206.73 258.568 208.29 260.272 210.57 260.272C212.826 260.272 214.41 258.568 214.41 256.12C214.41 253.672 212.826 251.968 210.57 251.968C208.29 251.968 206.73 253.672 206.73 256.12ZM230.43 262.288C227.022 262.288 224.958 259.744 224.958 256.168C224.958 252.568 227.046 249.928 230.526 249.928C232.326 249.928 233.838 250.72 234.63 252.16V244.336H236.862V262H234.846L234.654 259.864C233.886 261.472 232.302 262.288 230.43 262.288ZM230.886 260.248C233.19 260.248 234.606 258.544 234.606 256.096C234.606 253.696 233.19 251.968 230.886 251.968C228.582 251.968 227.238 253.696 227.238 256.096C227.238 258.52 228.582 260.248 230.886 260.248ZM241.22 247.48C240.404 247.48 239.732 246.808 239.732 245.992C239.732 245.152 240.404 244.504 241.22 244.504C242.036 244.504 242.708 245.152 242.708 245.992C242.708 246.808 242.036 247.48 241.22 247.48ZM240.116 262V250.264H242.372V262H240.116ZM248.936 262L244.208 250.264H246.608L249.176 256.816C249.584 257.92 249.92 258.904 250.112 259.624C250.304 258.856 250.688 257.848 251.096 256.816L253.712 250.264H256.064L251.168 262H248.936ZM262.384 262.288C258.928 262.288 256.552 259.792 256.552 256.144C256.552 252.472 258.88 249.928 262.288 249.928C265.624 249.928 267.807 252.232 267.807 255.712V256.552L258.736 256.576C258.904 259.048 260.2 260.416 262.432 260.416C264.184 260.416 265.336 259.696 265.72 258.352H267.832C267.256 260.872 265.288 262.288 262.384 262.288ZM262.288 251.824C260.32 251.824 259.072 253 258.784 255.064H265.552C265.552 253.12 264.28 251.824 262.288 251.824ZM277.047 250.168V252.232H276.039C273.903 252.232 272.583 253.528 272.583 255.784V262H270.327V250.288H272.439L272.583 252.064C273.063 250.84 274.239 250.024 275.847 250.024C276.255 250.024 276.591 250.072 277.047 250.168ZM278.203 258.592H280.363C280.363 259.792 281.275 260.512 282.763 260.512C284.347 260.512 285.259 259.864 285.259 258.784C285.259 257.992 284.875 257.512 283.651 257.2L281.587 256.72C279.499 256.216 278.515 255.184 278.515 253.456C278.515 251.296 280.339 249.928 282.931 249.928C285.499 249.928 287.179 251.368 287.227 253.6H285.067C285.019 252.424 284.227 251.68 282.859 251.68C281.443 251.68 280.651 252.304 280.651 253.384C280.651 254.176 281.227 254.704 282.379 254.992L284.443 255.496C286.435 255.976 287.419 256.888 287.419 258.64C287.419 260.872 285.499 262.288 282.715 262.288C279.955 262.288 278.203 260.824 278.203 258.592ZM294.985 262.288C291.529 262.288 289.153 259.792 289.153 256.144C289.153 252.472 291.481 249.928 294.889 249.928C298.225 249.928 300.409 252.232 300.409 255.712V256.552L291.337 256.576C291.505 259.048 292.801 260.416 295.033 260.416C296.785 260.416 297.937 259.696 298.321 258.352H300.433C299.857 260.872 297.889 262.288 294.985 262.288ZM294.889 251.824C292.921 251.824 291.673 253 291.385 255.064H298.153C298.153 253.12 296.881 251.824 294.889 251.824ZM101.864 288.144C101.864 284.472 104.192 281.928 107.624 281.928C110.576 281.928 112.64 283.608 113.048 286.224H110.792C110.408 284.736 109.208 283.944 107.696 283.944C105.56 283.944 104.096 285.576 104.096 288.12C104.096 290.64 105.464 292.272 107.6 292.272C109.208 292.272 110.408 291.432 110.816 290.04H113.072C112.616 292.584 110.432 294.288 107.6 294.288C104.144 294.288 101.864 291.84 101.864 288.144ZM123.564 282.264H125.796V294H123.78L123.54 292.224C122.868 293.448 121.308 294.288 119.58 294.288C116.844 294.288 115.308 292.44 115.308 289.56V282.264H117.564V288.816C117.564 291.336 118.644 292.296 120.372 292.296C122.436 292.296 123.564 290.976 123.564 288.456V282.264ZM127.875 290.592H130.035C130.035 291.792 130.947 292.512 132.435 292.512C134.019 292.512 134.931 291.864 134.931 290.784C134.931 289.992 134.547 289.512 133.323 289.2L131.259 288.72C129.171 288.216 128.187 287.184 128.187 285.456C128.187 283.296 130.011 281.928 132.603 281.928C135.171 281.928 136.851 283.368 136.899 285.6H134.739C134.691 284.424 133.899 283.68 132.531 283.68C131.115 283.68 130.323 284.304 130.323 285.384C130.323 286.176 130.899 286.704 132.051 286.992L134.115 287.496C136.107 287.976 137.091 288.888 137.091 290.64C137.091 292.872 135.171 294.288 132.387 294.288C129.627 294.288 127.875 292.824 127.875 290.592ZM142.905 294H140.649V284.16H138.345V282.264H140.649V278.592H142.905V282.264H145.209V284.16H142.905V294ZM146.348 288.12C146.348 284.496 148.94 281.952 152.468 281.952C155.972 281.952 158.564 284.496 158.564 288.12C158.564 291.744 155.972 294.288 152.468 294.288C148.94 294.288 146.348 291.744 146.348 288.12ZM148.628 288.12C148.628 290.568 150.188 292.272 152.468 292.272C154.724 292.272 156.308 290.568 156.308 288.12C156.308 285.672 154.724 283.968 152.468 283.968C150.188 283.968 148.628 285.672 148.628 288.12ZM163.318 294H161.062V282.264H163.078L163.294 283.8C163.894 282.696 165.142 281.928 166.798 281.928C168.622 281.928 169.918 282.84 170.518 284.304C171.07 282.84 172.486 281.928 174.31 281.928C176.998 281.928 178.63 283.608 178.63 286.32V294H176.422V286.872C176.422 285.024 175.39 283.968 173.806 283.968C172.102 283.968 170.974 285.168 170.974 287.04V294H168.742V286.848C168.742 285 167.734 283.992 166.15 283.992C164.446 283.992 163.318 285.168 163.318 287.04V294ZM186.821 294.288C183.365 294.288 180.989 291.792 180.989 288.144C180.989 284.472 183.317 281.928 186.725 281.928C190.061 281.928 192.245 284.232 192.245 287.712V288.552L183.173 288.576C183.341 291.048 184.637 292.416 186.869 292.416C188.621 292.416 189.773 291.696 190.157 290.352H192.269C191.693 292.872 189.725 294.288 186.821 294.288ZM186.725 283.824C184.757 283.824 183.509 285 183.221 287.064H189.989C189.989 285.12 188.717 283.824 186.725 283.824ZM201.485 282.168V284.232H200.477C198.341 284.232 197.021 285.528 197.021 287.784V294H194.765V282.288H196.877L197.021 284.064C197.501 282.84 198.677 282.024 200.285 282.024C200.693 282.024 201.029 282.072 201.485 282.168ZM212.203 294H210.163V276.336H212.419V284.28C213.187 282.744 214.771 281.928 216.691 281.928C220.051 281.928 222.067 284.568 222.067 288.192C222.067 291.744 219.955 294.288 216.547 294.288C214.699 294.288 213.139 293.472 212.371 291.864L212.203 294ZM212.443 288.096C212.443 290.544 213.835 292.248 216.139 292.248C218.443 292.248 219.811 290.52 219.811 288.096C219.811 285.696 218.443 283.968 216.139 283.968C213.835 283.968 212.443 285.696 212.443 288.096ZM227.986 294.288C225.466 294.288 223.978 292.872 223.978 290.736C223.978 288.576 225.586 287.232 228.346 287.016L232.042 286.728V286.392C232.042 284.424 230.866 283.728 229.282 283.728C227.386 283.728 226.306 284.568 226.306 285.984H224.338C224.338 283.536 226.354 281.928 229.378 281.928C232.282 281.928 234.25 283.464 234.25 286.632V294H232.33L232.09 292.104C231.49 293.448 229.882 294.288 227.986 294.288ZM228.634 292.536C230.77 292.536 232.066 291.144 232.066 288.936V288.312L229.066 288.552C227.074 288.744 226.258 289.512 226.258 290.664C226.258 291.912 227.17 292.536 228.634 292.536ZM236.414 290.592H238.574C238.574 291.792 239.486 292.512 240.974 292.512C242.558 292.512 243.47 291.864 243.47 290.784C243.47 289.992 243.086 289.512 241.862 289.2L239.798 288.72C237.71 288.216 236.726 287.184 236.726 285.456C236.726 283.296 238.55 281.928 241.142 281.928C243.71 281.928 245.39 283.368 245.438 285.6H243.278C243.23 284.424 242.438 283.68 241.07 283.68C239.654 283.68 238.862 284.304 238.862 285.384C238.862 286.176 239.438 286.704 240.59 286.992L242.654 287.496C244.646 287.976 245.63 288.888 245.63 290.64C245.63 292.872 243.71 294.288 240.926 294.288C238.166 294.288 236.414 292.824 236.414 290.592ZM253.196 294.288C249.74 294.288 247.364 291.792 247.364 288.144C247.364 284.472 249.692 281.928 253.1 281.928C256.436 281.928 258.62 284.232 258.62 287.712V288.552L249.548 288.576C249.716 291.048 251.012 292.416 253.244 292.416C254.996 292.416 256.148 291.696 256.532 290.352H258.644C258.068 292.872 256.1 294.288 253.196 294.288ZM253.1 283.824C251.132 283.824 249.884 285 249.596 287.064H256.364C256.364 285.12 255.092 283.824 253.1 283.824ZM260.18 290.592H262.34C262.34 291.792 263.252 292.512 264.74 292.512C266.324 292.512 267.236 291.864 267.236 290.784C267.236 289.992 266.852 289.512 265.628 289.2L263.564 288.72C261.476 288.216 260.492 287.184 260.492 285.456C260.492 283.296 262.316 281.928 264.908 281.928C267.476 281.928 269.156 283.368 269.204 285.6H267.044C266.996 284.424 266.204 283.68 264.836 283.68C263.42 283.68 262.628 284.304 262.628 285.384C262.628 286.176 263.204 286.704 264.356 286.992L266.42 287.496C268.412 287.976 269.396 288.888 269.396 290.64C269.396 292.872 267.476 294.288 264.692 294.288C261.932 294.288 260.18 292.824 260.18 290.592ZM273.437 294.288C272.501 294.288 271.709 293.52 271.709 292.608C271.709 291.672 272.501 290.904 273.437 290.904C274.349 290.904 275.141 291.672 275.141 292.608C275.141 293.52 274.349 294.288 273.437 294.288Z" fill="#121212"/>
<path d="M101 373V404" stroke="#C7AFD4" stroke-width="4" stroke-linecap="round"/>
<path d="M113 358L113 404" stroke="#C7AFD4" stroke-width="4" stroke-linecap="round"/>
<path d="M125 373V404" stroke="#C7AFD4" stroke-width="4" stroke-linecap="round"/>
<path d="M137 339L137 404" stroke="#C7AFD4" stroke-width="4" stroke-linecap="round"/>
<path d="M149 358L149 404" stroke="#C7AFD4" stroke-width="4" stroke-linecap="round"/>
<path d="M161 381L161 404" stroke="#C7AFD4" stroke-width="4" stroke-linecap="round"/>
<path d="M185 373V404" stroke="#C7AFD4" stroke-width="4" stroke-linecap="round"/>
<path d="M197 381L197 404" stroke="#C7AFD4" stroke-width="4" stroke-linecap="round"/>
<path d="M221 373V404" stroke="#C7AFD4" stroke-width="4" stroke-linecap="round"/>
<path opacity="0.1" d="M233 373V404" stroke="#C7AFD4" stroke-width="4" stroke-linecap="round"/>
<path opacity="0.1" d="M245 358L245 404" stroke="#121212" stroke-width="4" stroke-linecap="round"/>
<path opacity="0.1" d="M257 373V404" stroke="#121212" stroke-width="4" stroke-linecap="round"/>
<path opacity="0.1" d="M269 339L269 404" stroke="#121212" stroke-width="4" stroke-linecap="round"/>
<path opacity="0.1" d="M281 358L281 404" stroke="#121212" stroke-width="4" stroke-linecap="round"/>
<path opacity="0.1" d="M293 381L293 404" stroke="#121212" stroke-width="4" stroke-linecap="round"/>
<path opacity="0.1" d="M317 373V404" stroke="#121212" stroke-width="4" stroke-linecap="round"/>
<path opacity="0.1" d="M329 381L329 404" stroke="#121212" stroke-width="4" stroke-linecap="round"/>
<path opacity="0.1" d="M353 373V404" stroke="#121212" stroke-width="4" stroke-linecap="round"/>
<path d="M236 333V404" stroke="url(#paint3_linear_256_2848)" stroke-width="3"/>
<path fill-rule="evenodd" clip-rule="evenodd" d="M230 314H242V326L236 331L230 326V314ZM233 317H235V324H233V317ZM239 317H237V324H239V317Z" fill="#C7AFD4"/>
<path d="M234 177L234 195" stroke="#C7AFD4" stroke-linecap="square"/>
<rect x="156" y="178" width="78" height="17" fill="url(#paint4_linear_256_2848)"/>
<path opacity="0.5" d="M102.117 80.552C102.117 78.568 103.717 77.224 106.101 77.224C108.309 77.224 109.733 78.456 109.861 80.456H108.277C108.197 79.304 107.381 78.632 106.085 78.632C104.629 78.632 103.685 79.368 103.685 80.504C103.685 81.432 104.213 81.992 105.301 82.248L107.205 82.696C109.093 83.128 110.053 84.152 110.053 85.784C110.053 87.864 108.437 89.192 105.973 89.192C103.621 89.192 102.053 87.96 101.957 85.976H103.557C103.589 87.08 104.517 87.784 105.973 87.784C107.509 87.784 108.485 87.064 108.485 85.912C108.485 85 107.989 84.424 106.885 84.168L104.981 83.736C103.093 83.304 102.117 82.216 102.117 80.552ZM111.768 92.504V81.176H113.128L113.24 82.584C113.768 81.512 114.824 80.952 116.072 80.952C118.312 80.952 119.704 82.632 119.704 85.032C119.704 87.416 118.392 89.208 116.072 89.208C114.824 89.208 113.784 88.68 113.272 87.72V92.504H111.768ZM113.288 85.096C113.288 86.696 114.216 87.848 115.752 87.848C117.288 87.848 118.2 86.696 118.2 85.096C118.2 83.48 117.288 82.328 115.752 82.328C114.216 82.328 113.288 83.464 113.288 85.096ZM120.849 85.08C120.849 82.664 122.577 80.968 124.929 80.968C127.265 80.968 128.993 82.664 128.993 85.08C128.993 87.496 127.265 89.192 124.929 89.192C122.577 89.192 120.849 87.496 120.849 85.08ZM122.369 85.08C122.369 86.712 123.409 87.848 124.929 87.848C126.433 87.848 127.489 86.712 127.489 85.08C127.489 83.448 126.433 82.312 124.929 82.312C123.409 82.312 122.369 83.448 122.369 85.08ZM132.194 89H130.69V77.224H132.194V84.856L135.666 81.176H137.554L134.562 84.296L137.538 89H135.81L133.522 85.384L132.194 86.776V89ZM141.862 89.192C139.558 89.192 137.974 87.528 137.974 85.096C137.974 82.648 139.526 80.952 141.798 80.952C144.022 80.952 145.478 82.488 145.478 84.808V85.368L139.43 85.384C139.542 87.032 140.406 87.944 141.894 87.944C143.062 87.944 143.83 87.464 144.086 86.568H145.494C145.11 88.248 143.798 89.192 141.862 89.192ZM141.798 82.216C140.486 82.216 139.654 83 139.462 84.376H143.974C143.974 83.08 143.126 82.216 141.798 82.216ZM148.662 89H147.158V81.176H148.518L148.678 82.376C149.174 81.48 150.166 80.952 151.27 80.952C153.334 80.952 154.278 82.216 154.278 84.216V89H152.774V84.552C152.774 82.968 152.038 82.328 150.886 82.328C149.478 82.328 148.662 83.336 148.662 84.856V89ZM162.096 89H160.736V77.224H162.24V82.52C162.752 81.496 163.808 80.952 165.088 80.952C167.328 80.952 168.672 82.712 168.672 85.128C168.672 87.496 167.264 89.192 164.992 89.192C163.76 89.192 162.72 88.648 162.208 87.576L162.096 89ZM162.256 85.064C162.256 86.696 163.184 87.832 164.72 87.832C166.256 87.832 167.168 86.68 167.168 85.064C167.168 83.464 166.256 82.312 164.72 82.312C163.184 82.312 162.256 83.464 162.256 85.064ZM169.313 92.504V91.272H170.321C171.041 91.272 171.617 91.16 171.985 90.168L172.257 89.416L169.105 81.176H170.689L172.961 87.48L175.281 81.176H176.833L173.137 90.76C172.609 92.104 171.825 92.664 170.625 92.664C170.129 92.664 169.713 92.6 169.313 92.504ZM183.144 89H181.512L185.736 77.432H187.48L191.72 89H190.072L189.032 86.12H184.168L183.144 89ZM186.408 79.928L184.648 84.76H188.568L186.792 79.928C186.712 79.704 186.632 79.432 186.6 79.256C186.568 79.416 186.488 79.688 186.408 79.928ZM195.841 89.192C193.569 89.192 192.193 87.496 192.193 85.112C192.193 82.712 193.585 80.952 195.905 80.952C197.105 80.952 198.113 81.48 198.641 82.44V77.224H200.129V89H198.785L198.657 87.576C198.145 88.648 197.089 89.192 195.841 89.192ZM196.145 87.832C197.681 87.832 198.625 86.696 198.625 85.064C198.625 83.464 197.681 82.312 196.145 82.312C194.609 82.312 193.713 83.464 193.713 85.064C193.713 86.68 194.609 87.832 196.145 87.832ZM204.587 89.192C202.907 89.192 201.915 88.248 201.915 86.824C201.915 85.384 202.987 84.488 204.827 84.344L207.291 84.152V83.928C207.291 82.616 206.507 82.152 205.451 82.152C204.187 82.152 203.467 82.712 203.467 83.656H202.155C202.155 82.024 203.499 80.952 205.515 80.952C207.451 80.952 208.763 81.976 208.763 84.088V89H207.483L207.323 87.736C206.923 88.632 205.851 89.192 204.587 89.192ZM205.019 88.024C206.443 88.024 207.307 87.096 207.307 85.624V85.208L205.307 85.368C203.979 85.496 203.435 86.008 203.435 86.776C203.435 87.608 204.043 88.024 205.019 88.024ZM212.35 89H210.846V81.176H212.19L212.334 82.2C212.734 81.464 213.566 80.952 214.67 80.952C215.886 80.952 216.75 81.56 217.15 82.536C217.518 81.56 218.462 80.952 219.678 80.952C221.47 80.952 222.558 82.072 222.558 83.88V89H221.086V84.248C221.086 83.016 220.398 82.312 219.342 82.312C218.206 82.312 217.454 83.112 217.454 84.36V89H215.966V84.232C215.966 83 215.294 82.328 214.238 82.328C213.102 82.328 212.35 83.112 212.35 84.36V89Z" fill="#121212"/>
</g>
<defs>
<filter id="filter0_b_256_2848" x="-10.4" y="-7.4" width="514.8" height="514.8" filterUnits="userSpaceOnUse" color-interpolation-filters="sRGB">
<feFlood flood-opacity="0" result="BackgroundImageFix"/>
<feGaussianBlur in="BackgroundImageFix" stdDeviation="18.2"/>
<feComposite in2="SourceAlpha" operator="in" result="effect1_backgroundBlur_256_2848"/>
<feBlend mode="normal" in="SourceGraphic" in2="effect1_backgroundBlur_256_2848" result="shape"/>
</filter>
<linearGradient id="paint0_linear_256_2848" x1="-28.5348" y1="-12.2706" x2="372.339" y2="486.571" gradientUnits="userSpaceOnUse">
<stop offset="0.111618" stop-color="#6E5DED"/>
<stop offset="0.486101" stop-color="#B18EED"/>
<stop offset="0.921954" stop-color="#CDB6D1"/>
</linearGradient>
<linearGradient id="paint1_linear_256_2848" x1="62.2931" y1="28.6485" x2="309.78" y2="587.01" gradientUnits="userSpaceOnUse">
<stop stop-color="#CDB6D1"/>
<stop offset="0.537437" stop-color="#B297E1"/>
<stop offset="1" stop-color="#C289FF"/>
</linearGradient>
<linearGradient id="paint2_linear_256_2848" x1="247" y1="29" x2="247" y2="471" gradientUnits="userSpaceOnUse">
<stop stop-color="white"/>
<stop offset="1" stop-color="#999999"/>
</linearGradient>
<linearGradient id="paint3_linear_256_2848" x1="236.5" y1="333" x2="236.5" y2="404" gradientUnits="userSpaceOnUse">
<stop stop-color="#C7AFD4"/>
<stop offset="1" stop-color="#C7AFD4" stop-opacity="0"/>
</linearGradient>
<linearGradient id="paint4_linear_256_2848" x1="462.8" y1="190" x2="191.478" y2="93.53" gradientUnits="userSpaceOnUse">
<stop stop-color="#C7AFD4"/>
<stop offset="1" stop-color="#C7AFD4" stop-opacity="0"/>
</linearGradient>
<clipPath id="clip0_256_2848">
<path d="M73 68.8595C73 62.6081 73 59.4824 74.2166 57.0946C75.2868 54.9944 76.9944 53.2868 79.0946 52.2166C81.4824 51 84.6081 51 90.8595 51H403.141C409.392 51 412.518 51 414.905 52.2166C417.006 53.2868 418.713 54.9944 419.783 57.0946C421 59.4824 421 62.6081 421 68.8595V388H73V68.8595Z" fill="white"/>
</clipPath>
</defs>
</svg>
