<svg width="495" height="388" viewBox="0 0 495 388" fill="none" xmlns="http://www.w3.org/2000/svg">
<rect width="495" height="388" rx="16" fill="url(#paint0_linear_256_2890)"/>
<mask id="mask0_256_2890" style="mask-type:alpha" maskUnits="userSpaceOnUse" x="0" y="0" width="495" height="388">
<rect width="495" height="388" rx="16" fill="url(#paint1_linear_256_2890)"/>
</mask>
<g mask="url(#mask0_256_2890)">
<g filter="url(#filter0_b_256_2890)">
<circle cx="247" cy="250" r="221" fill="white" fill-opacity="0.12"/>
<circle cx="247" cy="250" r="220.5" stroke="url(#paint2_linear_256_2890)"/>
</g>
</g>
<g clip-path="url(#clip0_256_2890)">
<path d="M73 68.8595C73 62.6081 73 59.4824 74.2166 57.0946C75.2868 54.9944 76.9944 53.2868 79.0946 52.2166C81.4824 51 84.6081 51 90.8595 51H403.141C409.392 51 412.518 51 414.905 52.2166C417.006 53.2868 418.713 54.9944 419.783 57.0946C421 59.4824 421 62.6081 421 68.8595V388H73V68.8595Z" fill="white"/>
<rect x="67" y="144" width="360" height="275" fill="#F6F7FA"/>
<rect x="96" y="234" width="251" height="111" rx="12" fill="white"/>
<rect x="96.5" y="234.5" width="250" height="110" rx="11.5" stroke="black" stroke-opacity="0.1"/>
<circle cx="116" cy="254" r="12" fill="#FADDFF"/>
<circle cx="115.793" cy="251.517" r="2.48276" fill="#BFA6D9"/>
<path d="M120.138 259.172C120.138 258.02 119.68 256.915 118.865 256.1C118.051 255.285 116.945 254.827 115.793 254.827C114.641 254.827 113.536 255.285 112.721 256.1C111.906 256.915 111.448 258.02 111.448 259.172L120.138 259.172Z" fill="#BFA6D9"/>
<path d="M142.196 248.138V246.878H149.658V248.138H146.62V257H145.248V248.138H142.196ZM152.129 256.986H150.813V246.696H152.129V251.204C152.563 250.462 153.389 249.958 154.453 249.958C156.203 249.958 157.043 251.064 157.043 252.814V257H155.727V253.108C155.727 251.722 155.069 251.162 154.089 251.162C152.815 251.162 152.129 252.086 152.129 253.262V256.986ZM161.82 257.168C159.804 257.168 158.418 255.712 158.418 253.584C158.418 251.442 159.776 249.958 161.764 249.958C163.71 249.958 164.984 251.302 164.984 253.332V253.822L159.692 253.836C159.79 255.278 160.546 256.076 161.848 256.076C162.87 256.076 163.542 255.656 163.766 254.872H164.998C164.662 256.342 163.514 257.168 161.82 257.168ZM161.764 251.064C160.616 251.064 159.888 251.75 159.72 252.954H163.668C163.668 251.82 162.926 251.064 161.764 251.064ZM171.752 257L169.512 250.154H170.87L172.004 253.71C172.158 254.214 172.298 254.732 172.424 255.334C172.536 254.732 172.718 254.158 172.872 253.71L174.02 250.154H175.364L176.498 253.71C176.61 254.046 176.834 254.844 176.946 255.334C177.058 254.788 177.184 254.312 177.38 253.71L178.528 250.154H179.9L177.562 257H176.316L175.126 253.332C174.902 252.646 174.762 252.114 174.692 251.736C174.622 252.072 174.496 252.52 174.244 253.346L173.054 257H171.752ZM183.668 257.168C181.652 257.168 180.266 255.712 180.266 253.584C180.266 251.442 181.624 249.958 183.612 249.958C185.558 249.958 186.832 251.302 186.832 253.332V253.822L181.54 253.836C181.638 255.278 182.394 256.076 183.696 256.076C184.718 256.076 185.39 255.656 185.614 254.872H186.846C186.51 256.342 185.362 257.168 183.668 257.168ZM183.612 251.064C182.464 251.064 181.736 251.75 181.568 252.954H185.516C185.516 251.82 184.774 251.064 183.612 251.064ZM190.235 257.168C188.765 257.168 187.897 256.342 187.897 255.096C187.897 253.836 188.835 253.052 190.445 252.926L192.601 252.758V252.562C192.601 251.414 191.915 251.008 190.991 251.008C189.885 251.008 189.255 251.498 189.255 252.324H188.107C188.107 250.896 189.283 249.958 191.047 249.958C192.741 249.958 193.889 250.854 193.889 252.702V257H192.769L192.629 255.894C192.279 256.678 191.341 257.168 190.235 257.168ZM190.613 256.146C191.859 256.146 192.615 255.334 192.615 254.046V253.682L190.865 253.822C189.703 253.934 189.227 254.382 189.227 255.054C189.227 255.782 189.759 256.146 190.613 256.146ZM197.534 257H196.218V251.26H194.874V250.154H196.218V248.012H197.534V250.154H198.878V251.26H197.534V257ZM201.375 256.986H200.059V246.696H201.375V251.204C201.809 250.462 202.635 249.958 203.699 249.958C205.449 249.958 206.289 251.064 206.289 252.814V257H204.973V253.108C204.973 251.722 204.315 251.162 203.335 251.162C202.061 251.162 201.375 252.086 201.375 253.262V256.986ZM211.066 257.168C209.05 257.168 207.664 255.712 207.664 253.584C207.664 251.442 209.022 249.958 211.01 249.958C212.956 249.958 214.23 251.302 214.23 253.332V253.822L208.938 253.836C209.036 255.278 209.792 256.076 211.094 256.076C212.116 256.076 212.788 255.656 213.012 254.872H214.244C213.908 256.342 212.76 257.168 211.066 257.168ZM211.01 251.064C209.862 251.064 209.134 251.75 208.966 252.954H212.914C212.914 251.82 212.172 251.064 211.01 251.064ZM219.62 250.098V251.302H219.032C217.786 251.302 217.016 252.058 217.016 253.374V257H215.7V250.168H216.932L217.016 251.204C217.296 250.49 217.982 250.014 218.92 250.014C219.158 250.014 219.354 250.042 219.62 250.098ZM223.954 250.154H224.962V249.062C224.962 247.382 225.886 246.696 227.132 246.696C227.384 246.696 227.678 246.71 227.944 246.752V247.886H227.356C226.502 247.886 226.278 248.32 226.278 249.062V250.154H227.902V251.26H226.278V257H224.962V251.26H223.954V250.154ZM228.473 253.57C228.473 251.456 229.985 249.972 232.043 249.972C234.087 249.972 235.599 251.456 235.599 253.57C235.599 255.684 234.087 257.168 232.043 257.168C229.985 257.168 228.473 255.684 228.473 253.57ZM229.803 253.57C229.803 254.998 230.713 255.992 232.043 255.992C233.359 255.992 234.283 254.998 234.283 253.57C234.283 252.142 233.359 251.148 232.043 251.148C230.713 251.148 229.803 252.142 229.803 253.57ZM240.976 250.098V251.302H240.388C239.142 251.302 238.372 252.058 238.372 253.374V257H237.056V250.168H238.288L238.372 251.204C238.652 250.49 239.338 250.014 240.276 250.014C240.514 250.014 240.71 250.042 240.976 250.098ZM244.918 257.168C242.902 257.168 241.516 255.712 241.516 253.584C241.516 251.442 242.874 249.958 244.862 249.958C246.808 249.958 248.082 251.302 248.082 253.332V253.822L242.79 253.836C242.888 255.278 243.644 256.076 244.946 256.076C245.968 256.076 246.64 255.656 246.864 254.872H248.096C247.76 256.342 246.612 257.168 244.918 257.168ZM244.862 251.064C243.714 251.064 242.986 251.75 242.818 252.954H246.766C246.766 251.82 246.024 251.064 244.862 251.064ZM249.104 253.584C249.104 251.442 250.462 249.958 252.464 249.958C254.186 249.958 255.39 250.938 255.628 252.464H254.312C254.088 251.596 253.388 251.134 252.506 251.134C251.26 251.134 250.406 252.086 250.406 253.57C250.406 255.04 251.204 255.992 252.45 255.992C253.388 255.992 254.088 255.502 254.326 254.69H255.642C255.376 256.174 254.102 257.168 252.45 257.168C250.434 257.168 249.104 255.74 249.104 253.584ZM259.032 257.168C257.562 257.168 256.694 256.342 256.694 255.096C256.694 253.836 257.632 253.052 259.242 252.926L261.398 252.758V252.562C261.398 251.414 260.712 251.008 259.788 251.008C258.682 251.008 258.052 251.498 258.052 252.324H256.904C256.904 250.896 258.08 249.958 259.844 249.958C261.538 249.958 262.686 250.854 262.686 252.702V257H261.566L261.426 255.894C261.076 256.678 260.138 257.168 259.032 257.168ZM259.41 256.146C260.656 256.146 261.412 255.334 261.412 254.046V253.682L259.662 253.822C258.5 253.934 258.024 254.382 258.024 255.054C258.024 255.782 258.556 256.146 259.41 256.146ZM263.949 255.012H265.209C265.209 255.712 265.741 256.132 266.609 256.132C267.533 256.132 268.065 255.754 268.065 255.124C268.065 254.662 267.841 254.382 267.127 254.2L265.923 253.92C264.705 253.626 264.131 253.024 264.131 252.016C264.131 250.756 265.195 249.958 266.707 249.958C268.205 249.958 269.185 250.798 269.213 252.1H267.953C267.925 251.414 267.463 250.98 266.665 250.98C265.839 250.98 265.377 251.344 265.377 251.974C265.377 252.436 265.713 252.744 266.385 252.912L267.589 253.206C268.751 253.486 269.325 254.018 269.325 255.04C269.325 256.342 268.205 257.168 266.581 257.168C264.971 257.168 263.949 256.314 263.949 255.012ZM272.716 257H271.4V251.26H270.056V250.154H271.4V248.012H272.716V250.154H274.06V251.26H272.716V257ZM278.341 250.154H279.349V249.062C279.349 247.382 280.273 246.696 281.519 246.696C281.771 246.696 282.065 246.71 282.331 246.752V247.886H281.743C280.889 247.886 280.665 248.32 280.665 249.062V250.154H282.289V251.26H280.665V257H279.349V251.26H278.341V250.154ZM282.859 253.57C282.859 251.456 284.371 249.972 286.429 249.972C288.473 249.972 289.985 251.456 289.985 253.57C289.985 255.684 288.473 257.168 286.429 257.168C284.371 257.168 282.859 255.684 282.859 253.57ZM284.189 253.57C284.189 254.998 285.099 255.992 286.429 255.992C287.745 255.992 288.669 254.998 288.669 253.57C288.669 252.142 287.745 251.148 286.429 251.148C285.099 251.148 284.189 252.142 284.189 253.57ZM295.362 250.098V251.302H294.774C293.528 251.302 292.758 252.058 292.758 253.374V257H291.442V250.168H292.674L292.758 251.204C293.038 250.49 293.724 250.014 294.662 250.014C294.9 250.014 295.096 250.042 295.362 250.098ZM302.021 246.878V255.726H306.473V257H300.649V246.878H302.021ZM307.154 253.57C307.154 251.456 308.666 249.972 310.724 249.972C312.768 249.972 314.28 251.456 314.28 253.57C314.28 255.684 312.768 257.168 310.724 257.168C308.666 257.168 307.154 255.684 307.154 253.57ZM308.484 253.57C308.484 254.998 309.394 255.992 310.724 255.992C312.04 255.992 312.964 254.998 312.964 253.57C312.964 252.142 312.04 251.148 310.724 251.148C309.394 251.148 308.484 252.142 308.484 253.57ZM315.177 255.012H316.437C316.437 255.712 316.969 256.132 317.837 256.132C318.761 256.132 319.293 255.754 319.293 255.124C319.293 254.662 319.069 254.382 318.355 254.2L317.151 253.92C315.933 253.626 315.359 253.024 315.359 252.016C315.359 250.756 316.423 249.958 317.935 249.958C319.433 249.958 320.413 250.798 320.441 252.1H319.181C319.153 251.414 318.691 250.98 317.893 250.98C317.067 250.98 316.605 251.344 316.605 251.974C316.605 252.436 316.941 252.744 317.613 252.912L318.817 253.206C319.979 253.486 320.553 254.018 320.553 255.04C320.553 256.342 319.433 257.168 317.809 257.168C316.199 257.168 315.177 256.314 315.177 255.012ZM143.596 276H142.168L145.864 265.878H147.39L151.1 276H149.658L148.748 273.48H144.492L143.596 276ZM146.452 268.062L144.912 272.29H148.342L146.788 268.062C146.718 267.866 146.648 267.628 146.62 267.474C146.592 267.614 146.522 267.852 146.452 268.062ZM153.538 276H152.222V269.154H153.412L153.552 270.204C153.986 269.42 154.854 268.958 155.82 268.958C157.626 268.958 158.452 270.064 158.452 271.814V276H157.136V272.108C157.136 270.722 156.492 270.162 155.484 270.162C154.252 270.162 153.538 271.044 153.538 272.374V276ZM159.84 272.402C159.84 270.47 161.086 268.958 163.074 268.958C164.18 268.958 165.034 269.462 165.468 270.316L165.566 269.154H166.742V275.72C166.742 277.876 165.412 279.248 163.312 279.248C161.45 279.248 160.176 278.198 159.924 276.462H161.24C161.408 277.47 162.164 278.058 163.312 278.058C164.6 278.058 165.44 277.218 165.44 275.916V274.544C164.992 275.342 164.096 275.818 163.018 275.818C161.072 275.818 159.84 274.32 159.84 272.402ZM161.156 272.374C161.156 273.662 161.954 274.67 163.242 274.67C164.572 274.67 165.384 273.718 165.384 272.374C165.384 271.058 164.6 270.106 163.256 270.106C161.94 270.106 161.156 271.114 161.156 272.374ZM171.595 276.168C169.579 276.168 168.193 274.712 168.193 272.584C168.193 270.442 169.551 268.958 171.539 268.958C173.485 268.958 174.759 270.302 174.759 272.332V272.822L169.467 272.836C169.565 274.278 170.321 275.076 171.623 275.076C172.645 275.076 173.317 274.656 173.541 273.872H174.773C174.437 275.342 173.289 276.168 171.595 276.168ZM171.539 270.064C170.391 270.064 169.663 270.75 169.495 271.954H173.443C173.443 270.82 172.701 270.064 171.539 270.064ZM177.573 276H176.257V265.696H177.573V276ZM182.465 276.168C180.449 276.168 179.063 274.712 179.063 272.584C179.063 270.442 180.421 268.958 182.409 268.958C184.355 268.958 185.629 270.302 185.629 272.332V272.822L180.337 272.836C180.435 274.278 181.191 275.076 182.493 275.076C183.515 275.076 184.187 274.656 184.411 273.872H185.643C185.307 275.342 184.159 276.168 182.465 276.168ZM182.409 270.064C181.261 270.064 180.533 270.75 180.365 271.954H184.313C184.313 270.82 183.571 270.064 182.409 270.064ZM186.538 274.012H187.798C187.798 274.712 188.33 275.132 189.198 275.132C190.122 275.132 190.654 274.754 190.654 274.124C190.654 273.662 190.43 273.382 189.716 273.2L188.512 272.92C187.294 272.626 186.72 272.024 186.72 271.016C186.72 269.756 187.784 268.958 189.296 268.958C190.794 268.958 191.774 269.798 191.802 271.1H190.542C190.514 270.414 190.052 269.98 189.254 269.98C188.428 269.98 187.966 270.344 187.966 270.974C187.966 271.436 188.302 271.744 188.974 271.912L190.178 272.206C191.34 272.486 191.914 273.018 191.914 274.04C191.914 275.342 190.794 276.168 189.17 276.168C187.56 276.168 186.538 275.314 186.538 274.012ZM199.134 276H197.818V270.26H196.474V269.154H197.818V267.012H199.134V269.154H200.478V270.26H199.134V276ZM201.143 272.57C201.143 270.456 202.655 268.972 204.713 268.972C206.757 268.972 208.269 270.456 208.269 272.57C208.269 274.684 206.757 276.168 204.713 276.168C202.655 276.168 201.143 274.684 201.143 272.57ZM202.473 272.57C202.473 273.998 203.383 274.992 204.713 274.992C206.029 274.992 206.953 273.998 206.953 272.57C206.953 271.142 206.029 270.148 204.713 270.148C203.383 270.148 202.473 271.142 202.473 272.57ZM212.469 276.168C210.481 276.168 209.277 274.684 209.277 272.598C209.277 270.498 210.495 268.958 212.525 268.958C213.575 268.958 214.457 269.42 214.919 270.26V265.696H216.221V276H215.045L214.933 274.754C214.485 275.692 213.561 276.168 212.469 276.168ZM212.735 274.978C214.079 274.978 214.905 273.984 214.905 272.556C214.905 271.156 214.079 270.148 212.735 270.148C211.391 270.148 210.607 271.156 210.607 272.556C210.607 273.97 211.391 274.978 212.735 274.978ZM220.122 276.168C218.652 276.168 217.784 275.342 217.784 274.096C217.784 272.836 218.722 272.052 220.332 271.926L222.488 271.758V271.562C222.488 270.414 221.802 270.008 220.878 270.008C219.772 270.008 219.142 270.498 219.142 271.324H217.994C217.994 269.896 219.17 268.958 220.934 268.958C222.628 268.958 223.776 269.854 223.776 271.702V276H222.656L222.516 274.894C222.166 275.678 221.228 276.168 220.122 276.168ZM220.5 275.146C221.746 275.146 222.502 274.334 222.502 273.046V272.682L220.752 272.822C219.59 272.934 219.114 273.382 219.114 274.054C219.114 274.782 219.646 275.146 220.5 275.146ZM224.776 279.066V277.988H225.658C226.288 277.988 226.792 277.89 227.114 277.022L227.352 276.364L224.594 269.154H225.98L227.968 274.67L229.998 269.154H231.356L228.122 277.54C227.66 278.716 226.974 279.206 225.924 279.206C225.49 279.206 225.126 279.15 224.776 279.066ZM236.879 267.53C236.403 267.53 236.011 267.138 236.011 266.662C236.011 266.172 236.403 265.794 236.879 265.794C237.355 265.794 237.747 266.172 237.747 266.662C237.747 267.138 237.355 267.53 236.879 267.53ZM236.235 276V269.154H237.551V276H236.235ZM238.902 274.012H240.162C240.162 274.712 240.694 275.132 241.562 275.132C242.486 275.132 243.018 274.754 243.018 274.124C243.018 273.662 242.794 273.382 242.08 273.2L240.876 272.92C239.658 272.626 239.084 272.024 239.084 271.016C239.084 269.756 240.148 268.958 241.66 268.958C243.158 268.958 244.138 269.798 244.166 271.1H242.906C242.878 270.414 242.416 269.98 241.618 269.98C240.792 269.98 240.33 270.344 240.33 270.974C240.33 271.436 240.666 271.744 241.338 271.912L242.542 272.206C243.704 272.486 244.278 273.018 244.278 274.04C244.278 275.342 243.158 276.168 241.534 276.168C239.924 276.168 238.902 275.314 238.902 274.012ZM249.005 274.012H250.265C250.265 274.712 250.797 275.132 251.665 275.132C252.589 275.132 253.121 274.754 253.121 274.124C253.121 273.662 252.897 273.382 252.183 273.2L250.979 272.92C249.761 272.626 249.187 272.024 249.187 271.016C249.187 269.756 250.251 268.958 251.763 268.958C253.261 268.958 254.241 269.798 254.269 271.1H253.009C252.981 270.414 252.519 269.98 251.721 269.98C250.895 269.98 250.433 270.344 250.433 270.974C250.433 271.436 250.769 271.744 251.441 271.912L252.645 272.206C253.807 272.486 254.381 273.018 254.381 274.04C254.381 275.342 253.261 276.168 251.637 276.168C250.027 276.168 249.005 275.314 249.005 274.012ZM260.573 269.154H261.875V276H260.699L260.559 274.964C260.167 275.678 259.257 276.168 258.249 276.168C256.653 276.168 255.757 275.09 255.757 273.41V269.154H257.073V272.976C257.073 274.446 257.703 275.006 258.711 275.006C259.915 275.006 260.573 274.236 260.573 272.766V269.154ZM265.1 276H263.784V269.154H264.974L265.114 270.204C265.548 269.42 266.416 268.958 267.382 268.958C269.188 268.958 270.014 270.064 270.014 271.814V276H268.698V272.108C268.698 270.722 268.054 270.162 267.046 270.162C265.814 270.162 265.1 271.044 265.1 272.374V276ZM273.153 276H271.837V269.154H273.027L273.167 270.204C273.601 269.42 274.469 268.958 275.435 268.958C277.241 268.958 278.067 270.064 278.067 271.814V276H276.751V272.108C276.751 270.722 276.107 270.162 275.099 270.162C273.867 270.162 273.153 271.044 273.153 272.374V276ZM279.095 279.066V277.988H279.977C280.607 277.988 281.111 277.89 281.433 277.022L281.671 276.364L278.913 269.154H280.299L282.287 274.67L284.317 269.154H285.675L282.441 277.54C281.979 278.716 281.293 279.206 280.243 279.206C279.809 279.206 279.445 279.15 279.095 279.066ZM292.024 276L289.784 269.154H291.142L292.276 272.71C292.43 273.214 292.57 273.732 292.696 274.334C292.808 273.732 292.99 273.158 293.144 272.71L294.292 269.154H295.636L296.77 272.71C296.882 273.046 297.106 273.844 297.218 274.334C297.33 273.788 297.456 273.312 297.652 272.71L298.8 269.154H300.172L297.834 276H296.588L295.398 272.332C295.174 271.646 295.034 271.114 294.964 270.736C294.894 271.072 294.768 271.52 294.516 272.346L293.326 276H292.024ZM301.944 267.53C301.468 267.53 301.076 267.138 301.076 266.662C301.076 266.172 301.468 265.794 301.944 265.794C302.42 265.794 302.812 266.172 302.812 266.662C302.812 267.138 302.42 267.53 301.944 267.53ZM301.3 276V269.154H302.616V276H301.3ZM306.458 276H305.142V270.26H303.798V269.154H305.142V267.012H306.458V269.154H307.802V270.26H306.458V276ZM310.299 275.986H308.983V265.696H310.299V270.204C310.733 269.462 311.559 268.958 312.623 268.958C314.373 268.958 315.213 270.064 315.213 271.814V276H313.897V272.108C313.897 270.722 313.239 270.162 312.259 270.162C310.985 270.162 310.299 271.086 310.299 272.262V275.986ZM322.866 276.168C321.396 276.168 320.528 275.342 320.528 274.096C320.528 272.836 321.466 272.052 323.076 271.926L325.232 271.758V271.562C325.232 270.414 324.546 270.008 323.622 270.008C322.516 270.008 321.886 270.498 321.886 271.324H320.738C320.738 269.896 321.914 268.958 323.678 268.958C325.372 268.958 326.52 269.854 326.52 271.702V276H325.4L325.26 274.894C324.91 275.678 323.972 276.168 322.866 276.168ZM323.244 275.146C324.49 275.146 325.246 274.334 325.246 273.046V272.682L323.496 272.822C322.334 272.934 321.858 273.382 321.858 274.054C321.858 274.782 322.39 275.146 323.244 275.146ZM144.268 294.986H142.952V284.696H144.268V289.204C144.702 288.462 145.528 287.958 146.592 287.958C148.342 287.958 149.182 289.064 149.182 290.814V295H147.866V291.108C147.866 289.722 147.208 289.162 146.228 289.162C144.954 289.162 144.268 290.086 144.268 291.262V294.986ZM151.649 286.53C151.173 286.53 150.781 286.138 150.781 285.662C150.781 285.172 151.173 284.794 151.649 284.794C152.125 284.794 152.517 285.172 152.517 285.662C152.517 286.138 152.125 286.53 151.649 286.53ZM151.005 295V288.154H152.321V295H151.005ZM153.797 291.402C153.797 289.47 155.043 287.958 157.031 287.958C158.137 287.958 158.991 288.462 159.425 289.316L159.523 288.154H160.699V294.72C160.699 296.876 159.369 298.248 157.269 298.248C155.407 298.248 154.133 297.198 153.881 295.462H155.197C155.365 296.47 156.121 297.058 157.269 297.058C158.557 297.058 159.397 296.218 159.397 294.916V293.544C158.949 294.342 158.053 294.818 156.975 294.818C155.029 294.818 153.797 293.32 153.797 291.402ZM155.113 291.374C155.113 292.662 155.911 293.67 157.199 293.67C158.529 293.67 159.341 292.718 159.341 291.374C159.341 290.058 158.557 289.106 157.213 289.106C155.897 289.106 155.113 290.114 155.113 291.374ZM163.914 294.986H162.598V284.696H163.914V289.204C164.348 288.462 165.174 287.958 166.238 287.958C167.988 287.958 168.828 289.064 168.828 290.814V295H167.512V291.108C167.512 289.722 166.854 289.162 165.874 289.162C164.6 289.162 163.914 290.086 163.914 291.262V294.986ZM174.031 291.57C174.031 289.456 175.543 287.972 177.601 287.972C179.645 287.972 181.157 289.456 181.157 291.57C181.157 293.684 179.645 295.168 177.601 295.168C175.543 295.168 174.031 293.684 174.031 291.57ZM175.361 291.57C175.361 292.998 176.271 293.992 177.601 293.992C178.917 293.992 179.841 292.998 179.841 291.57C179.841 290.142 178.917 289.148 177.601 289.148C176.271 289.148 175.361 290.142 175.361 291.57ZM181.845 288.154H182.853V287.062C182.853 285.382 183.777 284.696 185.023 284.696C185.275 284.696 185.569 284.71 185.835 284.752V285.886H185.247C184.393 285.886 184.169 286.32 184.169 287.062V288.154H185.793V289.26H184.169V295H182.853V289.26H181.845V288.154ZM190.005 284.878H197.075V286.138L193.239 295H191.811L195.689 286.138H190.005V284.878ZM201.035 295.168C198.963 295.168 197.619 293.852 197.619 291.836H198.977C198.977 293.138 199.775 293.936 201.063 293.936C202.435 293.936 203.317 293.026 203.317 291.654C203.317 290.352 202.491 289.386 201.077 289.386C200.223 289.386 199.439 289.792 198.977 290.366L197.815 290.072L199.047 284.878H204.115V286.138H200.041L199.369 288.826C199.901 288.42 200.573 288.21 201.329 288.21C203.387 288.21 204.717 289.652 204.717 291.598C204.717 293.698 203.219 295.168 201.035 295.168ZM208.957 286.432C208.957 287.44 208.215 288.168 207.221 288.168C206.227 288.168 205.485 287.44 205.485 286.432C205.485 285.438 206.227 284.696 207.221 284.696C208.215 284.696 208.957 285.438 208.957 286.432ZM208.145 286.432C208.145 285.872 207.767 285.48 207.221 285.48C206.675 285.48 206.297 285.872 206.297 286.432C206.297 286.992 206.675 287.384 207.221 287.384C207.767 287.384 208.145 286.992 208.145 286.432ZM215.749 290.702H211.773V295H210.401V284.878H216.505V286.138H211.773V289.456H215.749V290.702ZM223.772 295.168C222.302 295.168 221.434 294.342 221.434 293.096C221.434 291.836 222.372 291.052 223.982 290.926L226.138 290.758V290.562C226.138 289.414 225.452 289.008 224.528 289.008C223.422 289.008 222.792 289.498 222.792 290.324H221.644C221.644 288.896 222.82 287.958 224.584 287.958C226.278 287.958 227.426 288.854 227.426 290.702V295H226.306L226.166 293.894C225.816 294.678 224.878 295.168 223.772 295.168ZM224.15 294.146C225.396 294.146 226.152 293.334 226.152 292.046V291.682L224.402 291.822C223.24 291.934 222.764 292.382 222.764 293.054C222.764 293.782 223.296 294.146 224.15 294.146ZM230.565 295H229.249V288.154H230.439L230.579 289.204C231.013 288.42 231.881 287.958 232.847 287.958C234.653 287.958 235.479 289.064 235.479 290.814V295H234.163V291.108C234.163 289.722 233.519 289.162 232.511 289.162C231.279 289.162 230.565 290.044 230.565 291.374V295ZM240.046 295.168C238.058 295.168 236.854 293.684 236.854 291.598C236.854 289.498 238.072 287.958 240.102 287.958C241.152 287.958 242.034 288.42 242.496 289.26V284.696H243.798V295H242.622L242.51 293.754C242.062 294.692 241.138 295.168 240.046 295.168ZM240.312 293.978C241.656 293.978 242.482 292.984 242.482 291.556C242.482 290.156 241.656 289.148 240.312 289.148C238.968 289.148 238.184 290.156 238.184 291.556C238.184 292.97 238.968 293.978 240.312 293.978ZM251.526 295.168C250.056 295.168 249.188 294.342 249.188 293.096C249.188 291.836 250.126 291.052 251.736 290.926L253.892 290.758V290.562C253.892 289.414 253.206 289.008 252.282 289.008C251.176 289.008 250.546 289.498 250.546 290.324H249.398C249.398 288.896 250.574 287.958 252.338 287.958C254.032 287.958 255.18 288.854 255.18 290.702V295H254.06L253.92 293.894C253.57 294.678 252.632 295.168 251.526 295.168ZM251.904 294.146C253.15 294.146 253.906 293.334 253.906 292.046V291.682L252.156 291.822C250.994 291.934 250.518 292.382 250.518 293.054C250.518 293.782 251.05 294.146 251.904 294.146ZM262.175 295H260.859V284.696H262.175V295ZM263.664 291.57C263.664 289.456 265.176 287.972 267.234 287.972C269.278 287.972 270.79 289.456 270.79 291.57C270.79 293.684 269.278 295.168 267.234 295.168C265.176 295.168 263.664 293.684 263.664 291.57ZM264.994 291.57C264.994 292.998 265.904 293.992 267.234 293.992C268.55 293.992 269.474 292.998 269.474 291.57C269.474 290.142 268.55 289.148 267.234 289.148C265.904 289.148 264.994 290.142 264.994 291.57ZM273.402 295L271.162 288.154H272.52L273.654 291.71C273.808 292.214 273.948 292.732 274.074 293.334C274.186 292.732 274.368 292.158 274.522 291.71L275.67 288.154H277.014L278.148 291.71C278.26 292.046 278.484 292.844 278.596 293.334C278.708 292.788 278.834 292.312 279.03 291.71L280.178 288.154H281.55L279.212 295H277.966L276.776 291.332C276.552 290.646 276.412 290.114 276.342 289.736C276.272 290.072 276.146 290.52 275.894 291.346L274.704 295H273.402ZM286.059 291.57C286.059 289.456 287.571 287.972 289.629 287.972C291.673 287.972 293.185 289.456 293.185 291.57C293.185 293.684 291.673 295.168 289.629 295.168C287.571 295.168 286.059 293.684 286.059 291.57ZM287.389 291.57C287.389 292.998 288.299 293.992 289.629 293.992C290.945 293.992 291.869 292.998 291.869 291.57C291.869 290.142 290.945 289.148 289.629 289.148C288.299 289.148 287.389 290.142 287.389 291.57ZM293.872 288.154H294.88V287.062C294.88 285.382 295.804 284.696 297.05 284.696C297.302 284.696 297.596 284.71 297.862 284.752V285.886H297.274C296.42 285.886 296.196 286.32 296.196 287.062V288.154H297.82V289.26H296.196V295H294.88V289.26H293.872V288.154ZM303.894 288.084L306.26 284.878H307.856L305.322 288.238C305.672 288.098 306.036 288.028 306.386 288.028C308.486 288.028 309.9 289.54 309.9 291.542C309.9 293.656 308.304 295.168 306.218 295.168C304.118 295.168 302.494 293.586 302.494 291.542C302.494 290.338 302.858 289.498 303.894 288.084ZM303.894 291.556C303.894 292.942 304.846 293.936 306.218 293.936C307.562 293.936 308.514 292.942 308.514 291.556C308.514 290.17 307.562 289.19 306.218 289.19C304.846 289.19 303.894 290.17 303.894 291.556ZM311.165 289.946C311.165 286.81 312.789 284.682 315.337 284.682C317.871 284.682 319.495 286.81 319.495 289.946C319.495 293.096 317.941 295.182 315.337 295.182C312.719 295.182 311.165 293.096 311.165 289.946ZM312.523 289.946C312.523 292.438 313.559 293.95 315.337 293.95C317.115 293.95 318.137 292.438 318.137 289.946C318.137 287.426 317.115 285.914 315.337 285.914C313.559 285.914 312.523 287.426 312.523 289.946ZM323.924 286.432C323.924 287.44 323.182 288.168 322.188 288.168C321.194 288.168 320.452 287.44 320.452 286.432C320.452 285.438 321.194 284.696 322.188 284.696C323.182 284.696 323.924 285.438 323.924 286.432ZM323.112 286.432C323.112 285.872 322.734 285.48 322.188 285.48C321.642 285.48 321.264 285.872 321.264 286.432C321.264 286.992 321.642 287.384 322.188 287.384C322.734 287.384 323.112 286.992 323.112 286.432ZM330.715 290.702H326.739V295H325.367V284.878H331.471V286.138H326.739V289.456H330.715V290.702ZM332.344 295.168C331.798 295.168 331.336 294.72 331.336 294.188C331.336 293.642 331.798 293.194 332.344 293.194C332.876 293.194 333.338 293.642 333.338 294.188C333.338 294.72 332.876 295.168 332.344 295.168ZM144.548 303.878V314H143.176V303.878H144.548ZM146.124 312.012H147.384C147.384 312.712 147.916 313.132 148.784 313.132C149.708 313.132 150.24 312.754 150.24 312.124C150.24 311.662 150.016 311.382 149.302 311.2L148.098 310.92C146.88 310.626 146.306 310.024 146.306 309.016C146.306 307.756 147.37 306.958 148.882 306.958C150.38 306.958 151.36 307.798 151.388 309.1H150.128C150.1 308.414 149.638 307.98 148.84 307.98C148.014 307.98 147.552 308.344 147.552 308.974C147.552 309.436 147.888 309.744 148.56 309.912L149.764 310.206C150.926 310.486 151.5 311.018 151.5 312.04C151.5 313.342 150.38 314.168 148.756 314.168C147.146 314.168 146.124 313.314 146.124 312.012ZM158.72 314H157.404V308.26H156.06V307.154H157.404V305.012H158.72V307.154H160.064V308.26H158.72V314ZM162.561 313.986H161.245V303.696H162.561V308.204C162.995 307.462 163.821 306.958 164.885 306.958C166.635 306.958 167.475 308.064 167.475 309.814V314H166.159V310.108C166.159 308.722 165.501 308.162 164.521 308.162C163.247 308.162 162.561 309.086 162.561 310.262V313.986ZM172.252 314.168C170.236 314.168 168.85 312.712 168.85 310.584C168.85 308.442 170.208 306.958 172.196 306.958C174.142 306.958 175.416 308.302 175.416 310.332V310.822L170.124 310.836C170.222 312.278 170.978 313.076 172.28 313.076C173.302 313.076 173.974 312.656 174.198 311.872H175.43C175.094 313.342 173.946 314.168 172.252 314.168ZM172.196 308.064C171.048 308.064 170.32 308.75 170.152 309.954H174.1C174.1 308.82 173.358 308.064 172.196 308.064ZM180.806 307.098V308.302H180.218C178.972 308.302 178.202 309.058 178.202 310.374V314H176.886V307.168H178.118L178.202 308.204C178.482 307.49 179.168 307.014 180.106 307.014C180.344 307.014 180.54 307.042 180.806 307.098ZM184.748 314.168C182.732 314.168 181.346 312.712 181.346 310.584C181.346 308.442 182.704 306.958 184.692 306.958C186.638 306.958 187.912 308.302 187.912 310.332V310.822L182.62 310.836C182.718 312.278 183.474 313.076 184.776 313.076C185.798 313.076 186.47 312.656 186.694 311.872H187.926C187.59 313.342 186.442 314.168 184.748 314.168ZM184.692 308.064C183.544 308.064 182.816 308.75 182.648 309.954H186.596C186.596 308.82 185.854 308.064 184.692 308.064ZM195.212 314.168C193.742 314.168 192.874 313.342 192.874 312.096C192.874 310.836 193.812 310.052 195.422 309.926L197.578 309.758V309.562C197.578 308.414 196.892 308.008 195.968 308.008C194.862 308.008 194.232 308.498 194.232 309.324H193.084C193.084 307.896 194.26 306.958 196.024 306.958C197.718 306.958 198.866 307.854 198.866 309.702V314H197.746L197.606 312.894C197.256 313.678 196.318 314.168 195.212 314.168ZM195.59 313.146C196.836 313.146 197.592 312.334 197.592 311.046V310.682L195.842 310.822C194.68 310.934 194.204 311.382 194.204 312.054C194.204 312.782 194.736 313.146 195.59 313.146ZM202.004 314H200.688V307.154H201.878L202.018 308.204C202.452 307.42 203.32 306.958 204.286 306.958C206.092 306.958 206.918 308.064 206.918 309.814V314H205.602V310.108C205.602 308.722 204.958 308.162 203.95 308.162C202.718 308.162 202.004 309.044 202.004 310.374V314ZM207.946 317.066V315.988H208.828C209.458 315.988 209.962 315.89 210.284 315.022L210.522 314.364L207.764 307.154H209.15L211.138 312.67L213.168 307.154H214.526L211.292 315.54C210.83 316.716 210.144 317.206 209.094 317.206C208.66 317.206 208.296 317.15 207.946 317.066ZM217.509 314H216.193V308.26H214.849V307.154H216.193V305.012H217.509V307.154H218.853V308.26H217.509V314ZM221.35 313.986H220.034V303.696H221.35V308.204C221.784 307.462 222.61 306.958 223.674 306.958C225.424 306.958 226.264 308.064 226.264 309.814V314H224.948V310.108C224.948 308.722 224.29 308.162 223.31 308.162C222.036 308.162 221.35 309.086 221.35 310.262V313.986ZM228.731 305.53C228.255 305.53 227.863 305.138 227.863 304.662C227.863 304.172 228.255 303.794 228.731 303.794C229.207 303.794 229.599 304.172 229.599 304.662C229.599 305.138 229.207 305.53 228.731 305.53ZM228.087 314V307.154H229.403V314H228.087ZM232.629 314H231.313V307.154H232.503L232.643 308.204C233.077 307.42 233.945 306.958 234.911 306.958C236.717 306.958 237.543 308.064 237.543 309.814V314H236.227V310.108C236.227 308.722 235.583 308.162 234.575 308.162C233.343 308.162 232.629 309.044 232.629 310.374V314ZM238.932 310.402C238.932 308.47 240.178 306.958 242.166 306.958C243.272 306.958 244.126 307.462 244.56 308.316L244.658 307.154H245.834V313.72C245.834 315.876 244.504 317.248 242.404 317.248C240.542 317.248 239.268 316.198 239.016 314.462H240.332C240.5 315.47 241.256 316.058 242.404 316.058C243.692 316.058 244.532 315.218 244.532 313.916V312.544C244.084 313.342 243.188 313.818 242.11 313.818C240.164 313.818 238.932 312.32 238.932 310.402ZM240.248 310.374C240.248 311.662 241.046 312.67 242.334 312.67C243.664 312.67 244.476 311.718 244.476 310.374C244.476 309.058 243.692 308.106 242.348 308.106C241.032 308.106 240.248 309.114 240.248 310.374ZM254.515 314.168C252.499 314.168 251.113 312.712 251.113 310.584C251.113 308.442 252.471 306.958 254.459 306.958C256.405 306.958 257.679 308.302 257.679 310.332V310.822L252.387 310.836C252.485 312.278 253.241 313.076 254.543 313.076C255.565 313.076 256.237 312.656 256.461 311.872H257.693C257.357 313.342 256.209 314.168 254.515 314.168ZM254.459 308.064C253.311 308.064 252.583 308.75 252.415 309.954H256.363C256.363 308.82 255.621 308.064 254.459 308.064ZM260.493 314H259.177V303.696H260.493V314ZM261.871 312.012H263.131C263.131 312.712 263.663 313.132 264.531 313.132C265.455 313.132 265.987 312.754 265.987 312.124C265.987 311.662 265.763 311.382 265.049 311.2L263.845 310.92C262.627 310.626 262.053 310.024 262.053 309.016C262.053 307.756 263.117 306.958 264.629 306.958C266.127 306.958 267.107 307.798 267.135 309.1H265.875C265.847 308.414 265.385 307.98 264.587 307.98C263.761 307.98 263.299 308.344 263.299 308.974C263.299 309.436 263.635 309.744 264.307 309.912L265.511 310.206C266.673 310.486 267.247 311.018 267.247 312.04C267.247 313.342 266.127 314.168 264.503 314.168C262.893 314.168 261.871 313.314 261.871 312.012ZM271.66 314.168C269.644 314.168 268.258 312.712 268.258 310.584C268.258 308.442 269.616 306.958 271.604 306.958C273.55 306.958 274.824 308.302 274.824 310.332V310.822L269.532 310.836C269.63 312.278 270.386 313.076 271.688 313.076C272.71 313.076 273.382 312.656 273.606 311.872H274.838C274.502 313.342 273.354 314.168 271.66 314.168ZM271.604 308.064C270.456 308.064 269.728 308.75 269.56 309.954H273.508C273.508 308.82 272.766 308.064 271.604 308.064ZM281.718 303.878V314H280.346V303.878H281.718ZM287.234 310.584C287.234 308.442 288.592 306.958 290.594 306.958C292.316 306.958 293.52 307.938 293.758 309.464H292.442C292.218 308.596 291.518 308.134 290.636 308.134C289.39 308.134 288.536 309.086 288.536 310.57C288.536 312.04 289.334 312.992 290.58 312.992C291.518 312.992 292.218 312.502 292.456 311.69H293.772C293.506 313.174 292.232 314.168 290.58 314.168C288.564 314.168 287.234 312.74 287.234 310.584ZM297.163 314.168C295.693 314.168 294.825 313.342 294.825 312.096C294.825 310.836 295.763 310.052 297.373 309.926L299.529 309.758V309.562C299.529 308.414 298.843 308.008 297.919 308.008C296.813 308.008 296.183 308.498 296.183 309.324H295.035C295.035 307.896 296.211 306.958 297.975 306.958C299.669 306.958 300.817 307.854 300.817 309.702V314H299.697L299.557 312.894C299.207 313.678 298.269 314.168 297.163 314.168ZM297.541 313.146C298.787 313.146 299.543 312.334 299.543 311.046V310.682L297.793 310.822C296.631 310.934 296.155 311.382 296.155 312.054C296.155 312.782 296.687 313.146 297.541 313.146ZM303.956 314H302.64V307.154H303.83L303.97 308.204C304.404 307.42 305.272 306.958 306.238 306.958C308.044 306.958 308.87 308.064 308.87 309.814V314H307.554V310.108C307.554 308.722 306.91 308.162 305.902 308.162C304.67 308.162 303.956 309.044 303.956 310.374V314ZM144.268 332.986H142.952V322.696H144.268V327.204C144.702 326.462 145.528 325.958 146.592 325.958C148.342 325.958 149.182 327.064 149.182 328.814V333H147.866V329.108C147.866 327.722 147.208 327.162 146.228 327.162C144.954 327.162 144.268 328.086 144.268 329.262V332.986ZM153.959 333.168C151.943 333.168 150.557 331.712 150.557 329.584C150.557 327.442 151.915 325.958 153.903 325.958C155.849 325.958 157.123 327.302 157.123 329.332V329.822L151.831 329.836C151.929 331.278 152.685 332.076 153.987 332.076C155.009 332.076 155.681 331.656 155.905 330.872H157.137C156.801 332.342 155.653 333.168 153.959 333.168ZM153.903 327.064C152.755 327.064 152.027 327.75 151.859 328.954H155.807C155.807 327.82 155.065 327.064 153.903 327.064ZM159.937 333H158.621V322.696H159.937V333ZM161.874 336.066V326.154H163.064L163.162 327.386C163.624 326.448 164.548 325.958 165.64 325.958C167.6 325.958 168.818 327.428 168.818 329.528C168.818 331.614 167.67 333.182 165.64 333.182C164.548 333.182 163.638 332.72 163.19 331.88V336.066H161.874ZM163.204 329.584C163.204 330.984 164.016 331.992 165.36 331.992C166.704 331.992 167.502 330.984 167.502 329.584C167.502 328.17 166.704 327.162 165.36 327.162C164.016 327.162 163.204 328.156 163.204 329.584ZM173.439 336.066V334.988H174.321C174.951 334.988 175.455 334.89 175.777 334.022L176.015 333.364L173.257 326.154H174.643L176.631 331.67L178.661 326.154H180.019L176.785 334.54C176.323 335.716 175.637 336.206 174.587 336.206C174.153 336.206 173.789 336.15 173.439 336.066ZM180.361 329.57C180.361 327.456 181.873 325.972 183.931 325.972C185.975 325.972 187.487 327.456 187.487 329.57C187.487 331.684 185.975 333.168 183.931 333.168C181.873 333.168 180.361 331.684 180.361 329.57ZM181.691 329.57C181.691 330.998 182.601 331.992 183.931 331.992C185.247 331.992 186.171 330.998 186.171 329.57C186.171 328.142 185.247 327.148 183.931 327.148C182.601 327.148 181.691 328.142 181.691 329.57ZM193.512 326.154H194.814V333H193.638L193.498 331.964C193.106 332.678 192.196 333.168 191.188 333.168C189.592 333.168 188.696 332.09 188.696 330.41V326.154H190.012V329.976C190.012 331.446 190.642 332.006 191.65 332.006C192.854 332.006 193.512 331.236 193.512 329.766V326.154ZM202.022 333L199.782 326.154H201.14L202.274 329.71C202.428 330.214 202.568 330.732 202.694 331.334C202.806 330.732 202.988 330.158 203.142 329.71L204.29 326.154H205.634L206.768 329.71C206.88 330.046 207.104 330.844 207.216 331.334C207.328 330.788 207.454 330.312 207.65 329.71L208.798 326.154H210.17L207.832 333H206.586L205.396 329.332C205.172 328.646 205.032 328.114 204.962 327.736C204.892 328.072 204.766 328.52 204.514 329.346L203.324 333H202.022ZM211.942 324.53C211.466 324.53 211.074 324.138 211.074 323.662C211.074 323.172 211.466 322.794 211.942 322.794C212.418 322.794 212.81 323.172 212.81 323.662C212.81 324.138 212.418 324.53 211.942 324.53ZM211.298 333V326.154H212.614V333H211.298ZM216.456 333H215.14V327.26H213.796V326.154H215.14V324.012H216.456V326.154H217.8V327.26H216.456V333ZM220.297 332.986H218.981V322.696H220.297V327.204C220.731 326.462 221.557 325.958 222.621 325.958C224.371 325.958 225.211 327.064 225.211 328.814V333H223.895V329.108C223.895 327.722 223.237 327.162 222.257 327.162C220.983 327.162 220.297 328.086 220.297 329.262V332.986ZM230.072 330.55H228.854V330.2C228.854 329.01 229.624 328.366 230.38 327.778C231.066 327.246 231.696 326.728 231.696 325.804C231.696 324.726 230.982 323.928 229.834 323.928C228.728 323.928 227.902 324.796 227.902 325.944H226.544C226.544 324.082 227.972 322.696 229.862 322.696C231.85 322.696 233.082 323.956 233.082 325.734C233.082 327.204 232.13 327.918 231.318 328.506C230.576 329.038 230.072 329.486 230.072 330.2V330.55ZM229.526 333.196C228.966 333.196 228.518 332.748 228.518 332.202C228.518 331.656 228.966 331.208 229.526 331.208C230.058 331.208 230.52 331.67 230.52 332.202C230.52 332.734 230.058 333.196 229.526 333.196Z" fill="#121212"/>
<rect x="96" y="160" width="197" height="67" rx="12" fill="white"/>
<rect x="96.5" y="160.5" width="196" height="66" rx="11.5" stroke="black" stroke-opacity="0.1"/>
<circle cx="116" cy="180" r="12" fill="#FADDFF"/>
<circle cx="115.793" cy="177.517" r="2.48276" fill="#BFA6D9"/>
<path d="M120.138 185.172C120.138 184.02 119.68 182.915 118.865 182.1C118.051 181.285 116.945 180.827 115.793 180.827C114.641 180.827 113.536 181.285 112.721 182.1C111.906 182.915 111.448 184.02 111.448 185.172L120.138 185.172Z" fill="#BFA6D9"/>
<rect opacity="0.2" x="142" y="168" width="143" height="13" rx="6.5" fill="#D9D9D9"/>
<rect opacity="0.2" x="142" y="187" width="116" height="13" rx="6.5" fill="#D9D9D9"/>
<rect opacity="0.2" x="142" y="206" width="96" height="13" rx="6.5" fill="#D9D9D9"/>
<g opacity="0.5">
<rect x="96" y="352" width="197" height="67" rx="12" fill="white"/>
<rect x="96.5" y="352.5" width="196" height="66" rx="11.5" stroke="black" stroke-opacity="0.1"/>
<circle cx="116" cy="372" r="12" fill="#FADDFF"/>
<circle cx="115.793" cy="369.517" r="2.48276" fill="#BFA6D9"/>
<path d="M120.138 377.172C120.138 376.02 119.68 374.915 118.865 374.1C118.051 373.285 116.945 372.827 115.793 372.827C114.641 372.827 113.536 373.285 112.721 374.1C111.906 374.915 111.448 376.02 111.448 377.172L120.138 377.172Z" fill="#BFA6D9"/>
<rect opacity="0.2" x="142" y="360" width="143" height="13" rx="6.5" fill="#D9D9D9"/>
<rect opacity="0.2" x="142" y="379" width="116" height="13" rx="6.5" fill="#D9D9D9"/>
</g>
<path d="M301.588 219.668C301.588 216.98 302.98 215.156 305.164 215.156C307.336 215.156 308.728 216.98 308.728 219.668C308.728 222.368 307.396 224.156 305.164 224.156C302.92 224.156 301.588 222.368 301.588 219.668ZM302.752 219.668C302.752 221.804 303.64 223.1 305.164 223.1C306.688 223.1 307.564 221.804 307.564 219.668C307.564 217.508 306.688 216.212 305.164 216.212C303.64 216.212 302.752 217.508 302.752 219.668ZM309.229 215.324H315.289V216.404L312.001 224H310.777L314.101 216.404H309.229V215.324ZM317.143 219.644C316.675 219.644 316.279 219.26 316.279 218.816C316.279 218.348 316.675 217.964 317.143 217.964C317.599 217.964 317.995 218.348 317.995 218.816C317.995 219.26 317.599 219.644 317.143 219.644ZM317.143 224.144C316.675 224.144 316.279 223.76 316.279 223.304C316.279 222.836 316.675 222.452 317.143 222.452C317.599 222.452 317.995 222.836 317.995 223.304C317.995 223.76 317.599 224.144 317.143 224.144ZM321.162 216.38H319.338V215.324H322.29V224H321.162V216.38ZM324.981 218.072L327.009 215.324H328.377L326.205 218.204C326.505 218.084 326.817 218.024 327.117 218.024C328.917 218.024 330.129 219.32 330.129 221.036C330.129 222.848 328.761 224.144 326.973 224.144C325.173 224.144 323.781 222.788 323.781 221.036C323.781 220.004 324.093 219.284 324.981 218.072ZM324.981 221.048C324.981 222.236 325.797 223.088 326.973 223.088C328.125 223.088 328.941 222.236 328.941 221.048C328.941 219.86 328.125 219.02 326.973 219.02C325.797 219.02 324.981 219.86 324.981 221.048ZM335.274 224H334.05L337.218 215.324H338.526L341.706 224H340.47L339.69 221.84H336.042L335.274 224ZM337.722 217.196L336.402 220.82H339.342L338.01 217.196C337.95 217.028 337.89 216.824 337.866 216.692C337.842 216.812 337.782 217.016 337.722 217.196ZM344.012 224H342.86V215.324H344.012L347 222.62L349.988 215.324H351.164V224H350.012V220.568C350.012 218.948 350.024 218.36 350.084 217.748L347.552 224H346.448L343.928 217.772C343.988 218.192 344.012 219.08 344.012 220.292V224Z" fill="#121212"/>
<path d="M353.588 337.668C353.588 334.98 354.98 333.156 357.164 333.156C359.336 333.156 360.728 334.98 360.728 337.668C360.728 340.368 359.396 342.156 357.164 342.156C354.92 342.156 353.588 340.368 353.588 337.668ZM354.752 337.668C354.752 339.804 355.64 341.1 357.164 341.1C358.688 341.1 359.564 339.804 359.564 337.668C359.564 335.508 358.688 334.212 357.164 334.212C355.64 334.212 354.752 335.508 354.752 337.668ZM361.229 333.324H367.289V334.404L364.001 342H362.777L366.101 334.404H361.229V333.324ZM369.143 337.644C368.675 337.644 368.279 337.26 368.279 336.816C368.279 336.348 368.675 335.964 369.143 335.964C369.599 335.964 369.995 336.348 369.995 336.816C369.995 337.26 369.599 337.644 369.143 337.644ZM369.143 342.144C368.675 342.144 368.279 341.76 368.279 341.304C368.279 340.836 368.675 340.452 369.143 340.452C369.599 340.452 369.995 340.836 369.995 341.304C369.995 341.76 369.599 342.144 369.143 342.144ZM373.162 334.38H371.338V333.324H374.29V342H373.162V334.38ZM376.981 336.072L379.009 333.324H380.377L378.205 336.204C378.505 336.084 378.817 336.024 379.117 336.024C380.917 336.024 382.129 337.32 382.129 339.036C382.129 340.848 380.761 342.144 378.973 342.144C377.173 342.144 375.781 340.788 375.781 339.036C375.781 338.004 376.093 337.284 376.981 336.072ZM376.981 339.048C376.981 340.236 377.797 341.088 378.973 341.088C380.125 341.088 380.941 340.236 380.941 339.048C380.941 337.86 380.125 337.02 378.973 337.02C377.797 337.02 376.981 337.86 376.981 339.048ZM387.274 342H386.05L389.218 333.324H390.526L393.706 342H392.47L391.69 339.84H388.042L387.274 342ZM389.722 335.196L388.402 338.82H391.342L390.01 335.196C389.95 335.028 389.89 334.824 389.866 334.692C389.842 334.812 389.782 335.016 389.722 335.196ZM396.012 342H394.86V333.324H396.012L399 340.62L401.988 333.324H403.164V342H402.012V338.568C402.012 336.948 402.024 336.36 402.084 335.748L399.552 342H398.448L395.928 335.772C395.988 336.192 396.012 337.08 396.012 338.292V342Z" fill="#121212"/>
<circle cx="159" cy="111" r="12" fill="#FADDFF"/>
<circle cx="158.793" cy="108.517" r="2.48276" fill="#BFA6D9"/>
<path d="M163.138 116.172C163.138 115.02 162.68 113.915 161.865 113.1C161.051 112.285 159.945 111.827 158.793 111.827C157.641 111.827 156.536 112.285 155.721 113.1C154.906 113.915 154.448 115.02 154.448 116.172L163.138 116.172Z" fill="#BFA6D9"/>
<path d="M184.111 112.68H181.047V117H179.406V104.895H184.111C186.489 104.895 188.012 106.452 188.012 108.779C188.012 111.039 186.472 112.68 184.111 112.68ZM183.827 106.368H181.047V111.207H183.76C185.384 111.207 186.288 110.252 186.288 108.762C186.288 107.239 185.367 106.368 183.827 106.368ZM195.262 108.813H196.819V117H195.413L195.246 115.761C194.777 116.615 193.688 117.201 192.483 117.201C190.574 117.201 189.503 115.912 189.503 113.903V108.813H191.076V113.383C191.076 115.141 191.83 115.811 193.035 115.811C194.475 115.811 195.262 114.89 195.262 113.132V108.813ZM203.791 108.746V110.186H203.088C201.598 110.186 200.677 111.09 200.677 112.664V117H199.103V108.829H200.576L200.677 110.068C201.012 109.214 201.832 108.645 202.954 108.645C203.238 108.645 203.473 108.679 203.791 108.746ZM208.506 117.201C206.095 117.201 204.437 115.46 204.437 112.915C204.437 110.353 206.061 108.578 208.439 108.578C210.766 108.578 212.29 110.186 212.29 112.613V113.199L205.961 113.216C206.078 114.941 206.982 115.895 208.539 115.895C209.761 115.895 210.565 115.393 210.833 114.455H212.306C211.905 116.213 210.532 117.201 208.506 117.201ZM208.439 109.901C207.066 109.901 206.195 110.721 205.994 112.161H210.716C210.716 110.805 209.828 109.901 208.439 109.901ZM216.276 117H214.702V110.135H213.095V108.813H214.702V106.251H216.276V108.813H217.884V110.135H216.276V117ZM221.592 117.201C219.834 117.201 218.796 116.213 218.796 114.723C218.796 113.216 219.918 112.278 221.843 112.128L224.422 111.927V111.692C224.422 110.319 223.602 109.834 222.496 109.834C221.174 109.834 220.42 110.42 220.42 111.408H219.047C219.047 109.7 220.454 108.578 222.563 108.578C224.589 108.578 225.962 109.65 225.962 111.86V117H224.623L224.455 115.677C224.037 116.615 222.915 117.201 221.592 117.201ZM222.044 115.979C223.535 115.979 224.439 115.008 224.439 113.467V113.032L222.346 113.199C220.956 113.333 220.387 113.869 220.387 114.673C220.387 115.543 221.023 115.979 222.044 115.979ZM229.749 117H228.175V104.677H229.749V117ZM233.674 117H232.1V104.677H233.674V112.664L237.307 108.813H239.282L236.152 112.077L239.266 117H237.457L235.063 113.216L233.674 114.673V117ZM244.711 108.16C244.711 106.083 246.386 104.677 248.881 104.677C251.191 104.677 252.681 105.966 252.815 108.059H251.158C251.074 106.854 250.22 106.15 248.864 106.15C247.34 106.15 246.352 106.921 246.352 108.109C246.352 109.08 246.905 109.666 248.043 109.934L250.036 110.403C252.012 110.855 253.016 111.927 253.016 113.635C253.016 115.811 251.325 117.201 248.747 117.201C246.285 117.201 244.645 115.912 244.544 113.836H246.218C246.252 114.991 247.223 115.728 248.747 115.728C250.354 115.728 251.375 114.974 251.375 113.769C251.375 112.814 250.856 112.211 249.701 111.944L247.709 111.491C245.733 111.039 244.711 109.901 244.711 108.16ZM256.685 117H255.078V104.895H256.685L260.854 115.075L265.024 104.895H266.664V117H265.057V112.211C265.057 109.951 265.074 109.131 265.157 108.277L261.625 117H260.084L256.568 108.31C256.652 108.896 256.685 110.135 256.685 111.826V117ZM268.649 108.16C268.649 106.083 270.323 104.677 272.818 104.677C275.129 104.677 276.619 105.966 276.753 108.059H275.095C275.012 106.854 274.158 106.15 272.801 106.15C271.278 106.15 270.29 106.921 270.29 108.109C270.29 109.08 270.842 109.666 271.981 109.934L273.973 110.403C275.949 110.855 276.954 111.927 276.954 113.635C276.954 115.811 275.263 117.201 272.684 117.201C270.223 117.201 268.582 115.912 268.482 113.836H270.156C270.189 114.991 271.161 115.728 272.684 115.728C274.292 115.728 275.313 114.974 275.313 113.769C275.313 112.814 274.794 112.211 273.639 111.944L271.646 111.491C269.67 111.039 268.649 109.901 268.649 108.16Z" fill="#121212"/>
<path d="M104.098 65.9386C104.527 65.9415 104.945 66.0174 105.351 66.1664C105.759 66.3124 106.127 66.5519 106.455 66.8849C106.782 67.2149 107.042 67.6574 107.234 68.2123C107.427 68.7673 107.524 69.4537 107.524 70.2715C107.526 71.0425 107.445 71.7318 107.278 72.3393C107.115 72.9439 106.88 73.455 106.573 73.8727C106.266 74.2904 105.897 74.6087 105.464 74.8278C105.032 75.0468 104.546 75.1564 104.006 75.1564C103.439 75.1564 102.937 75.0454 102.498 74.8234C102.063 74.6014 101.711 74.2977 101.443 73.9121C101.174 73.5266 101.009 73.0856 100.948 72.589H102.547C102.628 72.9454 102.795 73.2287 103.046 73.439C103.3 73.6463 103.62 73.75 104.006 73.75C104.628 73.75 105.107 73.4799 105.443 72.9395C105.778 72.3992 105.946 71.6486 105.946 70.6877H105.885C105.742 70.9447 105.556 71.1667 105.329 71.3536C105.101 71.5376 104.842 71.6792 104.553 71.7785C104.267 71.8779 103.963 71.9275 103.642 71.9275C103.116 71.9275 102.643 71.8019 102.222 71.5507C101.805 71.2995 101.473 70.9549 101.228 70.5168C100.986 70.0787 100.863 69.5778 100.86 69.0141C100.86 68.4299 100.994 67.9057 101.263 67.4413C101.535 66.974 101.913 66.606 102.398 66.3372C102.883 66.0656 103.449 65.9327 104.098 65.9386ZM104.102 67.2529C103.786 67.2529 103.502 67.3303 103.248 67.4851C102.996 67.637 102.798 67.8443 102.652 68.1072C102.509 68.3671 102.437 68.6578 102.437 68.979C102.44 69.2974 102.512 69.5865 102.652 69.8465C102.795 70.1064 102.989 70.3123 103.234 70.4642C103.483 70.6161 103.766 70.692 104.084 70.692C104.321 70.692 104.541 70.6468 104.746 70.5562C104.95 70.4657 105.129 70.3401 105.28 70.1795C105.435 70.0159 105.555 69.8304 105.64 69.6231C105.727 69.4157 105.77 69.1966 105.767 68.9659C105.767 68.6592 105.694 68.3759 105.548 68.116C105.405 67.856 105.207 67.6472 104.956 67.4895C104.708 67.3317 104.423 67.2529 104.102 67.2529ZM109.723 73.9559C109.457 73.9559 109.229 73.8625 109.039 73.6756C108.85 73.4857 108.756 73.2579 108.759 72.9921C108.756 72.7292 108.85 72.5043 109.039 72.3174C109.229 72.1305 109.457 72.037 109.723 72.037C109.98 72.037 110.203 72.1305 110.393 72.3174C110.586 72.5043 110.684 72.7292 110.687 72.9921C110.684 73.1703 110.637 73.3324 110.546 73.4784C110.459 73.6244 110.342 73.7413 110.196 73.8289C110.053 73.9136 109.895 73.9559 109.723 73.9559ZM109.723 69.5091C109.457 69.5091 109.229 69.4157 109.039 69.2288C108.85 69.0389 108.756 68.8111 108.759 68.5453C108.756 68.2824 108.85 68.0575 109.039 67.8706C109.229 67.6808 109.457 67.5859 109.723 67.5859C109.98 67.5859 110.203 67.6808 110.393 67.8706C110.586 68.0575 110.684 68.2824 110.687 68.5453C110.684 68.7206 110.637 68.8812 110.546 69.0272C110.459 69.1733 110.342 69.2901 110.196 69.3777C110.053 69.4653 109.895 69.5091 109.723 69.5091ZM111.89 73.3689V72.0765L115.698 66.0612H116.775V67.9013H116.118L113.555 71.9626V72.0327H118.869V73.3689H111.89ZM116.171 75.0337V72.9746L116.188 72.3963V66.0612H117.722V75.0337H116.171ZM123.544 66.0612V75.0337H121.919V67.6428H121.866L119.768 68.9834V67.4939L121.998 66.0612H123.544Z" fill="#121212"/>
<path d="M139.876 65.8708L140.328 66.6821C140.737 67.4143 140.573 68.3748 139.929 69.0183C139.929 69.0183 139.929 69.0183 139.929 69.0183C139.929 69.0184 139.149 69.799 140.564 71.2142C141.979 72.629 142.759 71.8495 142.76 71.849C142.76 71.8489 142.76 71.849 142.76 71.8489C143.404 71.2054 144.364 71.0414 145.096 71.45L145.908 71.9028C147.013 72.5198 147.144 74.0702 146.172 75.042C145.588 75.6259 144.873 76.0802 144.082 76.1102C142.751 76.1607 140.49 75.8238 138.222 73.5561C135.955 71.2884 135.618 69.0277 135.668 67.6965C135.698 66.9057 136.152 66.1904 136.736 65.6065C137.708 64.6347 139.259 64.7653 139.876 65.8708Z" fill="#1C274C"/>
<path fill-rule="evenodd" clip-rule="evenodd" d="M353.659 66.1276H352.812C352.344 66.1276 351.965 66.5068 351.965 66.9746V74.3153C351.965 74.7831 352.344 75.1623 352.812 75.1623H353.659C354.127 75.1623 354.506 74.7831 354.506 74.3153V66.9746C354.506 66.5068 354.127 66.1276 353.659 66.1276ZM348.859 68.104H349.706C350.173 68.104 350.553 68.4832 350.553 68.951V74.3153C350.553 74.7831 350.173 75.1623 349.706 75.1623H348.859C348.391 75.1623 348.012 74.7831 348.012 74.3153V68.951C348.012 68.4832 348.391 68.104 348.859 68.104ZM345.755 70.0811H344.908C344.44 70.0811 344.061 70.4603 344.061 70.9281V74.3161C344.061 74.7839 344.44 75.1631 344.908 75.1631H345.755C346.223 75.1631 346.602 74.7839 346.602 74.3161V70.9281C346.602 70.4603 346.223 70.0811 345.755 70.0811ZM341.801 71.7747H340.954C340.487 71.7747 340.107 72.1539 340.107 72.6217V74.3157C340.107 74.7835 340.487 75.1627 340.954 75.1627H341.801C342.269 75.1627 342.648 74.7835 342.648 74.3157V72.6217C342.648 72.1539 342.269 71.7747 341.801 71.7747Z" fill="#121212"/>
<path fill-rule="evenodd" clip-rule="evenodd" d="M365.406 68.0625C367.291 68.0626 369.103 68.786 370.468 70.0833C370.571 70.1835 370.736 70.1822 370.837 70.0805L371.82 69.0892C371.871 69.0376 371.9 68.9677 371.899 68.895C371.899 68.8223 371.87 68.7527 371.818 68.7018C368.233 65.2695 362.578 65.2695 358.994 68.7018C358.942 68.7527 358.913 68.8222 358.912 68.895C358.912 68.9677 358.94 69.0376 358.991 69.0892L359.975 70.0805C360.076 70.1824 360.24 70.1836 360.343 70.0833C361.709 68.786 363.522 68.0625 365.406 68.0625ZM365.405 71.2877C366.441 71.2877 367.439 71.6722 368.206 72.3665C368.31 72.4651 368.474 72.4629 368.575 72.3617L369.557 71.3704C369.609 71.3185 369.637 71.2479 369.636 71.1746C369.636 71.1013 369.606 71.0314 369.553 70.9805C367.216 68.8084 363.597 68.8084 361.26 70.9805C361.207 71.0314 361.177 71.1014 361.176 71.1747C361.175 71.248 361.204 71.3185 361.256 71.3704L362.238 72.3617C362.339 72.4629 362.502 72.4651 362.606 72.3665C363.373 71.6726 364.371 71.2882 365.405 71.2877ZM367.372 73.4572C367.373 73.5307 367.345 73.6016 367.292 73.6531L365.594 75.3657C365.544 75.4161 365.476 75.4444 365.405 75.4444C365.334 75.4444 365.266 75.4161 365.217 75.3657L363.518 73.6531C363.465 73.6016 363.436 73.5307 363.438 73.4572C363.439 73.3837 363.471 73.3141 363.526 73.2648C364.611 72.3481 366.199 72.3481 367.284 73.2648C367.339 73.3141 367.37 73.3837 367.372 73.4572Z" fill="#121212"/>
<rect opacity="0.35" x="376.729" y="66.5511" width="17.7871" height="8.75238" rx="1.83518" stroke="#121212" stroke-width="0.847005"/>
<path opacity="0.4" d="M395.785 69.2335V72.6215C396.467 72.3346 396.91 71.6671 396.91 70.9275C396.91 70.188 396.467 69.5205 395.785 69.2335Z" fill="#121212"/>
<rect x="378" y="67.8213" width="15.2461" height="6.21137" rx="1.12934" fill="#121212"/>
<rect x="100.011" y="97.0439" width="27.5566" height="27.5566" rx="13.7783" fill="white"/>
<rect x="100.36" y="97.3928" width="26.859" height="26.859" rx="13.4295" stroke="black" stroke-opacity="0.1" stroke-width="0.697635"/>
<path fill-rule="evenodd" clip-rule="evenodd" d="M116.222 105.542C116.442 105.73 116.467 106.06 116.279 106.279L112.385 110.822L116.279 115.365C116.467 115.585 116.442 115.915 116.222 116.103C116.003 116.291 115.673 116.266 115.485 116.046L111.299 111.163C111.131 110.967 111.131 110.678 111.299 110.482L115.485 105.598C115.673 105.379 116.003 105.353 116.222 105.542Z" fill="#1C274C"/>
<rect width="27.9054" height="27.9054" rx="13.9527" transform="matrix(-1 0 0 1 395.11 97.0439)" fill="white"/>
<rect x="-0.348818" y="0.348818" width="27.2078" height="27.2078" rx="13.6039" transform="matrix(-1 0 0 1 394.413 97.0439)" stroke="black" stroke-opacity="0.1" stroke-width="0.697635"/>
<path d="M377.669 110.997C377.669 111.767 377.045 112.392 376.274 112.392C375.504 112.392 374.879 111.767 374.879 110.997C374.879 110.226 375.504 109.601 376.274 109.601C377.045 109.601 377.669 110.226 377.669 110.997Z" fill="#1C274C"/>
<path d="M382.553 110.997C382.553 111.767 381.928 112.392 381.158 112.392C380.387 112.392 379.762 111.767 379.762 110.997C379.762 110.226 380.387 109.601 381.158 109.601C381.928 109.601 382.553 110.226 382.553 110.997Z" fill="#1C274C"/>
<path d="M387.436 110.997C387.436 111.767 386.812 112.392 386.041 112.392C385.27 112.392 384.646 111.767 384.646 110.997C384.646 110.226 385.27 109.601 386.041 109.601C386.812 109.601 387.436 110.226 387.436 110.997Z" fill="#1C274C"/>
</g>
<defs>
<filter id="filter0_b_256_2890" x="-10.4" y="-7.4" width="514.8" height="514.8" filterUnits="userSpaceOnUse" color-interpolation-filters="sRGB">
<feFlood flood-opacity="0" result="BackgroundImageFix"/>
<feGaussianBlur in="BackgroundImageFix" stdDeviation="18.2"/>
<feComposite in2="SourceAlpha" operator="in" result="effect1_backgroundBlur_256_2890"/>
<feBlend mode="normal" in="SourceGraphic" in2="effect1_backgroundBlur_256_2890" result="shape"/>
</filter>
<linearGradient id="paint0_linear_256_2890" x1="-28.5348" y1="-12.2706" x2="372.339" y2="486.571" gradientUnits="userSpaceOnUse">
<stop offset="0.111618" stop-color="#6E5DED"/>
<stop offset="0.486101" stop-color="#B18EED"/>
<stop offset="0.921954" stop-color="#CDB6D1"/>
</linearGradient>
<linearGradient id="paint1_linear_256_2890" x1="62.2931" y1="28.6485" x2="309.78" y2="587.01" gradientUnits="userSpaceOnUse">
<stop stop-color="#CDB6D1"/>
<stop offset="0.537437" stop-color="#B297E1"/>
<stop offset="1" stop-color="#C289FF"/>
</linearGradient>
<linearGradient id="paint2_linear_256_2890" x1="247" y1="29" x2="247" y2="471" gradientUnits="userSpaceOnUse">
<stop stop-color="white"/>
<stop offset="1" stop-color="#999999"/>
</linearGradient>
<clipPath id="clip0_256_2890">
<path d="M73 68.8595C73 62.6081 73 59.4824 74.2166 57.0946C75.2868 54.9944 76.9944 53.2868 79.0946 52.2166C81.4824 51 84.6081 51 90.8595 51H403.141C409.392 51 412.518 51 414.905 52.2166C417.006 53.2868 418.713 54.9944 419.783 57.0946C421 59.4824 421 62.6081 421 68.8595V388H73V68.8595Z" fill="white"/>
</clipPath>
</defs>
</svg>
