<svg width="64" height="64" viewBox="0 0 64 64" fill="none" xmlns="http://www.w3.org/2000/svg">
<path d="M58.6667 32.0002C58.6667 46.7278 46.7276 58.6668 32 58.6668C17.2724 58.6668 5.33337 46.7278 5.33337 32.0002C5.33337 17.2726 17.2724 5.3335 32 5.3335C46.7276 5.3335 58.6667 17.2726 58.6667 32.0002Z" fill="white"/>
<path d="M21.5364 22.9797C21.3334 23.4697 21.3334 24.091 21.3334 25.3335V38.6668C21.3334 39.9093 21.3334 40.5306 21.5364 41.0207C21.807 41.6741 22.3261 42.1932 22.9796 42.4638C23.4696 42.6668 24.0909 42.6668 25.3334 42.6668C26.5759 42.6668 27.1971 42.6668 27.6872 42.4638C28.3406 42.1932 28.8597 41.6741 29.1304 41.0207C29.3334 40.5306 29.3334 39.9093 29.3334 38.6668V25.3335C29.3334 24.091 29.3334 23.4697 29.1304 22.9797C28.8597 22.3263 28.3406 21.8071 27.6872 21.5365C27.1971 21.3335 26.5759 21.3335 25.3334 21.3335C24.0909 21.3335 23.4696 21.3335 22.9796 21.5365C22.3261 21.8071 21.807 22.3263 21.5364 22.9797Z" fill="#121212"/>
<path d="M34.8697 22.9797C34.6667 23.4697 34.6667 24.091 34.6667 25.3335V38.6668C34.6667 39.9093 34.6667 40.5306 34.8697 41.0207C35.1403 41.6741 35.6595 42.1932 36.3129 42.4638C36.8029 42.6668 37.4242 42.6668 38.6667 42.6668C39.9092 42.6668 40.5305 42.6668 41.0205 42.4638C41.6739 42.1932 42.1931 41.6741 42.4637 41.0207C42.6667 40.5306 42.6667 39.9093 42.6667 38.6668V25.3335C42.6667 24.091 42.6667 23.4697 42.4637 22.9797C42.1931 22.3263 41.6739 21.8071 41.0205 21.5365C40.5305 21.3335 39.9092 21.3335 38.6667 21.3335C37.4242 21.3335 36.8029 21.3335 36.3129 21.5365C35.6595 21.8071 35.1403 22.3263 34.8697 22.9797Z" fill="#121212"/>
</svg>
