<svg width="1600" height="380" viewBox="0 0 1600 380" fill="none" xmlns="http://www.w3.org/2000/svg">
<path fill-rule="evenodd" clip-rule="evenodd" d="M2184.82 506.109C2162.65 505.536 2140.48 505.995 2118.31 506.086C2093.22 505.847 2068.13 505.601 2043.05 505.358C2026.19 504.081 2009.33 502.794 1992.48 501.624C1992.14 501.598 1991.79 502.959 1991.45 503.677C1989.93 503.598 1988.41 503.525 1986.89 503.448C1986.37 501.658 1985.87 498.334 1985.33 498.296C1960.29 496.569 1935.24 495.282 1910.2 493.589C1896.08 492.634 1881.96 491.479 1867.86 489.487C1864.3 488.983 1859.12 479.868 1857.56 483.325C1847.39 505.821 1839.45 489.616 1831.75 476.651C1828.13 483.719 1824.87 490.09 1821.92 495.837C1815.11 487.08 1808.96 479.159 1803.03 471.531C1800.2 480.872 1797.61 489.446 1794.09 501.094C1784.14 458.2 1773.98 482.569 1763.61 497.757C1761.58 488.314 1759.95 480.698 1758.04 471.806C1750.25 478.118 1742.78 484.18 1736.51 489.265C1733.58 481.824 1731.35 476.166 1729.12 470.506C1725.14 493.902 1715.78 458.024 1711.4 480.611C1711.34 480.946 1706.34 472.363 1703.74 472.712C1700.89 473.093 1698.15 479.017 1694.87 483.151C1693.93 474.075 1693.06 465.693 1692.33 458.606C1685.37 454.654 1680.55 456.587 1679.8 475.887C1674.05 464.216 1673.85 490.094 1668.22 485.16C1667.41 479.942 1666.39 472.936 1665.31 465.924C1664.8 466.347 1664.15 466.772 1663.87 467.198C1663.87 482.142 1663.87 497.081 1663.87 512.023C1663.01 512.203 1662.28 512.16 1661.53 511.9C1661.1 490.596 1660.64 469.289 1660.22 447.989C1652.3 467.471 1645.32 479.174 1635.26 464.846C1634.04 455.768 1632.61 445.167 1631.38 435.936C1626.04 450.292 1621 463.835 1616.67 475.485C1612.45 462.895 1608.12 450.114 1604 437.802C1599.37 450.792 1596.22 460.124 1590.8 474.71C1590.8 481.645 1590.8 496.624 1590.8 511.606C1590.23 511.797 1589.59 511.832 1588.96 511.718C1587.97 486.517 1586.99 461.318 1585.7 428.659C1582.71 446.228 1581.12 455.613 1579.15 467.166C1576.91 450.476 1575.16 437.448 1573.41 424.422C1572.51 424.943 1571.61 425.459 1570.72 425.979C1570.13 436.343 1569.54 446.7 1568.64 462.641C1567.28 451.17 1566.69 446.113 1566.04 440.574C1564.19 444.475 1562.78 447.464 1559.84 453.677C1559.28 428.573 1558.85 408.815 1558.41 389.056C1557.82 389.029 1557.23 389.007 1556.64 388.982C1555.18 411.977 1553.72 434.971 1551.71 466.622C1548.71 444.477 1546.73 430.217 1544.81 415.953C1544.17 416.124 1543.71 416.302 1542.85 416.473C1542.85 434.232 1542.85 451.989 1542.85 469.746C1542.28 469.822 1541.81 469.897 1541.26 469.969C1540.28 455.573 1539.32 441.175 1538.33 426.782C1537.64 427.167 1536.95 427.548 1536.25 427.935C1534.9 446.653 1533.55 465.371 1532.2 484.093C1531.07 443.277 1534.6 401.424 1527.94 358.709C1526.75 393.217 1525.66 424.764 1524.56 456.314C1523.66 456.185 1522.76 456.058 1521.85 455.927C1520.39 442.81 1518.88 429.69 1517.42 416.569C1516.59 416.817 1515.74 417.064 1514.88 417.307C1514.88 435.346 1514.88 453.389 1514.88 471.425C1513.74 471.372 1512.61 471.317 1511.46 471.264C1511.01 450.188 1510.59 429.113 1510.11 406.602C1508.31 410.727 1507.28 413.11 1506.03 415.995C1504.53 383.119 1503.11 351.767 1501.37 313.402C1499.95 352.486 1498.8 384.276 1497.65 416.073C1496.58 432.014 1495.51 447.959 1494.45 463.902C1493.74 463.688 1493.03 463.477 1492.33 463.263C1491.97 447.703 1491.62 432.147 1491.17 412.638C1488.37 434.501 1486.34 451.401 1484.06 468.299C1484.06 448.753 1484.06 429.208 1484.06 406.544C1475.21 414.171 1475.74 399.334 1475.68 386.821C1475.54 358.127 1475.63 329.431 1475.63 300.731C1471.56 348.405 1469.56 395.969 1467.67 443.563C1467.25 454.244 1467.25 465.035 1467.05 475.775C1466.72 475.684 1466.38 475.597 1466.04 475.506C1464.93 455.381 1463.81 435.257 1462.69 415.134C1461.79 415.439 1460.88 415.747 1459.97 416.054C1459.68 429.387 1459.39 442.716 1459.09 456.049C1458.51 456.083 1457.92 456.119 1457.34 456.153C1456.97 434.487 1456.6 412.816 1456.23 391.15C1455.01 391.262 1453.78 391.374 1452.55 391.486C1451.91 410.358 1451.28 429.231 1450.64 448.101C1449.41 447.957 1448.1 447.807 1446.95 447.661C1446.95 391.698 1446.95 335.728 1446.95 279.765C1445.81 279.814 1445 279.863 1444.04 279.911C1442.12 350.124 1440.26 420.341 1438.35 490.557C1437.39 490.428 1436.39 490.302 1435.54 490.173C1435.54 481.145 1435.54 472.119 1435.54 463.094C1435.54 453.924 1435.54 444.757 1435.54 435.898C1424.41 430.378 1419.5 416.753 1419.33 390.988C1419.13 360.425 1419.25 329.842 1419.25 299.268C1412.73 344.182 1415.6 394.944 1402.74 433.983C1401.57 420.838 1400.4 407.689 1399.23 394.403C1397.57 401.697 1395.85 409.074 1394.18 416.448C1393.43 416.139 1392.72 415.83 1391.87 415.521C1391.87 374.605 1391.87 333.688 1391.87 290.452C1388.16 329.926 1384.47 366.014 1380.14 409.978C1379.1 394.157 1378.62 386.573 1377.82 374.366C1373.68 393.057 1370.38 408.017 1365.87 428.348C1364.58 383.879 1366.46 345.619 1364.53 308.298C1363.29 308.397 1362.05 308.497 1360.81 308.597C1360.38 329.546 1359.91 350.496 1359.47 371.447C1358.67 371.284 1357.91 371.121 1357.05 370.956C1357.05 349.313 1357.05 327.668 1357.05 306.021C1356.76 305.976 1356.23 305.932 1355.81 305.887C1354.89 318.99 1353.99 332.096 1352.74 349.91C1349.92 340.167 1348.83 336.382 1348.28 334.463C1345.39 363.37 1342.48 392.536 1339.23 425.076C1323.93 359.856 1334.42 289.127 1328.86 224.619C1327.59 224.803 1326.22 224.985 1325.08 225.169C1325.08 269.228 1325.08 313.291 1325.08 357.354C1324.22 357.251 1323.75 357.147 1323.11 357.047C1322.54 340.245 1321.94 323.445 1321.37 306.641C1319.98 306.825 1318.57 307.005 1317.18 307.187C1315.34 368.584 1313.49 429.985 1311.65 491.381C1310.77 476.984 1309.2 462.607 1309.13 448.183C1308.83 391.545 1309.06 334.896 1309.06 278.245C1308.1 278.258 1307.1 278.267 1306.24 278.279C1306.24 342.055 1306.24 405.833 1306.24 469.609C1305.39 469.628 1304.65 469.645 1303.88 469.659C1302.56 392.307 1301.2 314.961 1299.88 237.609C1299.39 237.645 1298.88 237.679 1298.39 237.715C1297.58 283.353 1296.77 328.991 1295.97 374.631C1295.28 376.904 1294.59 379.184 1293.9 381.461C1293.67 380.572 1293.24 379.685 1293.24 378.794C1293.2 354.19 1293.2 329.586 1293.2 304.983C1292.05 304.905 1290.9 304.827 1289.75 304.748C1288.97 328.296 1288.28 351.868 1287.38 375.389C1285.82 416.169 1284.12 456.917 1282.49 497.68C1282.25 424.267 1282.02 350.856 1281.78 277.445C1280.27 277.32 1278.76 277.202 1277.25 277.075C1275.95 329.128 1277.22 381.719 1276.38 433.87C1275.4 433.773 1274.56 433.678 1273.42 433.583C1273.42 343.016 1273.42 252.449 1273.42 161.88C1270.28 226.088 1269.48 290.272 1268.48 354.431C1268.28 367.768 1266.86 380.981 1266 394.252C1266 378.411 1266 362.57 1266 346.731C1264.86 346.582 1263.62 346.428 1262.44 346.28C1260.9 369.073 1259.35 391.861 1257.8 414.655C1256.93 403.691 1255.7 392.826 1255.26 381.754C1253.86 347.091 1252.68 312.345 1251.46 277.635C1251 277.695 1250.59 277.763 1250.02 277.824C1250.02 356.07 1250.02 434.319 1250.02 512.565C1249.16 512.577 1247.82 512.594 1246.69 512.609C1246.8 414.947 1247.05 317.285 1246.91 219.621C1246.89 206.985 1245.04 194.361 1244.03 181.731C1241.72 237.956 1241.9 293.07 1241.61 348.166C1241.54 361.427 1239.94 374.628 1239.04 387.858C1238.03 369.466 1237.02 351.07 1236 332.678C1235.35 332.932 1234.7 333.188 1234.04 333.44C1233.01 358.243 1231.98 383.051 1230.95 407.85C1230.07 394.616 1228.68 381.44 1228.44 368.133C1228.03 344.688 1228.33 321.161 1228.33 297.668C1227.14 297.588 1225.95 297.505 1224.75 297.427C1220.76 361.412 1224.39 426.79 1221.28 491.055C1219.98 390.326 1218.67 289.597 1217.37 188.866C1214.86 249.953 1215.02 310.893 1214.75 371.826C1214.69 386.488 1213.22 401.113 1212.41 415.756C1211.44 404.04 1209.83 392.398 1209.64 380.598C1209.21 355.026 1209.5 329.372 1209.5 303.749C1208.56 303.754 1207.61 303.753 1206.67 303.758C1206.67 320.501 1206.87 337.278 1206.43 353.938C1206.37 356.319 1203.17 358.152 1201.43 360.24C1200.54 346.976 1199 333.753 1198.88 320.444C1198.53 283.004 1198.76 245.525 1198.76 208.062C1198.1 208.056 1197.45 208.051 1196.8 208.047C1195.37 281.316 1193.94 354.586 1192.51 427.857C1191.88 427.804 1191.24 427.749 1190.6 427.696C1190.6 416.357 1190.6 405.018 1190.6 393.683C1190.6 304.918 1190.66 216.156 1190.51 127.395C1190.49 116.545 1189.35 105.71 1188.74 94.8678C1187.58 95.2848 1186.37 95.704 1185.23 96.1231C1185.23 107.407 1185.23 118.694 1185.23 129.98C1185.23 199.147 1185.38 268.314 1185.13 337.474C1185.08 349.55 1183.48 361.59 1182.59 373.647C1181.9 322.503 1181.22 271.359 1180.53 220.218C1179.65 220.246 1178.77 220.271 1177.88 220.299C1176.76 280.673 1175.64 341.05 1174.52 401.42C1173.61 388.229 1171.96 375.048 1171.92 361.837C1171.68 276.473 1171.81 191.103 1171.81 105.735C1171.81 91.4325 1171.81 77.1301 1171.81 62.8276C1168.39 125.871 1167.06 188.844 1166.56 251.86C1166.05 314.942 1166.44 378.071 1166.44 441.176C1165.82 441.139 1165.21 441.106 1164.6 441.067C1163.24 324.065 1161.86 207.061 1160.5 90.0588C1159.71 90.0545 1158.97 90.0481 1158.12 90.0417C1158.12 188.62 1158.12 287.197 1158.12 385.775C1157.54 385.743 1156.95 385.714 1156.36 385.684C1154.95 326.362 1153.55 267.037 1152.13 207.717C1151.9 207.683 1151.67 207.652 1151.43 207.62C1150.2 251.19 1148.96 294.762 1147.73 338.336C1142.51 274.194 1148.8 208.54 1140.8 145.518C1139.89 150.067 1139.65 154.55 1139.59 159.044C1138.65 231.462 1137.8 303.887 1136.7 376.284C1136.57 384.971 1135 393.52 1134.14 402.135C1134.14 316.924 1134.14 231.712 1134.14 146.502C1133.28 146.515 1132.38 146.528 1131.49 146.541C1131.49 182.148 1132.03 217.81 1131.41 253.347C1130.79 289.176 1134.42 326.25 1126.15 360.591C1126.15 300.149 1126.15 239.711 1126.15 179.267C1125.58 179.258 1125.1 179.244 1124.6 179.233C1123.29 218.709 1122 258.188 1120.69 297.664C1115.98 251.774 1121.58 203.78 1112.16 159.294C1112.16 239.002 1112.16 318.71 1112.16 398.418C1110.45 398.471 1109.1 398.522 1107.59 398.575C1106.83 307.775 1107.68 216.776 1105.68 126.002C1103.49 183.333 1102.8 240.629 1101.83 297.894C1101.6 311.242 1100.17 324.465 1099.32 337.746C1099.32 301.453 1099.32 265.158 1099.32 228.867C1098.18 228.929 1097.04 228.99 1095.89 229.053C1095.89 276.766 1095.89 324.478 1095.89 372.127C1083.91 314.974 1090.54 252.906 1086.21 193.643C1081.18 288.261 1084.45 383.572 1081.37 478.37C1080.26 394.854 1079.1 311.342 1077.98 227.828C1076.93 227.849 1075.91 227.872 1074.77 227.896C1074.77 265.321 1074.77 302.744 1074.77 340.169C1072.49 328.794 1072.32 317.54 1072.31 306.281C1072.31 240.562 1072.5 174.835 1072.2 109.122C1072.13 93.2975 1070.53 77.5197 1069.62 61.7186C1069.04 61.962 1068.46 62.2053 1067.87 62.4509C1066.78 145.776 1065.69 229.102 1064.6 312.432C1063.94 312.407 1063.28 312.385 1062.62 312.362C1061.35 252.015 1060.08 191.669 1058.81 131.324C1057.94 131.349 1057.08 131.372 1056.22 131.396C1056.22 142.216 1056.22 153.041 1056.22 163.857C1056.22 263.016 1056.34 362.17 1056.13 461.326C1056.09 478.378 1054.66 495.407 1053.88 512.444C1053.57 514.624 1053.56 516.819 1053.84 519.023C1053.43 522.433 1053.05 525.845 1051.89 535.444C1051.14 523.089 1050.8 517.675 1050.51 512.26C1050.51 408.792 1050.51 305.322 1050.51 201.856C1049.66 201.841 1048.52 201.827 1047.66 201.812C1047.66 252.035 1047.66 302.257 1047.66 352.482C1043.66 283.272 1048.79 212.973 1040.94 144.691C1040.03 212.397 1040.18 280.068 1039.92 347.727C1039.87 360.9 1038.31 374.034 1037.45 387.189C1037.43 356.021 1038 324.772 1037.28 293.714C1035.74 227.417 1033.54 161.224 1031.61 94.9867C1029.76 100.363 1029.38 105.739 1029.34 111.135C1028.54 247.045 1027.77 382.956 1027 518.87C1026.67 528.74 1026.34 538.613 1026.01 548.479C1025.51 548.47 1025.05 548.456 1024.55 548.443C1024.25 536.382 1023.97 524.321 1023.69 512.256C1023.69 434.179 1023.69 356.106 1023.69 278.034C1022.54 278.059 1021.69 278.084 1020.83 278.108C1020.83 293.75 1020.83 309.386 1020.83 325.026C1019.69 324.982 1018.83 324.939 1017.87 324.897C1016.93 223.296 1015.98 121.693 1015.05 20.0897C1014.41 20.1045 1013.7 20.1191 1013.12 20.1318C1013.12 131.449 1013.12 242.763 1013.12 354.078C1012.27 354.088 1011.41 354.095 1010.56 354.105C1010.56 270.541 1010.56 186.971 1010.56 103.4C1009.7 103.362 1008.84 103.326 1007.99 103.288C1007.99 124.614 1007.99 145.939 1007.99 173.101C1005.42 163.283 1004.53 159.158 1003.5 155.031C1002.51 154.98 1001.42 154.931 1000.57 154.882C1000.57 197.472 1000.57 240.064 1000.57 282.658C999.711 282.478 998.969 282.301 998.206 282.121C996.922 261.233 995.539 240.348 994.257 219.461C993.35 219.655 992.575 219.846 991.434 220.034C991.434 271.529 991.434 323.024 991.434 374.518C990.577 374.525 989.721 374.527 988.579 374.531C988.579 277.701 988.579 180.867 988.579 84.0327C987.722 84.0835 986.581 84.1319 985.724 84.1785C985.724 102.111 985.724 120.044 985.724 137.978C985.154 137.908 984.891 137.834 984.485 137.758C983.029 98.4619 981.563 59.1678 980.106 19.8778C979.49 19.9074 978.868 19.9373 978.251 19.969C978.251 31.3124 978.251 42.6641 978.249 54.0138C978.246 147.457 978.347 240.907 978.119 334.348C978.087 347.508 976.438 360.639 975.538 373.784C975.503 339.314 975.467 304.843 975.432 270.375C974.186 270.284 972.943 270.193 971.696 270.102C970.115 302.795 968.563 335.483 966.981 368.171C966.276 368.052 965.459 367.933 964.889 367.815C964.889 334.744 964.889 301.675 964.889 268.602C964.319 268.348 963.794 268.093 963.26 267.842C962.51 273.542 961.745 279.24 960.995 284.938C960.335 284.97 959.667 285.002 959.008 285.033C957.099 190.022 955.187 95.0118 953.279 0C952.528 105.199 952.556 210.101 941.143 310.739C940.831 304.865 940.34 296.671 939.551 281.854C937.873 314.701 936.634 340.315 935.206 365.931C935.206 265.098 935.206 164.272 935.206 63.4436C933.779 63.469 932.352 63.4924 930.639 63.5157C930.639 155.581 930.639 247.644 930.639 339.706C929.498 339.701 928.356 339.695 926.929 339.687C926.929 283.651 926.929 227.616 926.929 171.579C923.505 241.396 927.604 312.904 917.27 378.337C915.992 283.002 914.753 185.479 913.451 88.4397C912.547 88.4397 911.516 88.4397 910.661 88.4397C910.661 164.895 910.661 241.625 910.661 318.234C909.803 318.213 908.948 318.196 907.806 318.177C907.806 290.613 907.806 263.043 907.806 235.48C907.521 235.533 907.01 235.588 906.595 235.641C905.173 274.975 903.767 314.305 902.343 353.637C900.238 342.129 900.549 330.781 900.16 319.59C899.777 308.59 898.695 297.75 897.917 286.843C896.908 287.051 895.901 287.26 894.892 287.465C893.535 298.601 892.176 309.742 890.818 320.878C889.947 320.827 889.079 320.772 888.21 320.723C887.505 291.65 886.8 262.575 886.097 233.507C884.08 275.796 884.271 318.011 883.966 360.199C883.871 373.513 882.444 386.764 881.628 400.04C880.654 281.607 879.692 163.174 878.676 44.7406C878.626 38.9811 878.175 33.2469 877.874 27.5022C877.174 27.6292 876.41 27.7519 875.839 27.881C875.839 131.647 875.839 235.416 875.839 339.185C875.268 339.178 874.8 339.174 874.316 339.168C873.348 253.493 872.401 167.816 871.435 82.1362C870.422 82.1785 869.274 82.2231 868.417 82.2633C868.417 225.682 868.417 369.1 868.417 512.522C868.132 514.69 868.079 516.851 868.388 519.006C867.979 522.579 867.544 526.148 866.392 536.206C865.635 523.413 865.291 517.836 864.961 512.26C865.069 483.448 865.235 454.637 865.262 425.825C865.304 383.171 864.739 340.467 865.364 297.875C866.002 254.379 852.516 220.601 853.567 177.173C853.614 175.179 851.864 172.883 849.01 166.628C849.01 236.762 849.01 302.278 849.01 367.79C848.439 367.768 847.567 367.748 846.817 367.731C845.459 284.094 844.128 200.457 842.769 116.82C842.52 116.852 842.286 116.877 842.037 116.909C840.62 188.553 839.22 260.194 837.804 331.842C836.966 331.772 836.166 331.704 835.31 331.63C835.31 230.014 835.31 128.399 835.31 26.7826C834.74 26.7742 834.213 26.7678 833.669 26.7614C832.245 94.0298 830.816 161.302 829.26 234.772C827.65 202.504 826.35 176.792 825.067 151.083C824.062 123.634 827.318 94.5314 819.042 61.6804C819.042 145.057 819.042 220.828 819.042 296.595C818.184 296.557 817.329 296.521 816.758 296.485C816.758 223.027 816.758 149.569 816.758 76.1096C816.188 76.0757 815.74 76.0423 815.254 76.0042C813.853 120.173 812.429 164.34 811.028 208.507C810.6 208.585 810.161 208.665 809.732 208.742C809.104 199.081 808.471 189.416 807.845 179.753C805.705 202.159 808.639 228.232 805.014 244.77C799.588 269.525 800.996 293.158 800.785 317.438C800.372 364.729 800.835 412.071 800.612 459.383C800.555 471.725 799.312 484.036 798.613 496.364C798.419 463.007 798.526 429.625 797.946 396.312C797.378 363.77 796.16 331.309 795.2 298.809C794.283 298.942 793.354 299.084 792.498 299.217C792.498 333.431 792.498 367.648 792.498 401.862C791.927 401.919 791.42 401.978 790.906 402.031C789.407 369.193 787.905 336.357 786.406 303.518C785.774 303.607 785.076 303.694 784.505 303.783C784.505 343.683 784.505 383.58 784.505 423.478C783.935 423.484 783.506 423.493 783.017 423.499C781.668 358.023 780.348 292.55 779 227.074C778.065 227.087 777.083 227.102 776.228 227.116C776.228 260.054 776.228 292.996 776.228 325.94C775.657 325.854 775.069 325.771 774.508 325.685C774.07 321.252 773.611 316.82 773.173 312.39C772.512 298.779 771.945 285.135 771.153 271.578C770.301 256.971 769.157 242.444 768.182 227.881C767.177 228.141 766.238 228.402 765.097 228.666C765.097 267.45 765.097 306.236 765.097 345.025C764.811 344.936 764.448 344.847 764.09 344.76C762.737 290.08 761.42 235.399 760.067 180.721C757.7 261.557 757.871 342.146 757.621 422.722C757.585 434.207 755.677 445.654 754.821 457.122C754.821 387.934 754.821 318.744 754.821 249.554C754.251 249.547 753.542 249.537 752.923 249.528C752.587 266.036 752.231 282.544 751.741 306.687C750.028 293.259 749.289 287.553 748.561 281.848C747.818 281.92 747.068 281.99 746.325 282.062C744.578 338.342 742.829 394.619 741.082 450.897C740.209 451.141 739.333 451.384 738.459 451.626C736.432 425.237 734.404 398.848 732.192 370.05C731.253 377.16 730.497 382.88 729.115 393.338C727.593 321.362 726.223 254.181 724.803 186.995C724.138 187.056 723.425 187.12 722.856 187.181C722.856 233.111 722.856 279.041 722.856 324.973C710.582 324.143 717.53 294.006 712.868 280.478C711.81 283.573 710.207 286.03 710.199 288.526C709.936 363.114 709.815 437.708 709.682 512.3C709.336 523.768 708.985 535.237 708.639 546.707C708.135 546.597 707.628 546.489 707.123 546.383C706.853 535.016 706.581 523.654 706.311 512.29C706.344 411.887 706.39 311.49 706.352 211.087C706.351 207.946 705.513 204.745 704.963 201.697C704.8 200.804 704.303 200.176 703.909 199.742C703.514 199.306 703.054 199.265 701.264 198.378C701.264 248.368 701.442 297.759 701.146 347.131C701.065 360.39 699.545 373.587 698.685 386.81C698.626 360.362 699.105 333.798 698.283 307.508C697.873 294.376 695.053 281.74 693.341 268.881C692.154 269.577 690.89 270.274 689.747 270.97C689.747 310.152 689.747 349.332 689.747 388.516C688.321 385.07 688.061 381.688 687.708 378.475C687.429 375.96 686.888 373.655 686.455 371.257C685.807 371.409 685.168 371.562 684.519 371.71C683.508 397.726 682.498 423.74 681.487 449.756C681.23 449.657 680.975 449.555 680.719 449.458C679.34 400.888 677.963 352.317 676.584 303.749C674.387 353.127 674.569 402.349 674.267 451.549C674.186 464.698 672.627 477.784 671.746 490.897C670.934 428.621 670.121 366.344 669.309 304.069C668.005 303.954 666.701 303.836 665.398 303.722C664.794 326.925 664.188 350.126 663.584 373.329C655.921 370.285 658.403 354.359 658.287 343.204C657.934 309.695 658.159 276.143 658.159 242.607C656.877 242.482 655.593 242.359 654.309 242.232C653.57 270.162 652.853 298.095 652.114 326.025C651.522 326.025 650.933 326.029 650.362 326.029C650.362 284.108 650.362 242.189 650.362 200.264C649.506 200.247 648.78 200.226 648.002 200.207C646.612 276.355 645.211 352.505 643.821 428.653C643.617 428.587 643.408 428.519 643.205 428.45C641.877 359.039 640.547 289.629 639.22 220.216C637.924 220.072 636.622 219.922 635.326 219.778C632.339 263.915 635.521 309.577 631.239 353.951C631.239 332.987 631.239 312.023 631.239 291.06C630.669 291.102 630.129 291.138 629.573 291.178C628.64 332.924 627.769 374.665 626.837 416.408C625.621 416.3 624.389 416.188 623.249 416.082C623.249 364.93 623.249 313.776 623.249 262.622C619.538 309.653 619.961 358.148 612.393 402.307C611.376 402 610.405 401.695 609.263 401.39C609.263 378.43 609.263 355.47 609.263 332.509C607.836 319.98 605.373 307.725 604.604 294.861C603.15 270.564 602.587 245.913 601.648 221.412C599.29 231.558 599.371 249.355 597.945 250.195C587.36 256.412 591.805 276.057 591.459 291.405C590.151 292.404 587.735 294.502 587.697 294.245C585.995 282.826 583.457 271.357 583.193 259.574C582.554 231.005 582.985 202.279 582.985 173.619C580.605 178.117 580.327 182.577 580.298 187.05C580.11 217.001 583.354 250.729 579.089 276.095C571.173 323.179 572.65 370.34 572.058 418.19C571.944 427.487 570.966 436.72 570.407 445.982C569.196 445.75 568.163 445.515 566.735 445.28C566.735 400.927 566.735 356.575 566.735 312.22C566.165 312.265 565.308 312.307 564.452 312.351C564.452 379.004 564.452 445.657 564.452 512.305C563.31 512.317 562.169 512.332 561.027 512.347C561.027 488.989 561.027 465.627 561.027 434.463C559.028 445.523 558.455 448.586 557.095 455.912C555.321 428.323 553.824 404.421 552.286 380.518C551.571 380.661 550.752 380.809 550.181 380.951C550.181 403.839 550.181 426.722 550.181 449.612C547.898 421.873 548.374 394.297 547.855 366.837C547.366 340.965 550.179 313.696 545.791 289.07C544.709 289.252 543.616 289.436 542.475 289.618C542.475 315.63 542.475 341.642 542.475 367.656C542.189 367.652 541.491 367.65 540.967 367.646C538.299 321.781 535.68 275.917 533.013 230.05C532.535 230.109 532.199 230.169 531.629 230.23C531.629 273.696 531.629 317.158 531.629 360.627C529.059 340.317 529.619 319.889 529.061 299.641C528.528 280.319 526.952 261.187 525.551 236.953C519.844 286.348 530.478 335.88 516.931 379.561C516.014 369.942 515.378 363.3 514.832 357.57C505.161 387.564 507.897 422.821 507.635 456.775C507.493 475.224 507.523 493.678 507.477 512.131C506.688 512.381 505.912 512.232 505.146 511.682C502.705 473.615 500.237 435.549 497.797 397.485C496.717 397.531 495.667 397.58 494.526 397.627C494.526 428.696 494.526 459.762 494.526 490.833C493.384 490.757 492.243 490.687 491.101 490.613C491.101 433.365 491.101 376.119 491.101 318.869C490.531 318.892 490.11 318.913 489.613 318.935C487.569 341.78 485.522 364.623 483.478 387.467C483.359 380.568 484.327 371.1 482.938 367.208C476.363 348.78 478.982 326.601 477.894 305.764C476.976 288.162 474.105 271.288 472.828 253.736C472.06 243.183 472.687 231.953 472.687 221.027C471.664 220.824 470.642 220.623 469.619 220.424C468.864 233.458 467.551 246.47 467.455 259.538C467.115 305.625 467.204 351.733 467.052 397.83C467.048 399.149 466.172 400.446 466.137 400.541C464.121 394.145 462.075 387.646 458.539 376.42C456.171 404.421 454.491 424.286 452.6 446.659C451.065 417.86 449.636 391.778 448.247 365.698C447.321 365.87 446.577 366.048 445.435 366.219C445.435 389.774 445.435 413.328 445.435 436.883C444.579 436.883 443.722 436.887 442.866 436.889C442.866 413.531 442.866 390.174 442.866 366.816C442.58 366.86 442.046 366.907 441.601 366.953C440.441 385.669 439.321 404.385 438.162 423.099C436.958 422.745 435.731 422.394 434.589 422.043C434.589 401.487 434.589 380.934 434.589 360.379C434.018 360.443 433.488 360.504 432.941 360.568C432.513 374.265 432.157 387.959 431.729 401.657C430.946 401.555 430.022 401.453 429.451 401.352C429.451 378.261 429.451 355.174 429.451 332.081C428.595 332.124 428.195 332.159 427.602 332.2C427.209 348.551 426.78 364.9 426.387 381.256C424.193 353.86 423.149 326.601 421.338 299.696C420.99 294.533 417.535 290.753 415.518 286.335C414.287 291.267 413.049 296.195 411.764 301.343C410.046 292.652 408.387 284.339 406.743 276.025C406.136 276.359 405.477 276.694 404.907 277.026C404.907 311.562 404.907 346.098 404.907 380.636C404.336 380.594 403.875 380.558 403.352 380.52C402.953 370.908 402.559 361.3 402.16 351.69C394.663 404.658 398.201 458.869 397.728 512.48C397.434 514.678 397.443 516.866 397.749 519.051C397.486 535.03 397.22 551.008 396.956 566.985C396.087 548.752 395.203 530.514 394.347 512.277C394.347 453.266 394.347 394.255 394.347 335.241C392.92 335.04 391.645 334.843 390.291 334.642C389.784 359.59 389.277 384.537 388.769 409.484C388.381 409.414 387.994 409.347 387.607 409.273C386.936 403.556 386.267 397.84 385.352 390.024C384.246 398.279 383.507 403.947 382.747 409.619C382.136 409.404 381.504 409.192 380.934 408.978C380.934 360.229 380.934 311.475 380.934 262.723C380.077 262.434 379.416 262.15 378.666 261.86C375.007 290.145 371.338 318.433 367.681 346.718C358.821 300.547 364.901 249.02 361.402 198.177C359.661 212.835 358.167 225.117 356.708 237.398C355.852 237.059 354.961 236.716 354.105 236.379C354.105 201.225 354.105 166.071 354.105 130.915C352.963 130.742 352.007 130.568 350.941 130.395C350.278 144.492 349.086 158.589 349.051 172.696C348.858 247.72 348.967 322.751 348.967 397.775C348.967 408.138 348.967 418.506 348.967 428.871C348.111 428.795 346.969 428.723 345.828 428.644C345.828 361.691 345.828 294.739 345.828 227.786C345.542 227.811 345.035 227.832 344.602 227.855C343.328 295.606 342.092 363.353 340.767 433.794C328 416.488 335.775 387.229 331.417 366.678C329.721 379.281 328.138 390.709 326.6 402.135C325.89 401.936 325.277 401.737 324.421 401.538C324.421 362.145 324.421 322.749 324.421 283.355C323.85 283.245 323.259 283.135 322.664 283.027C319.99 296.946 317.286 310.861 313.576 330.47C313.576 306.431 313.576 288.092 313.576 269.753C301.588 273.07 309.035 243.136 305.36 235.931C302.776 236.769 299.765 238.03 299.741 237.715C298.949 227.724 298.077 217.609 297.985 207.459C297.758 182.281 297.916 157.079 297.916 131.889C297.331 131.961 296.749 132.031 296.164 132.107C294.723 169.166 293.281 206.223 291.718 246.376C290.099 239.755 289.309 236.523 287.565 229.388C286.146 305.768 284.812 377.518 283.478 449.276C283.012 449.223 282.545 449.163 282.079 449.108C281.842 435.623 281.606 422.135 281.37 408.65C280.817 408.606 280.263 408.566 279.709 408.521C279.336 427.26 278.962 445.997 278.589 464.736C278.052 464.761 277.516 464.783 276.98 464.808C276.587 448.222 276.182 431.635 275.79 415.051C275.069 415.045 274.474 415.036 273.618 415.03C273.618 438.132 273.618 461.231 273.618 484.332C272.762 484.305 271.621 484.275 270.764 484.248C270.764 431.836 270.764 379.429 270.764 327.022C270.193 327.09 269.676 327.16 269.167 327.234C267.72 368.052 266.241 408.864 264.796 449.687C264.46 449.566 264.107 449.445 263.769 449.322C258.622 350.429 253.424 251.541 248.278 152.647C247.704 152.654 247.076 152.66 246.505 152.669C246.505 247.147 246.505 341.627 246.505 436.11C244.507 431.68 244.143 427.243 244.109 422.794C243.184 303.002 242.323 183.21 241.384 63.4183C241.329 56.3041 240.881 49.2067 240.609 42.1031C238.759 71.017 238.873 99.6919 238.692 128.356C238.644 136.074 238.002 150.213 237.155 150.454C227.651 153.191 230.846 171.509 230.808 184.211C230.579 261.542 230.707 338.878 230.653 416.211C230.646 424.936 230.261 433.661 230.051 442.386C227.994 430.577 228.171 419.121 227.942 407.723C227.72 396.638 227.111 385.61 226.657 374.555C225.462 374.872 224.243 375.187 223.101 375.503C223.101 400.482 223.101 425.463 223.101 456.972C207.974 408.866 218.249 357.185 212.255 312.062C212.255 378.79 212.255 445.521 212.255 512.252C211.97 526.414 211.644 540.577 211.328 554.74C210.79 554.736 210.262 554.736 209.723 554.736C209.423 540.579 209.129 526.421 208.83 512.266C208.902 474.272 210.323 436.004 207.925 398.509C206.804 398.577 205.683 398.647 204.562 398.717C204.096 406.967 203.603 415.216 203.138 423.467C202.382 423.319 201.695 423.171 200.839 423.022C200.839 357.809 200.839 292.592 200.839 227.377C199.983 227.36 199.412 227.343 198.556 227.324C198.556 246.429 198.556 265.534 198.556 284.64C197.985 284.676 197.528 284.71 197.038 284.744C195.694 263.685 194.39 242.623 193.047 221.56C192.112 221.821 191.135 222.081 190.279 222.337C190.279 249.714 190.279 277.089 190.279 304.465C189.708 304.481 189.206 304.496 188.702 304.509C187.267 231.007 185.794 157.501 184.359 83.9966C183.585 84.0812 182.859 84.162 182.003 84.2467C182.003 162.365 182.003 240.486 182.003 318.609C177.151 280.349 183.546 238.538 175.024 201.814C174.214 265.359 174.346 328.747 174.102 392.119C174.054 404.218 172.528 416.273 171.683 428.346C171.226 419.399 170.77 410.456 170.313 401.511C161.426 440.136 163.917 480.194 163.701 519.503C162.59 517.088 161.454 514.675 160.311 512.26C160.311 434.163 160.311 356.07 160.311 277.972C159.741 277.945 158.85 277.919 158.091 277.892C156.813 309.945 155.564 341.996 154.285 374.051C153.969 374.042 153.665 374.036 153.347 374.03C152.867 360.138 152.393 346.24 151.911 332.35C151.448 332.441 150.987 332.532 150.522 332.623C150.198 349.226 149.874 365.825 149.548 382.427C148.868 383.29 148.189 384.154 147.509 385.02C146.61 378.716 145.734 372.411 144.835 366.103C143.802 367.87 142.615 369.644 141.759 371.412C141.759 388.339 141.759 405.268 141.759 422.193C140.902 422.25 140.256 422.309 139.517 422.369C137.353 339.735 135.165 257.099 132.999 174.466C132.311 174.544 131.483 174.623 130.913 174.699C130.913 232.021 130.913 289.345 130.913 346.665C130.341 346.684 129.771 346.703 128.915 346.718C128.915 323.092 128.915 299.461 128.915 280.14C124.348 272.553 121.494 267.442 117.784 261.344C117.784 317.673 117.784 372.961 117.784 428.253C115.501 393.876 113.358 359.499 111.022 322.819C107.203 351.644 113.217 382.806 104.084 407.268C104.084 343.122 104.084 278.98 104.084 214.833C101.801 231.373 104.038 254.333 100.611 263.388C94.0101 280.823 94.3798 299.266 94.0938 319.042C94.0938 347.664 94.0938 376.286 94.0938 405.737C79.5374 397.821 88.9815 367.857 83.5437 349.857C83.0309 368.713 82.5543 385.354 82.1023 401.993C81.1564 401.894 80.1998 401.794 79.2531 401.695C78.3566 327.437 77.4534 253.18 76.6859 189.554C71.9712 270.219 66.6608 360.976 61.3553 451.733C60.7119 451.568 60.0659 451.405 59.4216 451.24C58.8004 438.682 58.1775 426.128 57.5554 413.57C56.3301 413.519 55.1048 413.468 53.8795 413.419C53.559 448.817 53.2401 484.212 52.9213 519.609C52.291 519.423 51.6606 519.237 51.032 519.051C50.7411 516.881 50.4493 514.713 50.1568 512.541C49.9308 479.254 52.3633 445.371 48.6981 412.873C47.5427 412.956 46.4316 413.038 45.2901 413.123C45.2901 439.537 45.2901 465.953 45.2901 492.365C44.4338 492.312 43.5775 492.257 42.7212 492.204C42.7212 472.983 42.7212 453.757 42.7212 432.01C38.7256 435.771 36.2348 438.339 33.2279 441.294C32.065 426.883 31.046 414.579 30.0533 402.27C29.0868 402.493 28.1073 402.717 27.1417 402.937C26.6658 423.116 26.1416 443.294 25.5104 470.085C20.9848 436.673 27.5945 405.636 17.6056 381.51C17.6056 397.337 17.6056 413.163 17.6056 428.994C17.0344 428.926 16.5167 428.86 15.9521 428.791C15.6538 416.751 15.3769 404.711 15.0794 392.674C14.2823 392.445 13.495 392.214 12.6979 391.988C10.5103 420.476 8.32756 448.965 6.08571 478.162C3.43625 475.389 1.2355 473.084 -1.61447 470.095C-2.57845 480.042 -3.35832 488.094 -4.14067 496.15C-4.74387 493.722 -5.34541 491.294 -5.94942 488.867C-8.34413 490.907 -10.7405 492.941 -11.8836 493.917C-14.515 485.607 -16.4486 473.538 -19.2296 472.064C-23.8891 469.592 -25.1366 443.937 -32.0035 459.734C-35.6391 430.575 -41.4648 450.902 -44.4849 458.53C-53.2131 480.578 -60.8098 495.849 -67.7293 498.906C-70.3286 491.908 -73.0142 484.678 -76.3162 475.792C-77.7896 482.459 -78.8029 487.053 -79.8178 491.644C-89.3448 478.973 -92.019 480.065 -102.864 489.468C-109.749 495.439 -117.388 501.103 -124.416 499.403C-140.301 495.563 -155.898 497.644 -171.598 502.951C-175.973 504.426 -180.58 504.033 -184.95 502.303C-194.109 498.677 -203.015 491.396 -212.283 503.243C-214.372 505.914 -218.147 500.259 -221 498.436C-221 503.053 -221 507.671 -221 512.288C-221 514.597 -221 516.904 -221 519.211C-221 521.519 -221 523.828 -221 526.137C-207.871 537.011 -194.962 537.266 -181.563 528.173C-175.733 524.215 -169.175 526.286 -162.995 527.473C-160.191 528.011 -156.253 531.126 -155.036 536.435C-151.821 550.466 -147.506 545.782 -143.405 543.826C-132.934 538.839 -122.535 532.872 -112.085 527.572C-106.312 524.643 -101.932 527.291 -99.0223 543.393C-97.8685 549.787 -91.6048 557.555 -90.6153 555.464C-83.0565 539.445 -73.5903 560.626 -66.0512 545.831C-65.0601 543.888 -61.2913 551.33 -60.3455 552.509C-56.0993 542.59 -52.4924 534.168 -46.9634 521.247C-43.6951 545.856 -41.293 563.945 -38.7652 582.983C-38.3823 574.77 -37.996 566.526 -37.3221 552.126C-35.9202 563.694 -35.2841 568.924 -34.4262 576.004C-30.8719 575.232 -25.9444 554.122 -23.401 587.034C-22.3154 571.259 -21.8215 564.089 -21.3293 556.92C-20.6307 555.781 -19.9339 554.645 -19.2353 553.506C-19.0989 558.186 -18.9272 562.866 -18.7891 567.546C-18.0856 566.257 -17.5005 564.961 -16.645 563.672C-16.645 558.008 -16.645 552.339 -16.645 546.673C-15.2176 561.316 -13.8082 575.955 -11.6075 598.401C-9.66968 580.908 -8.51012 570.289 -6.55096 552.594C-5.97572 573.898 -5.60838 587.809 -5.29034 599.648C0.0578766 583.639 5.19078 568.261 11.1438 550.443C13.1046 571.11 14.8707 590.313 16.6926 609.518C17.3007 609.258 17.8899 608.997 18.4603 608.741C18.4603 579.046 18.4603 549.353 18.4603 519.658L19.6428 519.601L20.8188 519.859C22.3358 549.763 17.8891 581.747 26.7373 609.543C26.7373 590.573 26.7373 571.606 26.7373 552.64C27.0225 552.64 27.4309 552.642 27.7876 552.646C29.1477 580.862 30.4971 609.075 31.9755 639.719C34.8624 615.669 37.2744 595.543 39.6904 575.418C40.9823 603.094 42.3111 630.769 43.603 658.445C44.1536 658.437 44.719 658.428 45.2893 658.419C45.2893 634.922 45.2893 611.423 45.2893 587.925C45.8596 587.881 46.3831 587.84 46.951 587.796C48.4581 613.186 49.9464 638.58 51.4527 663.974C53.1185 642.487 52.7536 621.117 53.2196 599.866C53.6058 582.217 54.9528 564.705 55.8773 547.137C57.3581 573.944 51.5711 604.815 62.851 626.913C64.5299 611.812 66.1176 596.904 67.7743 581.998C68.4852 582.293 69.2634 582.587 69.8346 582.877C69.8346 617.751 69.8346 652.624 69.8346 687.496C78.1117 660.894 72.1882 629.768 76.2117 598.422C77.8134 643.349 79.2975 684.806 80.7759 726.261C81.5977 726.137 82.3924 726.014 83.2487 725.889C83.2487 703.09 83.2487 680.294 83.2487 657.495C84.105 657.539 84.9605 657.586 85.8168 657.628C85.8168 687.926 85.8168 718.227 85.8168 748.525C86.6731 748.508 87.5294 748.487 88.3857 748.468C88.3857 713.555 88.3857 678.64 88.3857 643.726C88.956 643.706 89.7416 643.69 90.4402 643.673C90.7541 655.713 91.0483 667.752 91.3622 679.792C93.6 666.497 93.2869 653.176 93.6665 639.983C94.2171 620.891 95.2354 601.9 96.0916 582.869C96.0916 633.229 96.0916 683.589 96.0916 733.949C97.2331 733.983 98.4831 734.015 99.6821 734.049C100.227 660.213 100.769 586.378 101.313 512.546C101.656 505.155 101.996 497.765 102.337 490.369C102.834 490.34 103.329 490.312 103.826 490.283C104.089 497.479 104.351 504.676 104.613 511.875C105.229 583.83 101.753 656.271 108.864 727.547C109.673 716.33 109.671 705.127 109.672 693.921C109.678 640.904 109.623 587.883 109.744 534.868C109.766 524.859 110.489 514.864 110.889 504.862C111.392 506.253 111.952 507.542 112.378 509.074C112.624 509.959 112.655 511.244 112.782 512.347C113.476 549.459 114.17 586.568 114.863 623.687C115.522 623.674 116.18 623.659 116.839 623.648C118.362 595.82 119.878 567.994 121.401 540.168C122.194 540.342 122.919 540.516 123.775 540.689C123.775 588.605 123.775 636.518 123.775 687.869C126.915 658.441 129.702 633.295 132.167 610.58C136.409 646.844 140.837 684.669 145.262 722.498C148.579 709.745 149.775 697.642 149.905 685.462C150.211 656.648 149.794 627.766 150.188 598.964C150.417 582.141 151.745 565.415 152.601 548.644C152.601 628.706 152.601 708.765 152.601 788.827C153.172 788.854 153.973 788.88 154.69 788.907C156.127 733.444 157.498 677.976 158.935 622.51C159.605 622.523 160.307 622.531 160.878 622.542C160.878 659.433 160.878 696.325 160.878 733.215C162.02 733.211 162.848 733.204 163.817 733.198C164.625 683.018 165.45 632.84 166.259 582.661C168.466 610.047 170.682 637.43 173.057 666.903C174.293 613.656 175.474 562.834 176.654 512.012C176.976 500.688 177.299 489.366 177.621 478.044C178.136 478.167 178.679 478.285 179.194 478.404C179.453 489.698 179.716 500.991 180.001 512.281C180.001 595.596 180.001 678.907 180.001 762.22C183.711 717.973 181.364 673.133 186.957 628.43C191.45 592.512 189.856 551.552 190.971 512.832L191.738 512.946L192.508 512.895C192.7 549.757 192.682 586.642 193.225 623.471C193.366 632.996 194.499 649.009 196.5 650.533C202.503 655.116 200.967 665.576 201.034 674.841C201.21 699.081 201.094 723.337 201.094 747.587C201.75 747.477 202.405 747.373 203.06 747.27C203.604 742.439 204.143 737.611 204.687 732.781C205.594 732.988 206.544 733.194 207.4 733.401C207.4 793.837 207.4 854.273 207.4 914.704C208.827 914.679 210.254 914.66 211.396 914.638C211.396 829.313 211.396 743.989 211.396 658.665C212.537 658.722 213.679 658.784 214.821 658.845C214.821 727.682 214.821 796.521 214.821 865.36C215.391 865.474 216.03 865.589 216.656 865.709C219.226 821.42 221.775 777.134 224.296 733.7C224.913 736.318 225.728 739.821 228 749.458C229.447 714.791 230.642 686.034 231.842 657.277C232.169 657.268 232.492 657.255 232.818 657.247C233.178 676.062 233.536 694.875 233.897 713.688C241.32 647.044 238.054 579.416 238.47 512.249C238.759 498.036 239.047 483.824 239.336 469.609C239.881 469.634 240.424 469.653 240.967 469.678C241.248 483.936 241.529 498.201 241.81 512.461C242.21 577.382 242.675 642.305 243.076 707.228C244.387 707.218 245.645 707.203 247.073 707.195C247.073 655.909 247.073 604.497 247.073 553.038C247.929 553.038 248.785 553.038 249.641 553.038C249.641 613.319 249.641 673.393 249.641 733.42C250.783 733.492 251.688 733.562 252.711 733.638C253.787 698.935 254.802 664.241 255.878 629.54C256.482 629.567 257.062 629.588 257.633 629.618C257.633 682.634 257.633 735.649 257.633 788.67C258.489 788.702 258.891 788.734 259.491 788.763C260.045 777.411 260.674 766.055 261.228 754.699C262.002 754.841 262.771 754.979 263.627 755.122C263.627 786.905 263.627 818.68 263.627 850.464C263.912 850.331 264.263 850.2 264.604 850.067C265.873 829.509 267.054 808.954 268.324 788.397C269.356 788.606 270.477 788.812 271.333 789.02C271.333 809.642 271.333 830.263 271.333 850.888C272.474 850.842 273.331 850.797 274.187 850.75C274.187 820.632 274.187 790.514 274.187 753.266C276.185 764.529 276.933 768.367 277.777 772.983C278.815 767.164 279.639 762.502 280.612 757.051C281.536 763.05 282.273 767.867 283.016 772.691C284.019 772.513 285.021 772.333 286.024 772.158C288.755 700.698 286.179 628.64 287.437 557.013C288.234 569.15 289.658 581.264 289.718 593.425C289.976 645.044 289.827 696.681 289.827 748.311C299.191 684.453 292.784 617.709 296.49 545.661C300.73 603.153 293.88 656.144 303.014 705.205C303.014 640.902 303.014 576.601 303.014 512.3C303.014 484.762 303.014 457.226 303.014 429.69C304.155 429.735 305.297 429.775 306.439 429.817C306.439 457.302 306.439 484.787 306.439 512.275C306.439 585.8 306.439 659.332 306.439 732.86C307.295 732.904 308.417 732.953 309.427 732.995C310.545 694.753 311.69 656.504 312.806 618.255C319.494 647.534 312.718 680.88 322.422 715.415C322.422 674.951 322.422 642.193 322.422 609.441C324.705 636.977 324.435 664.495 325.079 691.83C325.696 718.032 321.851 745.915 330.128 770.213C330.128 744.048 330.128 717.879 330.128 691.711C338.119 745.754 338.588 801.927 338.436 858.305C339.401 858.201 340.403 858.104 341.259 858.002C341.259 823.458 341.259 788.912 341.259 748.623C343.543 760.173 344.744 765.34 346.841 775.409C347.966 765.524 348.802 761.437 348.849 757.292C349.78 675.677 350.619 594.055 351.478 512.431C352.568 514.679 353.64 516.923 354.731 519.173C355.248 590.992 351.534 663.316 359.812 734.489C359.812 683.469 359.812 632.446 359.812 581.429C360.668 581.432 361.524 581.433 362.38 581.442C362.38 653.318 362.38 725.199 362.38 797.075C363.522 797.169 364.864 797.264 366.095 797.357C367.327 720.602 368.641 643.851 369.874 567.101C371.059 567.178 372.085 567.258 373.511 567.341C373.511 625.304 373.511 683.267 373.511 741.235C373.796 741.231 374.297 741.227 374.723 741.222C375.802 731.515 376.856 721.804 377.934 712.097C378.941 712.41 379.791 712.721 380.932 713.032C380.932 747.854 380.932 782.675 380.932 817.497C381.788 817.493 382.93 817.489 384.071 817.485C384.071 768.651 384.071 719.812 384.071 670.976C384.642 670.938 385.49 670.902 386.23 670.864C386.566 682.831 386.91 694.801 387.246 706.769C387.995 706.758 388.638 706.746 389.494 706.731C389.494 685.558 389.494 664.387 389.494 643.213C390.351 643.26 391.207 643.308 392.063 643.359C392.063 719.422 392.063 795.484 392.063 871.549C393.205 871.558 394.344 871.566 395.455 871.572C396.076 802.913 396.669 734.252 397.48 665.608C397.638 652.171 398.914 638.826 399.769 625.435C399.769 670.921 399.769 716.408 399.769 761.892C400.34 761.926 401.178 761.957 401.903 761.993C404.609 722.509 407.294 683.022 410.209 640.468C410.685 663.988 411.155 685.018 411.58 706.041C412.384 705.935 413.183 705.835 414.04 705.732C414.04 659.582 414.04 613.433 414.04 567.285C414.611 567.307 415.467 567.33 416.323 567.353C416.323 643.749 416.323 720.147 416.323 796.542C416.894 796.65 417.714 796.76 418.419 796.868C420.533 761.672 422.637 726.475 424.751 691.281C425.375 691.544 425.993 691.804 426.617 692.066C426.906 698.901 427.189 705.73 427.478 712.564C428.367 731.308 429.213 750.053 430.104 768.794C430.946 768.652 431.734 768.507 432.591 768.361C432.591 731.594 432.591 694.825 432.591 658.056C437.442 733.757 431.163 810.804 440.582 885.712C440.582 857.689 440.582 829.67 440.582 796.84C442.866 805.038 443.614 808.209 445.756 816.384C445.756 762.66 445.609 714.578 445.905 666.514C445.979 654.495 447.574 642.54 448.461 630.556C449.828 691.237 443.691 754.689 459.316 816.068C463.982 732.332 468.268 653.824 472.549 578.637C472.549 630.217 472.549 685.818 472.549 741.419C473.12 741.396 473.48 741.368 473.941 741.345C475.319 718.059 476.697 694.776 478.073 671.492C485.041 679.931 482.928 696.562 483.441 710.859C484.054 727.983 484.767 745.094 485.41 762.214C486.72 761.977 487.961 761.733 489.388 761.498C489.388 708.977 489.388 656.453 489.388 603.932C490.244 603.991 491.1 604.055 491.957 604.116C491.957 683.966 491.957 763.812 491.957 843.664C495.096 823.839 496.021 803.705 496.931 783.586C497.28 775.898 497.703 768.24 498.106 760.567C498.617 761.972 499.167 763.278 499.605 764.821C499.858 765.704 499.902 766.97 500.043 768.06C501.791 800.898 503.535 833.73 505.282 866.569C505.936 866.416 506.586 866.262 507.239 866.111C507.534 856.228 507.828 846.348 508.123 836.467C508.507 836.467 508.89 836.463 509.272 836.463C510.105 845.715 510.975 854.971 511.806 864.223C512.884 864.119 513.933 864.011 515.075 863.91C515.075 797.723 515.075 731.541 515.075 665.35C515.931 665.369 516.673 665.381 517.493 665.394C518.904 736.771 520.25 808.146 521.66 879.522C522.436 879.486 523.352 879.453 523.922 879.417C523.922 784.735 523.922 690.049 523.922 595.364C527.633 636.576 524.721 679.059 529.021 719.778C535.769 662.619 525.349 600.519 539.905 539.948C539.905 609.052 539.905 671.835 539.905 734.618C540.761 734.641 541.618 734.663 542.474 734.686C542.474 717.911 542.474 701.141 542.474 684.37C543.044 684.266 543.464 684.167 543.969 684.064C545.565 698.855 547.151 713.644 548.746 728.435C549.261 728.247 549.77 728.059 550.285 727.87C550.63 709.542 550.972 691.213 551.318 672.883C552.515 672.906 553.712 672.927 554.911 672.957C556.462 723.444 557.99 773.934 559.541 824.421C560.139 824.408 560.739 824.396 561.31 824.387C561.31 798.373 561.31 772.361 561.31 746.345C562.737 746.061 563.922 745.776 565.216 745.492C566.067 771.62 566.93 797.746 567.782 823.868C568.262 823.754 568.747 823.635 569.228 823.517C570.586 775.005 571.948 726.49 573.307 677.978C573.484 677.995 573.662 678.01 573.839 678.025C574.875 712.694 575.974 747.365 577.009 782.036C578.319 781.837 579.576 781.638 581.003 781.444C581.003 740.363 581.003 699.276 581.003 658.193C581.573 658.25 582.43 658.31 583.286 658.367C583.286 688.902 583.286 719.435 583.286 749.969C584.427 750.223 585.515 750.474 586.62 750.728C588.219 707.91 589.826 665.098 591.424 622.281C591.98 622.334 592.538 622.389 593.093 622.446C594.517 673.164 595.978 723.887 597.403 774.609C597.824 774.56 598.128 774.509 598.698 774.461C598.698 687.067 598.698 599.671 598.698 512.277C598.698 496.029 598.665 479.778 598.664 463.534C599.796 479.805 600.909 496.074 602.041 512.345C602.005 542.296 601.731 572.268 601.992 602.205C602.254 632.027 600.667 662.382 603.408 694.319C606.972 687.133 608.973 683.215 612.968 675.074C612.968 742.846 612.968 803.84 612.968 864.839C613.825 864.82 614.681 864.803 615.537 864.784C615.537 830.449 615.537 796.11 615.537 761.771C616.394 761.691 617.126 761.614 617.891 761.536C620.171 791.923 622.48 822.311 624.76 852.698C630.927 807.885 627.977 761.937 628.51 716.652C629.039 671.615 628.632 626.504 628.632 581.427C629.54 581.459 630.45 581.489 631.358 581.52C631.358 638.933 631.223 696.348 631.467 753.755C631.518 766.017 632.908 778.245 633.698 790.488C634.789 790.166 635.801 789.84 636.942 789.521C636.942 745.479 636.942 701.439 636.942 657.397C641.793 726.583 641.794 726.583 647.502 742.588C647.502 666.85 647.502 593.194 647.502 519.539L648.784 519.142L650.071 519.432C650.071 611.755 650.071 704.085 650.071 796.411C651.498 796.546 653.033 796.682 654.502 796.815C656.918 732.648 654.54 667.549 656.047 603.204C656.982 603.276 657.777 603.345 658.919 603.42C658.919 630.92 658.919 658.416 658.919 685.918C659.49 685.814 660.345 685.706 660.917 685.6C660.917 676.6 660.917 667.6 660.917 658.598C668.337 656.017 665.832 670.646 666.154 679.22C667.538 716.15 668.684 753.148 670.001 793.284C671.611 776.137 672.924 762.309 674.223 748.478C676.595 782.417 678.973 816.354 681.096 846.737C683.199 815.624 685.509 781.497 687.819 747.367C688.715 737.11 690.174 726.935 690.389 716.586C690.803 696.766 690.575 676.848 690.575 656.972C691.513 656.999 692.313 657.025 693.455 657.057C693.455 680.776 693.455 704.496 693.455 728.215C693.741 728.162 694.226 728.108 694.62 728.055C695.948 704.858 697.166 681.661 698.592 658.471C698.592 729.437 698.592 800.403 698.592 871.369C699.449 871.365 700.594 871.361 701.619 871.356C702.742 802.782 703.841 734.201 704.963 665.625C705.701 665.659 706.298 665.691 707.155 665.72C707.155 722.655 707.155 779.591 707.155 836.526C707.441 836.456 707.999 836.391 708.423 836.321C709.362 803.828 710.299 771.339 711.237 738.847C712.056 738.843 712.875 738.843 713.694 738.839C714.41 746.25 715.124 753.66 715.414 756.659C717.566 738.805 719.964 718.925 722.361 699.043C722.761 687.327 723.162 675.618 723.563 663.906C726.595 720.714 728.843 777.079 731.148 833.434C731.206 834.875 731.896 836.143 732.746 839.054C733.314 827.492 733.791 818.056 734.255 808.626C735.016 808.758 735.695 808.889 736.552 809.022C736.552 869.308 736.552 929.597 736.552 989.883C738.835 976.264 738.677 962.619 738.863 949.001C739.7 888.186 740.182 827.304 741.695 766.597C742.603 730.175 745.161 694.029 746.981 657.759C748.344 692.52 749.717 727.284 751.08 762.048C751.468 762.135 751.964 762.218 752.25 762.307C752.25 741.14 752.25 719.973 752.25 698.806C753.391 698.768 754.248 698.734 755.389 698.694C755.389 735.626 755.389 772.56 755.389 809.492C756.245 809.401 757.102 809.305 757.958 809.21C757.958 756.553 757.958 703.897 757.958 651.238C762.81 687.171 756.816 726.774 765.379 767.565C765.379 678.183 765.379 595.34 765.379 512.493C765.379 491.825 765.379 471.164 765.379 450.497C766.52 450.582 767.661 450.671 768.803 450.755C768.803 471.283 768.803 491.807 768.803 512.332C768.803 593.171 768.803 674.015 768.803 754.852C769.373 754.903 769.865 754.953 770.379 755.004C770.971 747.287 771.581 739.569 772.481 727.841C773.73 738.085 774.409 743.278 775.041 748.47C775.8 748.036 776.51 747.604 777.365 747.172C777.365 708.581 777.365 669.985 777.365 631.396C777.651 631.483 777.988 631.565 778.317 631.65C779.721 686.692 781.106 741.73 782.508 796.771C782.98 796.65 783.442 796.534 783.911 796.415C784.486 791.375 785.07 786.333 785.644 781.291C786.306 781.357 787.069 781.424 787.641 781.496C787.641 814.794 787.641 848.096 787.641 881.396C788.496 881.567 789.111 881.743 789.852 881.919C791.311 873.964 792.725 866.01 794.184 858.062C794.777 858.339 795.346 858.62 795.916 858.9C795.916 900.141 795.916 941.381 795.916 982.62C804.193 858.809 798.46 734.011 803.587 610.026C804.772 686.03 805.978 762.036 807.165 838.044C817.264 730.332 813.49 621.06 813.805 512.3C814.133 502.354 814.468 492.401 814.797 482.446C815.276 482.451 815.799 482.451 816.278 482.451C816.612 492.389 817.036 502.324 817.323 512.264C817.323 625.344 817.323 738.424 817.323 851.504C818.178 851.54 818.948 851.572 819.781 851.603C820.723 789.984 821.645 728.363 822.588 666.745C828.44 649.199 823.298 620.156 832.713 604.912C834.74 601.627 833.448 584.771 833.687 574.169C835.656 632.039 835.602 689.571 835.686 747.103C835.708 762.042 835.833 777.062 836.447 791.902C839.691 870.372 843.434 948.72 846.293 1027.28C847.349 1056.28 846.509 1085.75 846.509 1115C847.42 1114.99 848.147 1114.99 849.289 1114.98C849.289 1066.09 849.289 1017.21 849.289 968.322C849.574 968.271 850.24 968.216 850.738 968.166C851.514 973.696 852.267 979.229 853.042 984.756C853.632 984.546 854.209 984.339 854.797 984.128C855.934 894.029 857.063 803.927 858.201 713.826C858.942 713.866 859.564 713.902 860.42 713.941C860.42 762.229 860.42 810.515 860.42 858.803C860.706 858.697 860.996 858.586 861.283 858.485C864.762 801.093 868.281 743.703 871.76 686.309C872.438 686.449 872.979 686.591 873.834 686.733C873.834 730.131 873.834 773.527 873.834 816.924C874.691 816.915 875.261 816.905 876.118 816.894C876.118 726.801 876.118 636.711 876.118 546.62C876.688 546.635 877.193 546.648 877.719 546.659C879.097 636.827 880.475 726.992 881.852 817.159C882.7 817.114 883.538 817.068 884.395 817.023C884.395 777.331 884.395 737.643 884.395 694.008C896.096 724.378 891.423 758.278 892.039 789.188C892.682 821.531 892.157 854.025 892.157 886.453C893.099 886.444 894.098 886.438 894.955 886.432C894.955 839.839 894.955 793.25 894.955 746.658C895.811 746.611 896.315 746.565 896.979 746.516C898.602 785.787 900.261 825.054 901.883 864.323C903.176 864.048 904.374 863.773 905.802 863.499C905.802 813.368 905.802 763.236 905.802 713.102C906.657 713.168 907.799 713.236 908.656 713.301C908.656 789.513 908.656 865.722 908.656 941.933C909.227 941.916 909.509 941.904 909.922 941.889C910.952 906.714 911.997 871.541 913.027 836.365C913.982 836.535 914.946 836.704 915.902 836.875C916.228 848.939 916.559 861.004 916.885 873.073C917.487 873.037 918.091 873.007 918.693 872.973C918.961 858.512 919.258 844.053 919.526 829.592C920.269 829.59 920.927 829.586 921.785 829.577C921.785 850.873 921.785 872.167 921.785 893.465C922.07 893.419 922.499 893.37 922.871 893.323C925.964 828.106 929.065 762.891 932.16 697.674C933.266 697.936 934.342 698.197 935.484 698.461C935.484 717.634 935.484 736.799 935.484 755.972C936.34 755.955 937.196 755.933 938.053 755.918C938.053 700.84 938.053 645.766 938.053 590.685C938.909 614.39 940.233 638.066 940.405 661.798C940.766 711.47 940.535 761.177 940.535 810.868C941.193 810.862 941.86 810.851 942.518 810.845C943.97 757.449 945.425 704.056 946.876 650.662C947.308 650.709 947.742 650.759 948.175 650.81C948.529 665.277 948.905 679.745 949.259 694.213C950.083 694.166 950.895 694.122 951.752 694.078C951.752 658.824 951.752 623.568 951.752 588.313C952.607 588.359 953.689 588.408 954.669 588.452C955.654 634.71 956.63 680.967 957.614 727.223C958.063 727.242 958.507 727.254 958.956 727.267C959.269 715.236 959.579 703.202 959.89 691.171C960.331 691.197 960.771 691.224 961.211 691.252C962.632 756.924 964.055 822.6 965.477 888.275C975.101 808.376 971.945 725.809 973.159 644.255C974.109 644.352 975.156 644.452 976.012 644.553C976.012 757.223 976.012 869.896 976.012 982.565C978.581 949.177 976.538 914.922 978.852 882.685C983.802 813.753 978.685 743.851 985.324 674.242C989.989 625.325 986.04 570.956 985.939 519.023C986.261 516.851 986.275 514.665 985.987 512.463C986.303 496.103 986.684 479.746 986.999 463.384C987.693 463.441 988.285 463.502 989.14 463.557C989.14 473.758 989.14 483.958 989.14 494.158C989.14 597.785 989.066 701.414 989.121 805.045C989.125 814.127 988.975 830.712 989.872 831.167C1001.92 837.223 996.573 861.355 996.831 877.084C997.559 921.679 997.078 966.402 997.078 1011.08C997.955 1011.12 998.824 1011.16 999.701 1011.2C999.701 999.143 999.701 987.08 999.701 975.019C999.702 862.17 999.699 749.323 999.708 636.474C999.713 599.626 999.672 562.775 999.877 525.934C999.907 520.464 1001.19 515.044 1001.89 509.602C1002.17 510.48 1002.5 511.361 1002.79 512.243C1000.74 578.229 1005.12 642.045 1013.97 704.828C1013.97 687.118 1013.97 669.405 1013.97 651.693C1014.26 651.788 1014.61 651.879 1014.95 651.974C1016.31 752.621 1017.57 853.267 1018.92 953.916C1019.77 953.863 1020.54 953.808 1021.39 953.755C1021.39 836.387 1021.39 719.023 1021.39 601.656C1022.25 601.644 1023.1 601.637 1023.96 601.631C1023.96 735.706 1023.96 869.777 1023.96 1003.85C1027.1 962.901 1028.78 921.894 1029.14 880.801C1029.68 818.503 1029.13 756.143 1029.39 693.821C1029.45 681.79 1031.08 669.81 1031.99 657.808C1033.72 695.5 1027.1 736.889 1040.51 773.644C1040.51 747.136 1040.51 724.321 1040.51 701.511C1041.37 713.78 1042.57 726.029 1042.64 738.329C1042.91 780.993 1042.37 823.706 1042.88 866.342C1043.31 902.929 1044.72 939.433 1045.73 975.978C1046.67 975.872 1047.65 975.764 1048.51 975.663C1048.51 844.553 1048.51 713.445 1048.51 582.337C1049.36 582.356 1050.22 582.378 1050.79 582.397C1050.79 594.928 1050.79 607.461 1050.79 619.989C1050.79 734.172 1050.72 848.358 1050.94 962.537C1050.97 978.753 1052.54 994.95 1053.4 1011.16C1054.31 1010.93 1055.23 1010.71 1056.15 1010.49C1056.15 999.105 1056.15 987.719 1056.15 976.336C1056.16 888.681 1055.86 801.01 1056.42 713.379C1056.53 694.871 1059.76 676.49 1061.54 658.053C1062.45 713.39 1063.36 768.725 1064.27 824.061C1064.77 823.909 1065.27 823.761 1065.77 823.611C1066.99 799.108 1068.2 774.605 1069.41 750.1C1070.68 781.802 1071.95 813.501 1073.22 845.205C1073.58 845.4 1073.93 845.592 1074.28 845.783C1074.74 835.663 1075.21 825.541 1075.67 815.415C1076.51 815.442 1077.35 815.465 1078.18 815.491C1079.28 841.409 1080.37 867.324 1081.46 893.241C1083.07 856.356 1082.6 819.722 1083.2 783.203C1083.79 747.257 1080.34 710.226 1086.64 672.034C1095.14 704.348 1088.32 739.229 1093.07 769.681C1093.9 757.244 1093.59 744.812 1093.98 732.525C1094.53 714.734 1095.6 697.049 1096.44 679.318C1097.38 771.349 1098.32 863.379 1099.27 955.41C1099.28 956.562 1099.17 957.817 1099.32 958.852C1100.03 964.042 1100.81 969.179 1101.57 974.331C1102.57 973.946 1103.58 973.563 1104.59 973.174C1104.59 933.166 1104.12 893.108 1104.73 853.164C1105.23 820.505 1101.36 786.678 1109.94 755.565C1112.9 744.833 1112.46 726.856 1112.57 712.139C1112.89 669.469 1112.61 626.769 1112.79 584.088C1112.82 576.286 1113.93 568.511 1114.51 560.724C1115.71 561.033 1117.01 561.338 1118.15 561.649C1118.15 639.306 1118.15 716.969 1118.15 794.629C1119 794.586 1120.15 794.548 1121 794.506C1121 755.845 1121 717.185 1121 678.524C1121.57 678.443 1122.31 678.363 1122.96 678.28C1125.28 724.149 1127.6 770.016 1129.92 815.88C1130.57 815.745 1131.28 815.605 1131.85 815.467C1131.85 735.164 1131.85 654.859 1131.85 574.556C1136.13 647.853 1130.71 722.615 1139.55 795.13C1139.55 733.154 1139.55 671.177 1139.55 609.2C1140.41 608.982 1141.05 608.762 1141.79 608.546C1145.91 674.723 1150.03 740.898 1154.14 807.072C1155.22 806.969 1156.31 806.863 1157.39 806.757C1158.98 766.32 1160.63 725.885 1162.22 685.447C1162.73 685.424 1163.24 685.397 1163.81 685.371C1163.81 724.75 1163.81 764.131 1163.81 803.512C1164.67 803.523 1165.8 803.533 1166.83 803.542C1167.96 738.636 1169.06 673.73 1170.3 603.128C1171.88 634.59 1173.16 660.27 1174.45 685.945C1174.74 690.629 1175.01 695.313 1175.29 699.996C1175.76 699.794 1176.23 699.6 1176.69 699.401C1177.09 685.691 1177.49 671.979 1177.89 658.267C1178.36 658.388 1178.84 658.505 1179.31 658.619C1181.34 722.765 1183.38 786.909 1185.42 851.055C1186.12 850.93 1186.93 850.81 1187.5 850.683C1187.5 740.102 1187.5 629.518 1187.5 518.936C1187.79 516.802 1188.01 514.58 1187.98 512.277L1189.31 512.163L1190.64 512.37C1190.64 624.752 1190.64 737.135 1190.64 849.512C1191.79 849.521 1193.3 849.525 1194.66 849.527C1195.34 758.391 1195.99 667.257 1196.67 576.121C1197.07 576.19 1197.46 576.26 1197.86 576.335C1198.78 604.506 1199.7 632.677 1200.62 660.848C1201.5 661.038 1202.37 661.229 1203.26 661.419C1204.92 652.703 1206.58 643.992 1208.25 635.276C1209.02 635.32 1209.79 635.361 1210.57 635.405C1211.4 681.938 1212.21 728.476 1213.04 775.009C1213.67 774.983 1214.33 774.962 1214.9 774.939C1214.9 724.556 1214.9 674.172 1214.9 623.786C1215.76 635.75 1217.02 647.633 1217.44 659.698C1218.86 700.012 1219.99 740.395 1221.23 780.752C1221.63 780.669 1222.03 780.593 1222.42 780.515C1223.5 735.203 1224.59 689.893 1225.67 644.581C1227.06 651.483 1228.46 658.388 1231.1 671.443C1231.1 649.953 1230.64 635.212 1231.33 620.836C1231.6 615.186 1234.45 610.356 1236.12 605.151C1237.57 647.5 1238.97 689.846 1240.42 732.197C1241.34 732.167 1242.3 732.144 1243.16 732.114C1243.16 673.052 1243.16 613.984 1243.16 554.924C1244.59 554.948 1245.73 554.969 1246.87 554.994C1246.87 630.479 1246.87 705.967 1246.87 781.45C1247.73 781.573 1248.48 781.689 1249.25 781.814C1250.7 754.086 1252.19 726.359 1253.65 698.503C1254.72 701.483 1255.72 704.216 1256.93 707.586C1258.23 665.174 1259.49 624.138 1260.74 583.102C1266.76 579.988 1265.76 591.661 1265.85 599.961C1266.14 628.189 1266.23 656.43 1266.4 684.667C1266.49 685.791 1266.51 687.012 1266.7 688.013C1266.89 688.997 1267.26 689.761 1267.54 690.623C1268.77 682.088 1270.95 673.636 1271.07 665.005C1271.49 633.1 1271.24 601.129 1271.24 569.184C1276.05 632.97 1270.84 697.868 1279.41 760.704C1279.41 717.397 1279.41 674.089 1279.41 630.78C1280.26 630.744 1281.4 630.708 1282.26 630.67C1282.26 664.425 1282.26 698.178 1282.26 731.932C1282.55 731.729 1282.81 731.528 1283.07 731.321C1285.49 679.428 1287.92 627.541 1290.34 575.648C1291.09 575.805 1291.86 575.96 1292.62 576.117C1293.97 605.386 1295.35 634.655 1296.7 663.925C1297.11 663.895 1297.39 663.87 1297.96 663.847C1297.96 613.377 1297.96 562.91 1297.96 512.444C1297.96 503.448 1298.22 494.454 1298.37 485.459C1299.32 494.467 1300.26 503.48 1301.21 512.489C1300.98 514.65 1300.97 516.809 1301.21 518.968C1301.11 574.417 1298.98 630.204 1305.01 687.253C1306.06 678.761 1306.8 672.936 1307.52 667.109C1308.13 667.376 1308.8 667.644 1309.37 667.907C1309.37 694.103 1309.37 720.293 1309.37 746.489C1310.23 746.648 1311.21 746.804 1312.14 746.963C1312.88 729.299 1313.78 711.673 1314.3 693.972C1315.33 658.779 1316.14 623.547 1317.04 588.332C1319.8 603.028 1322.56 617.726 1326.78 640.205C1327.42 609.346 1327.91 585.824 1328.4 562.294C1332.87 608.002 1325.21 657.537 1337.53 699.098C1340.59 662.257 1343.66 625.245 1347.38 580.443C1349.44 606.997 1350.9 624.819 1352.29 642.646C1353.28 642.36 1354.18 642.079 1355.33 641.797C1355.33 610.856 1355.33 579.907 1355.33 548.965C1355.33 549.088 1355.61 549.207 1355.79 549.332C1357.87 599.186 1359.91 649.043 1362 698.897C1363.26 698.865 1364.51 698.84 1365.78 698.808C1367.5 657.761 1369.2 616.716 1370.91 575.82C1373.91 576.474 1375.46 576.078 1375.58 576.946C1377.5 591.452 1379.24 606.114 1381.84 627.501C1383.5 610.766 1384.58 600.452 1386.15 584.526C1388.06 644.515 1387.86 644.515 1398.99 643.397C1398.99 619.28 1398.99 595.006 1398.99 570.725C1399.56 570.664 1400.54 570.594 1401.35 570.526C1402.75 586.575 1404.11 602.626 1405.51 618.672C1406.91 628.805 1408.29 638.935 1410.03 651.538C1411.44 630.132 1412.57 612.731 1413.81 593.767C1416.99 603.136 1419.36 610.132 1421.74 617.134C1421.96 623.528 1422.15 629.923 1422.38 636.315C1423.07 636.271 1423.82 636.224 1424.4 636.178C1424.4 604.436 1424.4 572.698 1424.4 540.958C1425.25 540.791 1426.11 540.624 1426.95 540.456C1428.35 565.658 1429.78 590.861 1431.26 617.514C1432.13 613.713 1432.7 610.968 1433.39 608.438C1433.52 607.964 1434.14 608.371 1434.5 608.371C1435.28 616.086 1436.07 623.88 1436.87 631.675C1437.53 631.479 1438.19 631.286 1438.85 631.091C1440.4 607.877 1441.95 584.664 1443.5 561.454C1445.76 586.042 1447.96 610.627 1450.22 635.214C1450.86 635.187 1451.51 635.161 1452.08 635.132C1452.08 612.02 1452.08 588.908 1452.08 565.798C1453.22 565.561 1453.99 565.326 1454.91 565.091C1457.98 586.666 1461.08 608.244 1464.17 629.914C1476.32 610.981 1465.24 570.408 1475.08 547.145C1475.65 565.053 1476.21 582.052 1476.76 599.051C1477.83 598.932 1478.9 598.812 1479.97 598.693C1480.62 581.997 1481.28 565.302 1481.77 552.957C1485.06 573.456 1488.71 596.178 1493.03 623.073C1496.57 603.857 1499.14 589.906 1502.77 570.219C1504.48 584.672 1505.45 592.872 1507.17 607.448C1507.8 586.799 1508.2 573.826 1508.84 553.233C1510.4 566.458 1511.03 571.754 1511.67 577.135C1513.58 574.349 1515.37 571.748 1517.32 568.924C1518.56 580.071 1519.6 589.418 1521.08 602.63C1525.37 594.216 1528.48 588.114 1531.38 582.428C1531.86 585.855 1532.65 591.458 1533.87 600.194C1538.78 586.84 1542.86 575.773 1546.6 565.607C1549.28 576.131 1551.85 586.285 1554.43 596.434C1555.23 596.075 1555.97 595.717 1556.82 595.364C1556.82 577.746 1556.82 560.129 1556.82 542.518C1557.4 542.666 1557.92 542.817 1558.47 542.965C1558.98 557.333 1559.5 571.699 1560.11 588.484C1568.76 568.016 1574.08 547.717 1572.8 519.692L1573.84 519.484L1574.87 519.643C1576.72 546.049 1578.57 572.45 1580.31 597.321C1588.4 597.73 1591.26 589.896 1593.16 573.921C1594.53 562.495 1599.29 553.764 1603.05 542.256C1605.05 562.04 1606.68 578.076 1608.56 596.633C1621.16 580.204 1627.83 558.243 1628.89 525.712C1632.1 548.625 1635.31 571.542 1638.68 595.55C1639.46 587.057 1640.11 579.92 1640.81 572.268C1643.05 575.771 1644.49 578.024 1645.09 578.959C1649.6 564.267 1653.74 550.805 1659.11 533.3C1661.57 555.206 1663.5 572.467 1665.86 593.59C1669.17 581.685 1671.83 571.585 1674.69 561.875C1679.69 544.929 1687.14 546.221 1690.67 564.735C1692.13 572.404 1693.14 580.644 1693.97 586.073C1697.34 572.624 1700.63 559.536 1703.92 546.449C1708.85 548.125 1713.78 549.8 1719.47 551.734C1719.92 555.599 1720.66 561.992 1721.55 569.766C1724.09 559.75 1726.37 550.75 1729.56 538.19C1735.7 567.506 1743.84 553.091 1751.4 549.861C1754.87 548.381 1758.73 537.061 1761.21 554.156C1761.54 556.459 1764.94 557.798 1766.57 556.524C1772.62 551.768 1778.52 545.738 1785.15 539.559C1786.37 545.604 1787.56 551.476 1788.7 557.121C1799.37 554.613 1808.96 526.946 1820.73 548.278C1821.67 549.975 1823.55 550.648 1824.53 549.382C1836.96 533.251 1850.81 540.846 1863.34 540.738C1891.83 540.499 1920.32 525.24 1948.83 537.906C1950.11 538.473 1951.48 537.62 1952.8 537.368C1965.63 534.934 1978.46 532.544 1991.28 530.021C1998.69 528.565 2006.09 526.895 2013.49 525.32C2023.98 525.945 2034.47 527.164 2044.96 527.087C2087.42 526.778 2129.89 526.209 2172.35 525.284C2176.23 525.199 2180.11 521.923 2183.98 520.126C2188.99 522.122 2193.86 524.116 2199 526.112C2199 521.493 2199 516.877 2199 512.26C2194.16 510.112 2189.56 506.23 2184.82 506.109Z" fill="#9184F1"/>
</svg>
